ISO-10303-21;
HEADER;
FILE_DESCRIPTION(('CATIA V5 STEP Exchange','CAx-IF Rec.Pracs.--- Model Styling and Organization---1.5--- 2016-08-15','CAx-IF Rec.Pracs.---Supplemental Geometry---1.0---2011-11-01','CAx-IF Rec.Pracs.--- Composite Materials ---3.4---2017-06-13','CAx-IF Rec.Pracs.---Tessellated 3D Geometry---1.0---2015-12-17'),'2;1');

FILE_NAME('C:\\Users\\icemi\\Desktop\\RZS_Repository\\RES\\catia_macros\\generated\\RES_Enclosure_20260730_131754\\RES_M4_InsertCoupon.stp','2026-07-30T05:20:30+00:00',('none'),('none'),'CATIA Version 5-6 Release 2022 SP6','CATIA V5 STEP AP242 v3','none');

FILE_SCHEMA(('AP242_MANAGED_MODEL_BASED_3D_ENGINEERING_MIM_LF  {1 0 10303 442 1 1 4}'));

ENDSEC;
DATA;
#5=PRODUCT('Part49','','',(#2)) ;
#2=PRODUCT_CONTEXT(' ',#1,'mechanical') ;
#1=APPLICATION_CONTEXT('managed model based 3d engineering') ;
#10=PRODUCT_DEFINITION('',' ',#6,#3) ;
#3=PRODUCT_DEFINITION_CONTEXT('part definition',#1,' ') ;
#11=PRODUCT_DEFINITION_SHAPE(' ',' ',#10) ;
#719=MECHANICAL_DESIGN_GEOMETRIC_PRESENTATION_REPRESENTATION(' ',(#29),#16) ;
#7=PRODUCT_CATEGORY('part','specification') ;
#19=SHAPE_REPRESENTATION(' ',(#18),#16) ;
#17=CARTESIAN_POINT(' ',(0.,0.,0.)) ;
#31=CARTESIAN_POINT('Axis2P3D Location',(-16.,0.,11.75)) ;
#36=CARTESIAN_POINT('Line Origine',(-13.2,0.,11.75)) ;
#40=CARTESIAN_POINT('Vertex',(-13.2,0.,12.)) ;
#42=CARTESIAN_POINT('Vertex',(-13.2,0.,11.5)) ;
#45=CARTESIAN_POINT('Axis2P3D Location',(-16.,0.,12.)) ;
#49=CARTESIAN_POINT('Vertex',(-18.8,3.42901103761E-16,12.)) ;
#52=CARTESIAN_POINT('Line Origine',(-18.8,3.42901103761E-16,11.75)) ;
#56=CARTESIAN_POINT('Vertex',(-18.8,3.42901103761E-16,11.5)) ;
#59=CARTESIAN_POINT('Axis2P3D Location',(-16.,0.,11.5)) ;
#71=CARTESIAN_POINT('Axis2P3D Location',(-16.,0.,12.)) ;
#76=CARTESIAN_POINT('Axis2P3D Location',(-16.,0.,11.5)) ;
#88=CARTESIAN_POINT('Axis2P3D Location',(0.,0.,11.5)) ;
#97=CARTESIAN_POINT('Axis2P3D Location',(-16.,0.,11.5)) ;
#101=CARTESIAN_POINT('Vertex',(-13.55,0.,11.5)) ;
#103=CARTESIAN_POINT('Vertex',(-18.45,3.00038465791E-16,11.5)) ;
#106=CARTESIAN_POINT('Axis2P3D Location',(-16.,0.,11.5)) ;
#116=CARTESIAN_POINT('Axis2P3D Location',(0.,0.,11.75)) ;
#121=CARTESIAN_POINT('Line Origine',(2.8,0.,11.75)) ;
#125=CARTESIAN_POINT('Vertex',(2.8,0.,12.)) ;
#127=CARTESIAN_POINT('Vertex',(2.8,0.,11.5)) ;
#130=CARTESIAN_POINT('Axis2P3D Location',(0.,0.,12.)) ;
#134=CARTESIAN_POINT('Vertex',(-2.8,3.42901103761E-16,12.)) ;
#137=CARTESIAN_POINT('Line Origine',(-2.8,3.42901103761E-16,11.75)) ;
#141=CARTESIAN_POINT('Vertex',(-2.8,3.42901103761E-16,11.5)) ;
#144=CARTESIAN_POINT('Axis2P3D Location',(0.,0.,11.5)) ;
#156=CARTESIAN_POINT('Axis2P3D Location',(0.,0.,12.)) ;
#161=CARTESIAN_POINT('Axis2P3D Location',(0.,0.,11.5)) ;
#177=CARTESIAN_POINT('Axis2P3D Location',(0.,0.,11.5)) ;
#181=CARTESIAN_POINT('Vertex',(2.55,0.,11.5)) ;
#183=CARTESIAN_POINT('Vertex',(-2.55,3.12284933783E-16,11.5)) ;
#186=CARTESIAN_POINT('Axis2P3D Location',(0.,0.,11.5)) ;
#196=CARTESIAN_POINT('Axis2P3D Location',(16.,0.,11.75)) ;
#201=CARTESIAN_POINT('Line Origine',(18.8,0.,11.75)) ;
#205=CARTESIAN_POINT('Vertex',(18.8,0.,12.)) ;
#207=CARTESIAN_POINT('Vertex',(18.8,0.,11.5)) ;
#210=CARTESIAN_POINT('Axis2P3D Location',(16.,0.,12.)) ;
#214=CARTESIAN_POINT('Vertex',(13.2,3.42901103761E-16,12.)) ;
#217=CARTESIAN_POINT('Line Origine',(13.2,3.42901103761E-16,11.75)) ;
#221=CARTESIAN_POINT('Vertex',(13.2,3.42901103761E-16,11.5)) ;
#224=CARTESIAN_POINT('Axis2P3D Location',(16.,0.,11.5)) ;
#236=CARTESIAN_POINT('Axis2P3D Location',(16.,0.,12.)) ;
#241=CARTESIAN_POINT('Axis2P3D Location',(16.,0.,11.5)) ;
#257=CARTESIAN_POINT('Axis2P3D Location',(16.,0.,11.5)) ;
#261=CARTESIAN_POINT('Vertex',(18.65,0.,11.5)) ;
#263=CARTESIAN_POINT('Vertex',(13.35,1.50136780788E-15,11.5)) ;
#266=CARTESIAN_POINT('Axis2P3D Location',(16.,0.,11.5)) ;
#276=CARTESIAN_POINT('Axis2P3D Location',(0.,0.,3.5)) ;
#281=CARTESIAN_POINT('Axis2P3D Location',(-16.,0.,3.5)) ;
#285=CARTESIAN_POINT('Vertex',(-13.55,0.,3.5)) ;
#287=CARTESIAN_POINT('Vertex',(-18.45,3.00038465791E-16,3.5)) ;
#290=CARTESIAN_POINT('Axis2P3D Location',(-16.,0.,3.5)) ;
#300=CARTESIAN_POINT('Axis2P3D Location',(-16.,0.,7.75)) ;
#305=CARTESIAN_POINT('Line Origine',(-18.45,3.00038465791E-16,7.75)) ;
#310=CARTESIAN_POINT('Line Origine',(-13.55,0.,7.75)) ;
#329=CARTESIAN_POINT('Axis2P3D Location',(0.,0.,3.5)) ;
#333=CARTESIAN_POINT('Vertex',(2.55,0.,3.5)) ;
#335=CARTESIAN_POINT('Vertex',(-2.55,3.12284933783E-16,3.5)) ;
#338=CARTESIAN_POINT('Axis2P3D Location',(0.,0.,3.5)) ;
#348=CARTESIAN_POINT('Axis2P3D Location',(0.,0.,7.75)) ;
#353=CARTESIAN_POINT('Line Origine',(-2.55,3.12284933783E-16,7.75)) ;
#358=CARTESIAN_POINT('Line Origine',(2.55,0.,7.75)) ;
#377=CARTESIAN_POINT('Axis2P3D Location',(16.,0.,3.5)) ;
#381=CARTESIAN_POINT('Vertex',(18.65,0.,3.5)) ;
#383=CARTESIAN_POINT('Vertex',(13.35,1.50136780788E-15,3.5)) ;
#386=CARTESIAN_POINT('Axis2P3D Location',(16.,0.,3.5)) ;
#396=CARTESIAN_POINT('Axis2P3D Location',(16.,0.,7.75)) ;
#401=CARTESIAN_POINT('Line Origine',(13.35,1.50136780788E-15,7.75)) ;
#406=CARTESIAN_POINT('Line Origine',(18.65,0.,7.75)) ;
#425=CARTESIAN_POINT('Axis2P3D Location',(0.,0.,0.)) ;
#430=CARTESIAN_POINT('Axis2P3D Location',(-23.,-7.,0.)) ;
#434=CARTESIAN_POINT('Vertex',(-26.,-7.,0.)) ;
#436=CARTESIAN_POINT('Vertex',(-23.,-10.,0.)) ;
#439=CARTESIAN_POINT('Line Origine',(-26.,0.,0.)) ;
#443=CARTESIAN_POINT('Vertex',(-26.,7.,0.)) ;
#446=CARTESIAN_POINT('Axis2P3D Location',(-23.,7.,0.)) ;
#450=CARTESIAN_POINT('Vertex',(-23.,10.,0.)) ;
#453=CARTESIAN_POINT('Line Origine',(0.,10.,0.)) ;
#457=CARTESIAN_POINT('Vertex',(23.,10.,0.)) ;
#460=CARTESIAN_POINT('Axis2P3D Location',(23.,7.,0.)) ;
#464=CARTESIAN_POINT('Vertex',(26.,7.,0.)) ;
#467=CARTESIAN_POINT('Line Origine',(26.,0.,0.)) ;
#471=CARTESIAN_POINT('Vertex',(26.,-7.,0.)) ;
#474=CARTESIAN_POINT('Axis2P3D Location',(23.,-7.,0.)) ;
#478=CARTESIAN_POINT('Vertex',(23.,-10.,0.)) ;
#481=CARTESIAN_POINT('Line Origine',(0.,-10.,0.)) ;
#497=CARTESIAN_POINT('Axis2P3D Location',(-23.,-10.,0.)) ;
#502=CARTESIAN_POINT('Line Origine',(-23.,-10.,6.)) ;
#506=CARTESIAN_POINT('Vertex',(-23.,-10.,12.)) ;
#509=CARTESIAN_POINT('Line Origine',(23.,-10.,6.)) ;
#513=CARTESIAN_POINT('Vertex',(23.,-10.,12.)) ;
#516=CARTESIAN_POINT('Line Origine',(0.,-10.,12.)) ;
#528=CARTESIAN_POINT('Axis2P3D Location',(23.,-7.,6.)) ;
#533=CARTESIAN_POINT('Line Origine',(26.,-7.,6.)) ;
#537=CARTESIAN_POINT('Vertex',(26.,-7.,12.)) ;
#540=CARTESIAN_POINT('Axis2P3D Location',(23.,-7.,12.)) ;
#552=CARTESIAN_POINT('Axis2P3D Location',(26.,-7.,0.)) ;
#557=CARTESIAN_POINT('Line Origine',(26.,7.,6.)) ;
#561=CARTESIAN_POINT('Vertex',(26.,7.,12.)) ;
#564=CARTESIAN_POINT('Line Origine',(26.,0.,12.)) ;
#576=CARTESIAN_POINT('Axis2P3D Location',(23.,7.,6.)) ;
#581=CARTESIAN_POINT('Line Origine',(23.,10.,6.)) ;
#585=CARTESIAN_POINT('Vertex',(23.,10.,12.)) ;
#588=CARTESIAN_POINT('Axis2P3D Location',(23.,7.,12.)) ;
#600=CARTESIAN_POINT('Axis2P3D Location',(23.,10.,0.)) ;
#605=CARTESIAN_POINT('Line Origine',(-23.,10.,6.)) ;
#609=CARTESIAN_POINT('Vertex',(-23.,10.,12.)) ;
#612=CARTESIAN_POINT('Line Origine',(0.,10.,12.)) ;
#624=CARTESIAN_POINT('Axis2P3D Location',(-23.,7.,6.)) ;
#629=CARTESIAN_POINT('Line Origine',(-26.,7.,6.)) ;
#633=CARTESIAN_POINT('Vertex',(-26.,7.,12.)) ;
#636=CARTESIAN_POINT('Axis2P3D Location',(-23.,7.,12.)) ;
#648=CARTESIAN_POINT('Axis2P3D Location',(-26.,7.,0.)) ;
#653=CARTESIAN_POINT('Line Origine',(-26.,-7.,6.)) ;
#657=CARTESIAN_POINT('Vertex',(-26.,-7.,12.)) ;
#660=CARTESIAN_POINT('Line Origine',(-26.,0.,12.)) ;
#672=CARTESIAN_POINT('Axis2P3D Location',(-23.,-7.,6.)) ;
#677=CARTESIAN_POINT('Axis2P3D Location',(-23.,-7.,12.)) ;
#689=CARTESIAN_POINT('Axis2P3D Location',(0.,0.,12.)) ;
#8=PRODUCT_RELATED_PRODUCT_CATEGORY('part',$,(#5)) ;
#15=UNCERTAINTY_MEASURE_WITH_UNIT(LENGTH_MEASURE(0.005),#12,'distance_accuracy_value','CONFUSED CURVE UNCERTAINTY') ;
#29=STYLED_ITEM(' ',(#28),#21) ;
#28=PRESENTATION_STYLE_ASSIGNMENT((#27)) ;
#27=SURFACE_STYLE_USAGE(.BOTH.,#26) ;
#26=SURFACE_SIDE_STYLE(' ',(#25)) ;
#25=SURFACE_STYLE_FILL_AREA(#24) ;
#24=FILL_AREA_STYLE(' ',(#23)) ;
#23=FILL_AREA_STYLE_COLOUR(' ',#22) ;
#38=VECTOR('Line Direction',#37,1.) ;
#54=VECTOR('Line Direction',#53,1.) ;
#123=VECTOR('Line Direction',#122,1.) ;
#139=VECTOR('Line Direction',#138,1.) ;
#203=VECTOR('Line Direction',#202,1.) ;
#219=VECTOR('Line Direction',#218,1.) ;
#307=VECTOR('Line Direction',#306,1.) ;
#312=VECTOR('Line Direction',#311,1.) ;
#355=VECTOR('Line Direction',#354,1.) ;
#360=VECTOR('Line Direction',#359,1.) ;
#403=VECTOR('Line Direction',#402,1.) ;
#408=VECTOR('Line Direction',#407,1.) ;
#441=VECTOR('Line Direction',#440,1.) ;
#455=VECTOR('Line Direction',#454,1.) ;
#469=VECTOR('Line Direction',#468,1.) ;
#483=VECTOR('Line Direction',#482,1.) ;
#504=VECTOR('Line Direction',#503,1.) ;
#511=VECTOR('Line Direction',#510,1.) ;
#518=VECTOR('Line Direction',#517,1.) ;
#535=VECTOR('Line Direction',#534,1.) ;
#559=VECTOR('Line Direction',#558,1.) ;
#566=VECTOR('Line Direction',#565,1.) ;
#583=VECTOR('Line Direction',#582,1.) ;
#607=VECTOR('Line Direction',#606,1.) ;
#614=VECTOR('Line Direction',#613,1.) ;
#631=VECTOR('Line Direction',#630,1.) ;
#655=VECTOR('Line Direction',#654,1.) ;
#662=VECTOR('Line Direction',#661,1.) ;
#32=DIRECTION('Axis2P3D Direction',(0.,0.,1.)) ;
#33=DIRECTION('Axis2P3D XDirection',(1.,0.,0.)) ;
#37=DIRECTION('Vector Direction',(0.,0.,1.)) ;
#46=DIRECTION('Axis2P3D Direction',(0.,0.,1.)) ;
#53=DIRECTION('Vector Direction',(0.,0.,1.)) ;
#60=DIRECTION('Axis2P3D Direction',(0.,0.,1.)) ;
#72=DIRECTION('Axis2P3D Direction',(0.,0.,1.)) ;
#77=DIRECTION('Axis2P3D Direction',(0.,0.,1.)) ;
#89=DIRECTION('Axis2P3D Direction',(0.,0.,1.)) ;
#90=DIRECTION('Axis2P3D XDirection',(1.,0.,0.)) ;
#98=DIRECTION('Axis2P3D Direction',(0.,0.,1.)) ;
#107=DIRECTION('Axis2P3D Direction',(0.,0.,1.)) ;
#117=DIRECTION('Axis2P3D Direction',(0.,0.,1.)) ;
#118=DIRECTION('Axis2P3D XDirection',(1.,0.,0.)) ;
#122=DIRECTION('Vector Direction',(0.,0.,1.)) ;
#131=DIRECTION('Axis2P3D Direction',(0.,0.,1.)) ;
#138=DIRECTION('Vector Direction',(0.,0.,1.)) ;
#145=DIRECTION('Axis2P3D Direction',(0.,0.,1.)) ;
#157=DIRECTION('Axis2P3D Direction',(0.,0.,1.)) ;
#162=DIRECTION('Axis2P3D Direction',(0.,0.,1.)) ;
#178=DIRECTION('Axis2P3D Direction',(0.,0.,1.)) ;
#187=DIRECTION('Axis2P3D Direction',(0.,0.,1.)) ;
#197=DIRECTION('Axis2P3D Direction',(0.,0.,1.)) ;
#198=DIRECTION('Axis2P3D XDirection',(1.,0.,0.)) ;
#202=DIRECTION('Vector Direction',(0.,0.,1.)) ;
#211=DIRECTION('Axis2P3D Direction',(0.,0.,1.)) ;
#218=DIRECTION('Vector Direction',(0.,0.,1.)) ;
#225=DIRECTION('Axis2P3D Direction',(0.,0.,1.)) ;
#237=DIRECTION('Axis2P3D Direction',(0.,0.,1.)) ;
#242=DIRECTION('Axis2P3D Direction',(0.,0.,1.)) ;
#258=DIRECTION('Axis2P3D Direction',(0.,0.,1.)) ;
#267=DIRECTION('Axis2P3D Direction',(0.,0.,1.)) ;
#277=DIRECTION('Axis2P3D Direction',(0.,0.,1.)) ;
#278=DIRECTION('Axis2P3D XDirection',(1.,0.,0.)) ;
#282=DIRECTION('Axis2P3D Direction',(0.,0.,1.)) ;
#291=DIRECTION('Axis2P3D Direction',(0.,0.,1.)) ;
#301=DIRECTION('Axis2P3D Direction',(0.,0.,1.)) ;
#302=DIRECTION('Axis2P3D XDirection',(1.,0.,0.)) ;
#306=DIRECTION('Vector Direction',(0.,0.,1.)) ;
#311=DIRECTION('Vector Direction',(0.,0.,1.)) ;
#330=DIRECTION('Axis2P3D Direction',(0.,0.,1.)) ;
#339=DIRECTION('Axis2P3D Direction',(0.,0.,1.)) ;
#349=DIRECTION('Axis2P3D Direction',(0.,0.,1.)) ;
#350=DIRECTION('Axis2P3D XDirection',(1.,0.,0.)) ;
#354=DIRECTION('Vector Direction',(0.,0.,1.)) ;
#359=DIRECTION('Vector Direction',(0.,0.,1.)) ;
#378=DIRECTION('Axis2P3D Direction',(0.,0.,1.)) ;
#387=DIRECTION('Axis2P3D Direction',(0.,0.,1.)) ;
#397=DIRECTION('Axis2P3D Direction',(0.,0.,1.)) ;
#398=DIRECTION('Axis2P3D XDirection',(1.,0.,0.)) ;
#402=DIRECTION('Vector Direction',(0.,0.,1.)) ;
#407=DIRECTION('Vector Direction',(0.,0.,1.)) ;
#426=DIRECTION('Axis2P3D Direction',(0.,0.,1.)) ;
#427=DIRECTION('Axis2P3D XDirection',(1.,0.,0.)) ;
#431=DIRECTION('Axis2P3D Direction',(0.,0.,1.)) ;
#440=DIRECTION('Vector Direction',(0.,-1.,0.)) ;
#447=DIRECTION('Axis2P3D Direction',(0.,0.,1.)) ;
#454=DIRECTION('Vector Direction',(-1.,0.,0.)) ;
#461=DIRECTION('Axis2P3D Direction',(0.,0.,1.)) ;
#468=DIRECTION('Vector Direction',(0.,1.,0.)) ;
#475=DIRECTION('Axis2P3D Direction',(0.,0.,1.)) ;
#482=DIRECTION('Vector Direction',(1.,0.,0.)) ;
#498=DIRECTION('Axis2P3D Direction',(0.,-1.,0.)) ;
#499=DIRECTION('Axis2P3D XDirection',(1.,0.,0.)) ;
#503=DIRECTION('Vector Direction',(0.,0.,1.)) ;
#510=DIRECTION('Vector Direction',(0.,0.,1.)) ;
#517=DIRECTION('Vector Direction',(1.,0.,0.)) ;
#529=DIRECTION('Axis2P3D Direction',(0.,0.,1.)) ;
#530=DIRECTION('Axis2P3D XDirection',(7.04481399828E-16,-1.,0.)) ;
#534=DIRECTION('Vector Direction',(0.,0.,1.)) ;
#541=DIRECTION('Axis2P3D Direction',(0.,0.,1.)) ;
#553=DIRECTION('Axis2P3D Direction',(1.,0.,0.)) ;
#554=DIRECTION('Axis2P3D XDirection',(0.,1.,0.)) ;
#558=DIRECTION('Vector Direction',(0.,0.,1.)) ;
#565=DIRECTION('Vector Direction',(0.,1.,0.)) ;
#577=DIRECTION('Axis2P3D Direction',(0.,0.,1.)) ;
#578=DIRECTION('Axis2P3D XDirection',(1.,0.,0.)) ;
#582=DIRECTION('Vector Direction',(0.,0.,1.)) ;
#589=DIRECTION('Axis2P3D Direction',(0.,0.,1.)) ;
#601=DIRECTION('Axis2P3D Direction',(0.,1.,-0.)) ;
#602=DIRECTION('Axis2P3D XDirection',(-1.,0.,0.)) ;
#606=DIRECTION('Vector Direction',(0.,0.,1.)) ;
#613=DIRECTION('Vector Direction',(-1.,0.,0.)) ;
#625=DIRECTION('Axis2P3D Direction',(0.,0.,1.)) ;
#626=DIRECTION('Axis2P3D XDirection',(1.17145536458E-15,1.,0.)) ;
#630=DIRECTION('Vector Direction',(0.,0.,1.)) ;
#637=DIRECTION('Axis2P3D Direction',(0.,0.,1.)) ;
#649=DIRECTION('Axis2P3D Direction',(-1.,0.,0.)) ;
#650=DIRECTION('Axis2P3D XDirection',(0.,-1.,0.)) ;
#654=DIRECTION('Vector Direction',(0.,0.,1.)) ;
#661=DIRECTION('Vector Direction',(0.,-1.,0.)) ;
#673=DIRECTION('Axis2P3D Direction',(0.,0.,1.)) ;
#674=DIRECTION('Axis2P3D XDirection',(-1.,3.23108914887E-15,0.)) ;
#678=DIRECTION('Axis2P3D Direction',(0.,0.,1.)) ;
#690=DIRECTION('Axis2P3D Direction',(0.,0.,1.)) ;
#691=DIRECTION('Axis2P3D XDirection',(1.,0.,0.)) ;
#718=SHAPE_REPRESENTATION_RELATIONSHIP(' ',' ',#19,#717) ;
#18=AXIS2_PLACEMENT_3D(' ',#17,$,$) ;
#34=AXIS2_PLACEMENT_3D('Cylinder Axis2P3D',#31,#32,#33) ;
#47=AXIS2_PLACEMENT_3D('Circle Axis2P3D',#45,#46,$) ;
#61=AXIS2_PLACEMENT_3D('Circle Axis2P3D',#59,#60,$) ;
#73=AXIS2_PLACEMENT_3D('Circle Axis2P3D',#71,#72,$) ;
#78=AXIS2_PLACEMENT_3D('Circle Axis2P3D',#76,#77,$) ;
#91=AXIS2_PLACEMENT_3D('Plane Axis2P3D',#88,#89,#90) ;
#99=AXIS2_PLACEMENT_3D('Circle Axis2P3D',#97,#98,$) ;
#108=AXIS2_PLACEMENT_3D('Circle Axis2P3D',#106,#107,$) ;
#119=AXIS2_PLACEMENT_3D('Cylinder Axis2P3D',#116,#117,#118) ;
#132=AXIS2_PLACEMENT_3D('Circle Axis2P3D',#130,#131,$) ;
#146=AXIS2_PLACEMENT_3D('Circle Axis2P3D',#144,#145,$) ;
#158=AXIS2_PLACEMENT_3D('Circle Axis2P3D',#156,#157,$) ;
#163=AXIS2_PLACEMENT_3D('Circle Axis2P3D',#161,#162,$) ;
#179=AXIS2_PLACEMENT_3D('Circle Axis2P3D',#177,#178,$) ;
#188=AXIS2_PLACEMENT_3D('Circle Axis2P3D',#186,#187,$) ;
#199=AXIS2_PLACEMENT_3D('Cylinder Axis2P3D',#196,#197,#198) ;
#212=AXIS2_PLACEMENT_3D('Circle Axis2P3D',#210,#211,$) ;
#226=AXIS2_PLACEMENT_3D('Circle Axis2P3D',#224,#225,$) ;
#238=AXIS2_PLACEMENT_3D('Circle Axis2P3D',#236,#237,$) ;
#243=AXIS2_PLACEMENT_3D('Circle Axis2P3D',#241,#242,$) ;
#259=AXIS2_PLACEMENT_3D('Circle Axis2P3D',#257,#258,$) ;
#268=AXIS2_PLACEMENT_3D('Circle Axis2P3D',#266,#267,$) ;
#279=AXIS2_PLACEMENT_3D('Plane Axis2P3D',#276,#277,#278) ;
#283=AXIS2_PLACEMENT_3D('Circle Axis2P3D',#281,#282,$) ;
#292=AXIS2_PLACEMENT_3D('Circle Axis2P3D',#290,#291,$) ;
#303=AXIS2_PLACEMENT_3D('Cylinder Axis2P3D',#300,#301,#302) ;
#331=AXIS2_PLACEMENT_3D('Circle Axis2P3D',#329,#330,$) ;
#340=AXIS2_PLACEMENT_3D('Circle Axis2P3D',#338,#339,$) ;
#351=AXIS2_PLACEMENT_3D('Cylinder Axis2P3D',#348,#349,#350) ;
#379=AXIS2_PLACEMENT_3D('Circle Axis2P3D',#377,#378,$) ;
#388=AXIS2_PLACEMENT_3D('Circle Axis2P3D',#386,#387,$) ;
#399=AXIS2_PLACEMENT_3D('Cylinder Axis2P3D',#396,#397,#398) ;
#428=AXIS2_PLACEMENT_3D('Plane Axis2P3D',#425,#426,#427) ;
#432=AXIS2_PLACEMENT_3D('Circle Axis2P3D',#430,#431,$) ;
#448=AXIS2_PLACEMENT_3D('Circle Axis2P3D',#446,#447,$) ;
#462=AXIS2_PLACEMENT_3D('Circle Axis2P3D',#460,#461,$) ;
#476=AXIS2_PLACEMENT_3D('Circle Axis2P3D',#474,#475,$) ;
#500=AXIS2_PLACEMENT_3D('Plane Axis2P3D',#497,#498,#499) ;
#531=AXIS2_PLACEMENT_3D('Cylinder Axis2P3D',#528,#529,#530) ;
#542=AXIS2_PLACEMENT_3D('Circle Axis2P3D',#540,#541,$) ;
#555=AXIS2_PLACEMENT_3D('Plane Axis2P3D',#552,#553,#554) ;
#579=AXIS2_PLACEMENT_3D('Cylinder Axis2P3D',#576,#577,#578) ;
#590=AXIS2_PLACEMENT_3D('Circle Axis2P3D',#588,#589,$) ;
#603=AXIS2_PLACEMENT_3D('Plane Axis2P3D',#600,#601,#602) ;
#627=AXIS2_PLACEMENT_3D('Cylinder Axis2P3D',#624,#625,#626) ;
#638=AXIS2_PLACEMENT_3D('Circle Axis2P3D',#636,#637,$) ;
#651=AXIS2_PLACEMENT_3D('Plane Axis2P3D',#648,#649,#650) ;
#675=AXIS2_PLACEMENT_3D('Cylinder Axis2P3D',#672,#673,#674) ;
#679=AXIS2_PLACEMENT_3D('Circle Axis2P3D',#677,#678,$) ;
#692=AXIS2_PLACEMENT_3D('Plane Axis2P3D',#689,#690,#691) ;
#39=LINE('Line',#36,#38) ;
#55=LINE('Line',#52,#54) ;
#124=LINE('Line',#121,#123) ;
#140=LINE('Line',#137,#139) ;
#204=LINE('Line',#201,#203) ;
#220=LINE('Line',#217,#219) ;
#308=LINE('Line',#305,#307) ;
#313=LINE('Line',#310,#312) ;
#356=LINE('Line',#353,#355) ;
#361=LINE('Line',#358,#360) ;
#404=LINE('Line',#401,#403) ;
#409=LINE('Line',#406,#408) ;
#442=LINE('Line',#439,#441) ;
#456=LINE('Line',#453,#455) ;
#470=LINE('Line',#467,#469) ;
#484=LINE('Line',#481,#483) ;
#505=LINE('Line',#502,#504) ;
#512=LINE('Line',#509,#511) ;
#519=LINE('Line',#516,#518) ;
#536=LINE('Line',#533,#535) ;
#560=LINE('Line',#557,#559) ;
#567=LINE('Line',#564,#566) ;
#584=LINE('Line',#581,#583) ;
#608=LINE('Line',#605,#607) ;
#615=LINE('Line',#612,#614) ;
#632=LINE('Line',#629,#631) ;
#656=LINE('Line',#653,#655) ;
#663=LINE('Line',#660,#662) ;
#48=CIRCLE('generated circle',#47,2.8) ;
#62=CIRCLE('generated circle',#61,2.8) ;
#74=CIRCLE('generated circle',#73,2.8) ;
#79=CIRCLE('generated circle',#78,2.8) ;
#100=CIRCLE('generated circle',#99,2.45) ;
#109=CIRCLE('generated circle',#108,2.45) ;
#133=CIRCLE('generated circle',#132,2.8) ;
#147=CIRCLE('generated circle',#146,2.8) ;
#159=CIRCLE('generated circle',#158,2.8) ;
#164=CIRCLE('generated circle',#163,2.8) ;
#180=CIRCLE('generated circle',#179,2.55) ;
#189=CIRCLE('generated circle',#188,2.55) ;
#213=CIRCLE('generated circle',#212,2.8) ;
#227=CIRCLE('generated circle',#226,2.8) ;
#239=CIRCLE('generated circle',#238,2.8) ;
#244=CIRCLE('generated circle',#243,2.8) ;
#260=CIRCLE('generated circle',#259,2.65) ;
#269=CIRCLE('generated circle',#268,2.65) ;
#284=CIRCLE('generated circle',#283,2.45) ;
#293=CIRCLE('generated circle',#292,2.45) ;
#332=CIRCLE('generated circle',#331,2.55) ;
#341=CIRCLE('generated circle',#340,2.55) ;
#380=CIRCLE('generated circle',#379,2.65) ;
#389=CIRCLE('generated circle',#388,2.65) ;
#433=CIRCLE('generated circle',#432,3.) ;
#449=CIRCLE('generated circle',#448,3.) ;
#463=CIRCLE('generated circle',#462,3.) ;
#477=CIRCLE('generated circle',#476,3.) ;
#543=CIRCLE('generated circle',#542,3.) ;
#591=CIRCLE('generated circle',#590,3.) ;
#639=CIRCLE('generated circle',#638,3.) ;
#680=CIRCLE('generated circle',#679,3.) ;
#92=PLANE('',#91) ;
#280=PLANE('',#279) ;
#429=PLANE('',#428) ;
#501=PLANE('',#500) ;
#556=PLANE('',#555) ;
#604=PLANE('',#603) ;
#652=PLANE('',#651) ;
#693=PLANE('',#692) ;
#35=CYLINDRICAL_SURFACE('generated cylinder',#34,2.8) ;
#120=CYLINDRICAL_SURFACE('generated cylinder',#119,2.8) ;
#200=CYLINDRICAL_SURFACE('generated cylinder',#199,2.8) ;
#304=CYLINDRICAL_SURFACE('generated cylinder',#303,2.45) ;
#352=CYLINDRICAL_SURFACE('generated cylinder',#351,2.55) ;
#400=CYLINDRICAL_SURFACE('generated cylinder',#399,2.65) ;
#532=CYLINDRICAL_SURFACE('generated cylinder',#531,3.) ;
#580=CYLINDRICAL_SURFACE('generated cylinder',#579,3.) ;
#628=CYLINDRICAL_SURFACE('generated cylinder',#627,3.) ;
#676=CYLINDRICAL_SURFACE('generated cylinder',#675,3.) ;
#114=FACE_BOUND('',#111,.T.) ;
#194=FACE_BOUND('',#191,.T.) ;
#274=FACE_BOUND('',#271,.T.) ;
#707=FACE_BOUND('',#704,.T.) ;
#711=FACE_BOUND('',#708,.T.) ;
#715=FACE_BOUND('',#712,.T.) ;
#44=EDGE_CURVE('',#41,#43,#39,.F.) ;
#51=EDGE_CURVE('',#41,#50,#48,.T.) ;
#58=EDGE_CURVE('',#50,#57,#55,.F.) ;
#63=EDGE_CURVE('',#43,#57,#62,.T.) ;
#75=EDGE_CURVE('',#50,#41,#74,.T.) ;
#80=EDGE_CURVE('',#57,#43,#79,.T.) ;
#105=EDGE_CURVE('',#102,#104,#100,.T.) ;
#110=EDGE_CURVE('',#104,#102,#109,.T.) ;
#129=EDGE_CURVE('',#126,#128,#124,.F.) ;
#136=EDGE_CURVE('',#126,#135,#133,.T.) ;
#143=EDGE_CURVE('',#135,#142,#140,.F.) ;
#148=EDGE_CURVE('',#128,#142,#147,.T.) ;
#160=EDGE_CURVE('',#135,#126,#159,.T.) ;
#165=EDGE_CURVE('',#142,#128,#164,.T.) ;
#185=EDGE_CURVE('',#182,#184,#180,.T.) ;
#190=EDGE_CURVE('',#184,#182,#189,.T.) ;
#209=EDGE_CURVE('',#206,#208,#204,.F.) ;
#216=EDGE_CURVE('',#206,#215,#213,.T.) ;
#223=EDGE_CURVE('',#215,#222,#220,.F.) ;
#228=EDGE_CURVE('',#208,#222,#227,.T.) ;
#240=EDGE_CURVE('',#215,#206,#239,.T.) ;
#245=EDGE_CURVE('',#222,#208,#244,.T.) ;
#265=EDGE_CURVE('',#262,#264,#260,.T.) ;
#270=EDGE_CURVE('',#264,#262,#269,.T.) ;
#289=EDGE_CURVE('',#286,#288,#284,.T.) ;
#294=EDGE_CURVE('',#288,#286,#293,.T.) ;
#309=EDGE_CURVE('',#104,#288,#308,.F.) ;
#314=EDGE_CURVE('',#102,#286,#313,.F.) ;
#337=EDGE_CURVE('',#334,#336,#332,.T.) ;
#342=EDGE_CURVE('',#336,#334,#341,.T.) ;
#357=EDGE_CURVE('',#184,#336,#356,.F.) ;
#362=EDGE_CURVE('',#182,#334,#361,.F.) ;
#385=EDGE_CURVE('',#382,#384,#380,.T.) ;
#390=EDGE_CURVE('',#384,#382,#389,.T.) ;
#405=EDGE_CURVE('',#264,#384,#404,.F.) ;
#410=EDGE_CURVE('',#262,#382,#409,.F.) ;
#438=EDGE_CURVE('',#435,#437,#433,.T.) ;
#445=EDGE_CURVE('',#444,#435,#442,.T.) ;
#452=EDGE_CURVE('',#451,#444,#449,.T.) ;
#459=EDGE_CURVE('',#458,#451,#456,.T.) ;
#466=EDGE_CURVE('',#465,#458,#463,.T.) ;
#473=EDGE_CURVE('',#472,#465,#470,.T.) ;
#480=EDGE_CURVE('',#479,#472,#477,.T.) ;
#485=EDGE_CURVE('',#437,#479,#484,.T.) ;
#508=EDGE_CURVE('',#437,#507,#505,.T.) ;
#515=EDGE_CURVE('',#479,#514,#512,.T.) ;
#520=EDGE_CURVE('',#507,#514,#519,.T.) ;
#539=EDGE_CURVE('',#472,#538,#536,.T.) ;
#544=EDGE_CURVE('',#514,#538,#543,.T.) ;
#563=EDGE_CURVE('',#465,#562,#560,.T.) ;
#568=EDGE_CURVE('',#538,#562,#567,.T.) ;
#587=EDGE_CURVE('',#458,#586,#584,.T.) ;
#592=EDGE_CURVE('',#562,#586,#591,.T.) ;
#611=EDGE_CURVE('',#451,#610,#608,.T.) ;
#616=EDGE_CURVE('',#586,#610,#615,.T.) ;
#635=EDGE_CURVE('',#444,#634,#632,.T.) ;
#640=EDGE_CURVE('',#610,#634,#639,.T.) ;
#659=EDGE_CURVE('',#435,#658,#656,.T.) ;
#664=EDGE_CURVE('',#634,#658,#663,.T.) ;
#681=EDGE_CURVE('',#658,#507,#680,.T.) ;
#30=CLOSED_SHELL('Closed Shell',(#70,#87,#115,#155,#172,#195,#235,#252,#275,#299,#321,#328,#347,#369,#376,#395,#417,#424,#496,#527,#551,#575,#599,#623,#647,#671,#688,#716)) ;
#65=ORIENTED_EDGE('',*,*,#44,.F.) ;
#66=ORIENTED_EDGE('',*,*,#51,.T.) ;
#67=ORIENTED_EDGE('',*,*,#58,.T.) ;
#68=ORIENTED_EDGE('',*,*,#63,.F.) ;
#82=ORIENTED_EDGE('',*,*,#58,.F.) ;
#83=ORIENTED_EDGE('',*,*,#75,.T.) ;
#84=ORIENTED_EDGE('',*,*,#44,.T.) ;
#85=ORIENTED_EDGE('',*,*,#80,.F.) ;
#94=ORIENTED_EDGE('',*,*,#63,.T.) ;
#95=ORIENTED_EDGE('',*,*,#80,.T.) ;
#112=ORIENTED_EDGE('',*,*,#105,.F.) ;
#113=ORIENTED_EDGE('',*,*,#110,.F.) ;
#150=ORIENTED_EDGE('',*,*,#129,.F.) ;
#151=ORIENTED_EDGE('',*,*,#136,.T.) ;
#152=ORIENTED_EDGE('',*,*,#143,.T.) ;
#153=ORIENTED_EDGE('',*,*,#148,.F.) ;
#167=ORIENTED_EDGE('',*,*,#143,.F.) ;
#168=ORIENTED_EDGE('',*,*,#160,.T.) ;
#169=ORIENTED_EDGE('',*,*,#129,.T.) ;
#170=ORIENTED_EDGE('',*,*,#165,.F.) ;
#174=ORIENTED_EDGE('',*,*,#148,.T.) ;
#175=ORIENTED_EDGE('',*,*,#165,.T.) ;
#192=ORIENTED_EDGE('',*,*,#185,.F.) ;
#193=ORIENTED_EDGE('',*,*,#190,.F.) ;
#230=ORIENTED_EDGE('',*,*,#209,.F.) ;
#231=ORIENTED_EDGE('',*,*,#216,.T.) ;
#232=ORIENTED_EDGE('',*,*,#223,.T.) ;
#233=ORIENTED_EDGE('',*,*,#228,.F.) ;
#247=ORIENTED_EDGE('',*,*,#223,.F.) ;
#248=ORIENTED_EDGE('',*,*,#240,.T.) ;
#249=ORIENTED_EDGE('',*,*,#209,.T.) ;
#250=ORIENTED_EDGE('',*,*,#245,.F.) ;
#254=ORIENTED_EDGE('',*,*,#228,.T.) ;
#255=ORIENTED_EDGE('',*,*,#245,.T.) ;
#272=ORIENTED_EDGE('',*,*,#265,.F.) ;
#273=ORIENTED_EDGE('',*,*,#270,.F.) ;
#296=ORIENTED_EDGE('',*,*,#289,.T.) ;
#297=ORIENTED_EDGE('',*,*,#294,.T.) ;
#316=ORIENTED_EDGE('',*,*,#105,.T.) ;
#317=ORIENTED_EDGE('',*,*,#309,.T.) ;
#318=ORIENTED_EDGE('',*,*,#289,.F.) ;
#319=ORIENTED_EDGE('',*,*,#314,.F.) ;
#323=ORIENTED_EDGE('',*,*,#110,.T.) ;
#324=ORIENTED_EDGE('',*,*,#314,.T.) ;
#325=ORIENTED_EDGE('',*,*,#294,.F.) ;
#326=ORIENTED_EDGE('',*,*,#309,.F.) ;
#344=ORIENTED_EDGE('',*,*,#337,.T.) ;
#345=ORIENTED_EDGE('',*,*,#342,.T.) ;
#364=ORIENTED_EDGE('',*,*,#185,.T.) ;
#365=ORIENTED_EDGE('',*,*,#357,.T.) ;
#366=ORIENTED_EDGE('',*,*,#337,.F.) ;
#367=ORIENTED_EDGE('',*,*,#362,.F.) ;
#371=ORIENTED_EDGE('',*,*,#190,.T.) ;
#372=ORIENTED_EDGE('',*,*,#362,.T.) ;
#373=ORIENTED_EDGE('',*,*,#342,.F.) ;
#374=ORIENTED_EDGE('',*,*,#357,.F.) ;
#392=ORIENTED_EDGE('',*,*,#385,.T.) ;
#393=ORIENTED_EDGE('',*,*,#390,.T.) ;
#412=ORIENTED_EDGE('',*,*,#265,.T.) ;
#413=ORIENTED_EDGE('',*,*,#405,.T.) ;
#414=ORIENTED_EDGE('',*,*,#385,.F.) ;
#415=ORIENTED_EDGE('',*,*,#410,.F.) ;
#419=ORIENTED_EDGE('',*,*,#270,.T.) ;
#420=ORIENTED_EDGE('',*,*,#410,.T.) ;
#421=ORIENTED_EDGE('',*,*,#390,.F.) ;
#422=ORIENTED_EDGE('',*,*,#405,.F.) ;
#487=ORIENTED_EDGE('',*,*,#438,.F.) ;
#488=ORIENTED_EDGE('',*,*,#445,.F.) ;
#489=ORIENTED_EDGE('',*,*,#452,.F.) ;
#490=ORIENTED_EDGE('',*,*,#459,.F.) ;
#491=ORIENTED_EDGE('',*,*,#466,.F.) ;
#492=ORIENTED_EDGE('',*,*,#473,.F.) ;
#493=ORIENTED_EDGE('',*,*,#480,.F.) ;
#494=ORIENTED_EDGE('',*,*,#485,.F.) ;
#522=ORIENTED_EDGE('',*,*,#508,.F.) ;
#523=ORIENTED_EDGE('',*,*,#485,.T.) ;
#524=ORIENTED_EDGE('',*,*,#515,.T.) ;
#525=ORIENTED_EDGE('',*,*,#520,.F.) ;
#546=ORIENTED_EDGE('',*,*,#515,.F.) ;
#547=ORIENTED_EDGE('',*,*,#480,.T.) ;
#548=ORIENTED_EDGE('',*,*,#539,.T.) ;
#549=ORIENTED_EDGE('',*,*,#544,.F.) ;
#570=ORIENTED_EDGE('',*,*,#539,.F.) ;
#571=ORIENTED_EDGE('',*,*,#473,.T.) ;
#572=ORIENTED_EDGE('',*,*,#563,.T.) ;
#573=ORIENTED_EDGE('',*,*,#568,.F.) ;
#594=ORIENTED_EDGE('',*,*,#563,.F.) ;
#595=ORIENTED_EDGE('',*,*,#466,.T.) ;
#596=ORIENTED_EDGE('',*,*,#587,.T.) ;
#597=ORIENTED_EDGE('',*,*,#592,.F.) ;
#618=ORIENTED_EDGE('',*,*,#587,.F.) ;
#619=ORIENTED_EDGE('',*,*,#459,.T.) ;
#620=ORIENTED_EDGE('',*,*,#611,.T.) ;
#621=ORIENTED_EDGE('',*,*,#616,.F.) ;
#642=ORIENTED_EDGE('',*,*,#611,.F.) ;
#643=ORIENTED_EDGE('',*,*,#452,.T.) ;
#644=ORIENTED_EDGE('',*,*,#635,.T.) ;
#645=ORIENTED_EDGE('',*,*,#640,.F.) ;
#666=ORIENTED_EDGE('',*,*,#635,.F.) ;
#667=ORIENTED_EDGE('',*,*,#445,.T.) ;
#668=ORIENTED_EDGE('',*,*,#659,.T.) ;
#669=ORIENTED_EDGE('',*,*,#664,.F.) ;
#683=ORIENTED_EDGE('',*,*,#659,.F.) ;
#684=ORIENTED_EDGE('',*,*,#438,.T.) ;
#685=ORIENTED_EDGE('',*,*,#508,.T.) ;
#686=ORIENTED_EDGE('',*,*,#681,.F.) ;
#695=ORIENTED_EDGE('',*,*,#520,.T.) ;
#696=ORIENTED_EDGE('',*,*,#544,.T.) ;
#697=ORIENTED_EDGE('',*,*,#568,.T.) ;
#698=ORIENTED_EDGE('',*,*,#592,.T.) ;
#699=ORIENTED_EDGE('',*,*,#616,.T.) ;
#700=ORIENTED_EDGE('',*,*,#640,.T.) ;
#701=ORIENTED_EDGE('',*,*,#664,.T.) ;
#702=ORIENTED_EDGE('',*,*,#681,.T.) ;
#705=ORIENTED_EDGE('',*,*,#51,.F.) ;
#706=ORIENTED_EDGE('',*,*,#75,.F.) ;
#709=ORIENTED_EDGE('',*,*,#136,.F.) ;
#710=ORIENTED_EDGE('',*,*,#160,.F.) ;
#713=ORIENTED_EDGE('',*,*,#216,.F.) ;
#714=ORIENTED_EDGE('',*,*,#240,.F.) ;
#64=EDGE_LOOP('',(#65,#66,#67,#68)) ;
#81=EDGE_LOOP('',(#82,#83,#84,#85)) ;
#93=EDGE_LOOP('',(#94,#95)) ;
#111=EDGE_LOOP('',(#112,#113)) ;
#149=EDGE_LOOP('',(#150,#151,#152,#153)) ;
#166=EDGE_LOOP('',(#167,#168,#169,#170)) ;
#173=EDGE_LOOP('',(#174,#175)) ;
#191=EDGE_LOOP('',(#192,#193)) ;
#229=EDGE_LOOP('',(#230,#231,#232,#233)) ;
#246=EDGE_LOOP('',(#247,#248,#249,#250)) ;
#253=EDGE_LOOP('',(#254,#255)) ;
#271=EDGE_LOOP('',(#272,#273)) ;
#295=EDGE_LOOP('',(#296,#297)) ;
#315=EDGE_LOOP('',(#316,#317,#318,#319)) ;
#322=EDGE_LOOP('',(#323,#324,#325,#326)) ;
#343=EDGE_LOOP('',(#344,#345)) ;
#363=EDGE_LOOP('',(#364,#365,#366,#367)) ;
#370=EDGE_LOOP('',(#371,#372,#373,#374)) ;
#391=EDGE_LOOP('',(#392,#393)) ;
#411=EDGE_LOOP('',(#412,#413,#414,#415)) ;
#418=EDGE_LOOP('',(#419,#420,#421,#422)) ;
#486=EDGE_LOOP('',(#487,#488,#489,#490,#491,#492,#493,#494)) ;
#521=EDGE_LOOP('',(#522,#523,#524,#525)) ;
#545=EDGE_LOOP('',(#546,#547,#548,#549)) ;
#569=EDGE_LOOP('',(#570,#571,#572,#573)) ;
#593=EDGE_LOOP('',(#594,#595,#596,#597)) ;
#617=EDGE_LOOP('',(#618,#619,#620,#621)) ;
#641=EDGE_LOOP('',(#642,#643,#644,#645)) ;
#665=EDGE_LOOP('',(#666,#667,#668,#669)) ;
#682=EDGE_LOOP('',(#683,#684,#685,#686)) ;
#694=EDGE_LOOP('',(#695,#696,#697,#698,#699,#700,#701,#702)) ;
#704=EDGE_LOOP('',(#705,#706)) ;
#708=EDGE_LOOP('',(#709,#710)) ;
#712=EDGE_LOOP('',(#713,#714)) ;
#21=MANIFOLD_SOLID_BREP('M4_INSERT_PROCESS_COUPON',#30) ;
#41=VERTEX_POINT('',#40) ;
#43=VERTEX_POINT('',#42) ;
#50=VERTEX_POINT('',#49) ;
#57=VERTEX_POINT('',#56) ;
#102=VERTEX_POINT('',#101) ;
#104=VERTEX_POINT('',#103) ;
#126=VERTEX_POINT('',#125) ;
#128=VERTEX_POINT('',#127) ;
#135=VERTEX_POINT('',#134) ;
#142=VERTEX_POINT('',#141) ;
#182=VERTEX_POINT('',#181) ;
#184=VERTEX_POINT('',#183) ;
#206=VERTEX_POINT('',#205) ;
#208=VERTEX_POINT('',#207) ;
#215=VERTEX_POINT('',#214) ;
#222=VERTEX_POINT('',#221) ;
#262=VERTEX_POINT('',#261) ;
#264=VERTEX_POINT('',#263) ;
#286=VERTEX_POINT('',#285) ;
#288=VERTEX_POINT('',#287) ;
#334=VERTEX_POINT('',#333) ;
#336=VERTEX_POINT('',#335) ;
#382=VERTEX_POINT('',#381) ;
#384=VERTEX_POINT('',#383) ;
#435=VERTEX_POINT('',#434) ;
#437=VERTEX_POINT('',#436) ;
#444=VERTEX_POINT('',#443) ;
#451=VERTEX_POINT('',#450) ;
#458=VERTEX_POINT('',#457) ;
#465=VERTEX_POINT('',#464) ;
#472=VERTEX_POINT('',#471) ;
#479=VERTEX_POINT('',#478) ;
#507=VERTEX_POINT('',#506) ;
#514=VERTEX_POINT('',#513) ;
#538=VERTEX_POINT('',#537) ;
#562=VERTEX_POINT('',#561) ;
#586=VERTEX_POINT('',#585) ;
#610=VERTEX_POINT('',#609) ;
#634=VERTEX_POINT('',#633) ;
#658=VERTEX_POINT('',#657) ;
#717=ADVANCED_BREP_SHAPE_REPRESENTATION('NONE',(#21),#16) ;
#70=ADVANCED_FACE('M4_INSERT_PROCESS_COUPON',(#69),#35,.F.) ;
#87=ADVANCED_FACE('M4_INSERT_PROCESS_COUPON',(#86),#35,.F.) ;
#115=ADVANCED_FACE('M4_INSERT_PROCESS_COUPON',(#96,#114),#92,.T.) ;
#155=ADVANCED_FACE('M4_INSERT_PROCESS_COUPON',(#154),#120,.F.) ;
#172=ADVANCED_FACE('M4_INSERT_PROCESS_COUPON',(#171),#120,.F.) ;
#195=ADVANCED_FACE('M4_INSERT_PROCESS_COUPON',(#176,#194),#92,.T.) ;
#235=ADVANCED_FACE('M4_INSERT_PROCESS_COUPON',(#234),#200,.F.) ;
#252=ADVANCED_FACE('M4_INSERT_PROCESS_COUPON',(#251),#200,.F.) ;
#275=ADVANCED_FACE('M4_INSERT_PROCESS_COUPON',(#256,#274),#92,.T.) ;
#299=ADVANCED_FACE('M4_INSERT_PROCESS_COUPON',(#298),#280,.T.) ;
#321=ADVANCED_FACE('M4_INSERT_PROCESS_COUPON',(#320),#304,.F.) ;
#328=ADVANCED_FACE('M4_INSERT_PROCESS_COUPON',(#327),#304,.F.) ;
#347=ADVANCED_FACE('M4_INSERT_PROCESS_COUPON',(#346),#280,.T.) ;
#369=ADVANCED_FACE('M4_INSERT_PROCESS_COUPON',(#368),#352,.F.) ;
#376=ADVANCED_FACE('M4_INSERT_PROCESS_COUPON',(#375),#352,.F.) ;
#395=ADVANCED_FACE('M4_INSERT_PROCESS_COUPON',(#394),#280,.T.) ;
#417=ADVANCED_FACE('M4_INSERT_PROCESS_COUPON',(#416),#400,.F.) ;
#424=ADVANCED_FACE('M4_INSERT_PROCESS_COUPON',(#423),#400,.F.) ;
#496=ADVANCED_FACE('M4_INSERT_PROCESS_COUPON',(#495),#429,.F.) ;
#527=ADVANCED_FACE('M4_INSERT_PROCESS_COUPON',(#526),#501,.T.) ;
#551=ADVANCED_FACE('M4_INSERT_PROCESS_COUPON',(#550),#532,.T.) ;
#575=ADVANCED_FACE('M4_INSERT_PROCESS_COUPON',(#574),#556,.T.) ;
#599=ADVANCED_FACE('M4_INSERT_PROCESS_COUPON',(#598),#580,.T.) ;
#623=ADVANCED_FACE('M4_INSERT_PROCESS_COUPON',(#622),#604,.T.) ;
#647=ADVANCED_FACE('M4_INSERT_PROCESS_COUPON',(#646),#628,.T.) ;
#671=ADVANCED_FACE('M4_INSERT_PROCESS_COUPON',(#670),#652,.T.) ;
#688=ADVANCED_FACE('M4_INSERT_PROCESS_COUPON',(#687),#676,.T.) ;
#716=ADVANCED_FACE('M4_INSERT_PROCESS_COUPON',(#703,#707,#711,#715),#693,.T.) ;
#4=APPLICATION_PROTOCOL_DEFINITION('international standard','ap242_managed_model_based_3d_engineering',2014,#1) ;
#22=COLOUR_RGB('Colour',0.823529411765,0.823529411765,1.) ;
#69=FACE_OUTER_BOUND('',#64,.T.) ;
#86=FACE_OUTER_BOUND('',#81,.T.) ;
#96=FACE_OUTER_BOUND('',#93,.T.) ;
#154=FACE_OUTER_BOUND('',#149,.T.) ;
#171=FACE_OUTER_BOUND('',#166,.T.) ;
#176=FACE_OUTER_BOUND('',#173,.T.) ;
#234=FACE_OUTER_BOUND('',#229,.T.) ;
#251=FACE_OUTER_BOUND('',#246,.T.) ;
#256=FACE_OUTER_BOUND('',#253,.T.) ;
#298=FACE_OUTER_BOUND('',#295,.T.) ;
#320=FACE_OUTER_BOUND('',#315,.T.) ;
#327=FACE_OUTER_BOUND('',#322,.T.) ;
#346=FACE_OUTER_BOUND('',#343,.T.) ;
#368=FACE_OUTER_BOUND('',#363,.T.) ;
#375=FACE_OUTER_BOUND('',#370,.T.) ;
#394=FACE_OUTER_BOUND('',#391,.T.) ;
#416=FACE_OUTER_BOUND('',#411,.T.) ;
#423=FACE_OUTER_BOUND('',#418,.T.) ;
#495=FACE_OUTER_BOUND('',#486,.T.) ;
#526=FACE_OUTER_BOUND('',#521,.T.) ;
#550=FACE_OUTER_BOUND('',#545,.T.) ;
#574=FACE_OUTER_BOUND('',#569,.T.) ;
#598=FACE_OUTER_BOUND('',#593,.T.) ;
#622=FACE_OUTER_BOUND('',#617,.T.) ;
#646=FACE_OUTER_BOUND('',#641,.T.) ;
#670=FACE_OUTER_BOUND('',#665,.T.) ;
#687=FACE_OUTER_BOUND('',#682,.T.) ;
#703=FACE_OUTER_BOUND('',#694,.T.) ;
#9=PRODUCT_CATEGORY_RELATIONSHIP(' ',' ',#7,#8) ;
#6=PRODUCT_DEFINITION_FORMATION_WITH_SPECIFIED_SOURCE('',' ',#5,.NOT_KNOWN.) ;
#20=SHAPE_DEFINITION_REPRESENTATION(#11,#19) ;
#12=(LENGTH_UNIT()NAMED_UNIT(*)SI_UNIT(.MILLI.,.METRE.)) ;
#13=(NAMED_UNIT(*)PLANE_ANGLE_UNIT()SI_UNIT($,.RADIAN.)) ;
#14=(NAMED_UNIT(*)SI_UNIT($,.STERADIAN.)SOLID_ANGLE_UNIT()) ;
#16=(GEOMETRIC_REPRESENTATION_CONTEXT(3)GLOBAL_UNCERTAINTY_ASSIGNED_CONTEXT((#15))GLOBAL_UNIT_ASSIGNED_CONTEXT((#12,#13,#14))REPRESENTATION_CONTEXT(' ',' ')) ;
ENDSEC;
END-ISO-10303-21;
