solid CATIA STL
  facet normal -1.000000e+00  0.000000e+00  0.000000e+00
    outer loop
      vertex -1.841500e+01  1.333500e+01  1.500000e+00
      vertex -1.841500e+01  1.333500e+01  0.000000e+00
      vertex -1.841500e+01  4.150000e+00  1.500000e+00
    endloop
  endfacet
  facet normal -1.000000e+00  0.000000e+00  0.000000e+00
    outer loop
      vertex -1.841500e+01  3.150000e+00  4.000000e+00
      vertex -1.841500e+01  3.171062e+00  3.534824e+00
      vertex -1.841500e+01  3.032527e+00  3.548469e+00
    endloop
  endfacet
  facet normal -1.000000e+00  0.000000e+00  -0.000000e+00
    outer loop
      vertex -1.841500e+01 -3.725645e+00  2.836731e+00
      vertex -1.841500e+01 -3.705570e+00  3.831470e+00
      vertex -1.841500e+01 -3.675326e+00  3.002609e+00
    endloop
  endfacet
  facet normal -1.000000e+00  0.000000e+00  0.000000e+00
    outer loop
      vertex -1.841500e+01 -4.150000e+00  1.500000e+00
      vertex -1.841500e+01 -4.150000e+00  3.000000e+00
      vertex -1.841500e+01 -3.742635e+00  2.664223e+00
    endloop
  endfacet
  facet normal -9.999999e-01  0.000000e+00  -0.000000e+00
    outer loop
      vertex -1.841500e+01 -4.150000e+00  1.500000e+00
      vertex -1.841500e+01 -3.742635e+00  2.664223e+00
      vertex -1.841500e+01 -3.742635e+00  1.619111e+00
    endloop
  endfacet
  facet normal -9.999999e-01  0.000000e+00  -0.000000e+00
    outer loop
      vertex -1.841500e+01 -4.150000e+00  1.500000e+00
      vertex -1.841500e+01 -3.742635e+00  1.619111e+00
      vertex -1.841500e+01  3.742635e+00  1.619111e+00
    endloop
  endfacet
  facet normal -1.000000e+00  0.000000e+00  -0.000000e+00
    outer loop
      vertex -1.841500e+01 -4.150000e+00  1.500000e+00
      vertex -1.841500e+01  3.742635e+00  1.619111e+00
      vertex -1.841500e+01  4.150000e+00  1.500000e+00
    endloop
  endfacet
  facet normal -1.000000e+00  -0.000000e+00  -0.000000e+00
    outer loop
      vertex -1.841500e+01 -4.150000e+00  1.500000e+00
      vertex -1.841500e+01  4.150000e+00  1.500000e+00
      vertex -1.841500e+01  1.333500e+01  0.000000e+00
    endloop
  endfacet
  facet normal -1.000000e+00  0.000000e+00  0.000000e+00
    outer loop
      vertex -1.841500e+01 -4.150000e+00  1.500000e+00
      vertex -1.841500e+01  1.333500e+01  0.000000e+00
      vertex -1.841500e+01 -1.333500e+01  0.000000e+00
    endloop
  endfacet
  facet normal -1.000000e+00  0.000000e+00  0.000000e+00
    outer loop
      vertex -1.841500e+01 -4.150000e+00  1.500000e+00
      vertex -1.841500e+01 -1.333500e+01  0.000000e+00
      vertex -1.841500e+01 -1.333500e+01  1.500000e+00
    endloop
  endfacet
  facet normal -1.000000e+00  -0.000000e+00  0.000000e+00
    outer loop
      vertex -1.841500e+01 -3.150000e+00  4.000000e+00
      vertex -1.841500e+01  3.150000e+00  4.000000e+00
      vertex -1.841500e+01  3.032527e+00  3.548469e+00
    endloop
  endfacet
  facet normal -1.000000e+00  0.000000e+00  0.000000e+00
    outer loop
      vertex -1.841500e+01 -3.150000e+00  4.000000e+00
      vertex -1.841500e+01  3.032527e+00  3.548469e+00
      vertex -1.841500e+01 -2.858390e+00  3.548469e+00
    endloop
  endfacet
  facet normal -1.000000e+00  -0.000000e+00  0.000000e+00
    outer loop
      vertex -1.841500e+01 -3.150000e+00  4.000000e+00
      vertex -1.841500e+01 -2.858390e+00  3.548469e+00
      vertex -1.841500e+01 -3.030898e+00  3.531478e+00
    endloop
  endfacet
  facet normal -1.000000e+00  -0.000000e+00  0.000000e+00
    outer loop
      vertex -1.841500e+01 -3.150000e+00  4.000000e+00
      vertex -1.841500e+01 -3.030898e+00  3.531478e+00
      vertex -1.841500e+01 -3.196776e+00  3.481160e+00
    endloop
  endfacet
  facet normal -1.000000e+00  -0.000000e+00  0.000000e+00
    outer loop
      vertex -1.841500e+01 -3.150000e+00  4.000000e+00
      vertex -1.841500e+01 -3.196776e+00  3.481160e+00
      vertex -1.841500e+01 -3.349650e+00  3.399447e+00
    endloop
  endfacet
  facet normal -9.999999e-01  0.000000e+00  0.000000e+00
    outer loop
      vertex -1.841500e+01 -3.150000e+00  4.000000e+00
      vertex -1.841500e+01 -3.349650e+00  3.399447e+00
      vertex -1.841500e+01 -3.345090e+00  3.980785e+00
    endloop
  endfacet
  facet normal -1.000000e+00  0.000000e+00  0.000000e+00
    outer loop
      vertex -1.841500e+01  3.742635e+00  2.838361e+00
      vertex -1.841500e+01  3.728991e+00  2.976896e+00
      vertex -1.841500e+01  3.857107e+00  3.707107e+00
    endloop
  endfacet
  facet normal -1.000000e+00  0.000000e+00  -0.000000e+00
    outer loop
      vertex -1.841500e+01  3.742635e+00  2.838361e+00
      vertex -1.841500e+01  3.857107e+00  3.707107e+00
      vertex -1.841500e+01  3.981470e+00  3.555570e+00
    endloop
  endfacet
  facet normal -1.000000e+00  0.000000e+00  -0.000000e+00
    outer loop
      vertex -1.841500e+01  3.742635e+00  2.838361e+00
      vertex -1.841500e+01  3.981470e+00  3.555570e+00
      vertex -1.841500e+01  4.073880e+00  3.382684e+00
    endloop
  endfacet
  facet normal -1.000000e+00  0.000000e+00  -0.000000e+00
    outer loop
      vertex -1.841500e+01  3.742635e+00  2.838361e+00
      vertex -1.841500e+01  4.073880e+00  3.382684e+00
      vertex -1.841500e+01  4.130785e+00  3.195090e+00
    endloop
  endfacet
  facet normal -1.000000e+00  0.000000e+00  -0.000000e+00
    outer loop
      vertex -1.841500e+01  3.742635e+00  2.838361e+00
      vertex -1.841500e+01  4.130785e+00  3.195090e+00
      vertex -1.841500e+01  4.150000e+00  3.000000e+00
    endloop
  endfacet
  facet normal -1.000000e+00  0.000000e+00  -0.000000e+00
    outer loop
      vertex -1.841500e+01  3.742635e+00  2.838361e+00
      vertex -1.841500e+01  4.150000e+00  3.000000e+00
      vertex -1.841500e+01  4.150000e+00  1.500000e+00
    endloop
  endfacet
  facet normal -9.999999e-01  0.000000e+00  0.000000e+00
    outer loop
      vertex -1.841500e+01  3.742635e+00  2.838361e+00
      vertex -1.841500e+01  4.150000e+00  1.500000e+00
      vertex -1.841500e+01  3.742635e+00  1.619111e+00
    endloop
  endfacet
  facet normal -1.000000e+00  0.000000e+00  0.000000e+00
    outer loop
      vertex -1.841500e+01 -3.742635e+00  2.664223e+00
      vertex -1.841500e+01 -4.150000e+00  3.000000e+00
      vertex -1.841500e+01 -4.130785e+00  3.195090e+00
    endloop
  endfacet
  facet normal -1.000000e+00  0.000000e+00  0.000000e+00
    outer loop
      vertex -1.841500e+01 -3.742635e+00  2.664223e+00
      vertex -1.841500e+01 -4.130785e+00  3.195090e+00
      vertex -1.841500e+01 -4.073880e+00  3.382684e+00
    endloop
  endfacet
  facet normal -1.000000e+00  0.000000e+00  0.000000e+00
    outer loop
      vertex -1.841500e+01 -3.742635e+00  2.664223e+00
      vertex -1.841500e+01 -4.073880e+00  3.382684e+00
      vertex -1.841500e+01 -3.981470e+00  3.555570e+00
    endloop
  endfacet
  facet normal -1.000000e+00  0.000000e+00  0.000000e+00
    outer loop
      vertex -1.841500e+01 -3.742635e+00  2.664223e+00
      vertex -1.841500e+01 -3.981470e+00  3.555570e+00
      vertex -1.841500e+01 -3.857107e+00  3.707107e+00
    endloop
  endfacet
  facet normal -9.999999e-01  0.000000e+00  0.000000e+00
    outer loop
      vertex -1.841500e+01 -3.742635e+00  2.664223e+00
      vertex -1.841500e+01 -3.857107e+00  3.707107e+00
      vertex -1.841500e+01 -3.705570e+00  3.831470e+00
    endloop
  endfacet
  facet normal -9.999999e-01  0.000000e+00  0.000000e+00
    outer loop
      vertex -1.841500e+01 -3.742635e+00  2.664223e+00
      vertex -1.841500e+01 -3.705570e+00  3.831470e+00
      vertex -1.841500e+01 -3.725645e+00  2.836731e+00
    endloop
  endfacet
  facet normal -1.000000e+00  -0.000000e+00  0.000000e+00
    outer loop
      vertex -1.841500e+01  3.532683e+00  3.923880e+00
      vertex -1.841500e+01  3.705570e+00  3.831470e+00
      vertex -1.841500e+01  3.688581e+00  3.110107e+00
    endloop
  endfacet
  facet normal -1.000000e+00  0.000000e+00  0.000000e+00
    outer loop
      vertex -1.841500e+01  3.532683e+00  3.923880e+00
      vertex -1.841500e+01  3.688581e+00  3.110107e+00
      vertex -1.841500e+01  3.622961e+00  3.232876e+00
    endloop
  endfacet
  facet normal -9.999999e-01  0.000000e+00  0.000000e+00
    outer loop
      vertex -1.841500e+01  3.532683e+00  3.923880e+00
      vertex -1.841500e+01  3.622961e+00  3.232876e+00
      vertex -1.841500e+01  3.534649e+00  3.340483e+00
    endloop
  endfacet
  facet normal -1.000000e+00  0.000000e+00  0.000000e+00
    outer loop
      vertex -1.841500e+01  3.532683e+00  3.923880e+00
      vertex -1.841500e+01  3.534649e+00  3.340483e+00
      vertex -1.841500e+01  3.427042e+00  3.428794e+00
    endloop
  endfacet
  facet normal -1.000000e+00  0.000000e+00  0.000000e+00
    outer loop
      vertex -1.841500e+01  3.532683e+00  3.923880e+00
      vertex -1.841500e+01  3.427042e+00  3.428794e+00
      vertex -1.841500e+01  3.345090e+00  3.980785e+00
    endloop
  endfacet
  facet normal -1.000000e+00  0.000000e+00  -0.000000e+00
    outer loop
      vertex -1.841500e+01  3.688581e+00  3.110107e+00
      vertex -1.841500e+01  3.705570e+00  3.831470e+00
      vertex -1.841500e+01  3.728991e+00  2.976896e+00
    endloop
  endfacet
  facet normal -1.000000e+00  0.000000e+00  0.000000e+00
    outer loop
      vertex -1.841500e+01  3.728991e+00  2.976896e+00
      vertex -1.841500e+01  3.705570e+00  3.831470e+00
      vertex -1.841500e+01  3.857107e+00  3.707107e+00
    endloop
  endfacet
  facet normal -9.999999e-01  0.000000e+00  0.000000e+00
    outer loop
      vertex -1.841500e+01  3.427042e+00  3.428794e+00
      vertex -1.841500e+01  3.304274e+00  3.494415e+00
      vertex -1.841500e+01  3.345090e+00  3.980785e+00
    endloop
  endfacet
  facet normal -1.000000e+00  0.000000e+00  0.000000e+00
    outer loop
      vertex -1.841500e+01  3.345090e+00  3.980785e+00
      vertex -1.841500e+01  3.304274e+00  3.494415e+00
      vertex -1.841500e+01  3.171062e+00  3.534824e+00
    endloop
  endfacet
  facet normal -1.000000e+00  0.000000e+00  0.000000e+00
    outer loop
      vertex -1.841500e+01  3.345090e+00  3.980785e+00
      vertex -1.841500e+01  3.171062e+00  3.534824e+00
      vertex -1.841500e+01  3.150000e+00  4.000000e+00
    endloop
  endfacet
  facet normal -1.000000e+00  0.000000e+00  0.000000e+00
    outer loop
      vertex -1.841500e+01 -3.675326e+00  3.002609e+00
      vertex -1.841500e+01 -3.705570e+00  3.831470e+00
      vertex -1.841500e+01 -3.593613e+00  3.155484e+00
    endloop
  endfacet
  facet normal -1.000000e+00  0.000000e+00  0.000000e+00
    outer loop
      vertex -1.841500e+01 -3.593613e+00  3.155484e+00
      vertex -1.841500e+01 -3.705570e+00  3.831470e+00
      vertex -1.841500e+01 -3.532683e+00  3.923880e+00
    endloop
  endfacet
  facet normal -1.000000e+00  0.000000e+00  -0.000000e+00
    outer loop
      vertex -1.841500e+01 -3.593613e+00  3.155484e+00
      vertex -1.841500e+01 -3.532683e+00  3.923880e+00
      vertex -1.841500e+01 -3.483646e+00  3.289479e+00
    endloop
  endfacet
  facet normal -9.999999e-01  0.000000e+00  0.000000e+00
    outer loop
      vertex -1.841500e+01 -3.483646e+00  3.289479e+00
      vertex -1.841500e+01 -3.532683e+00  3.923880e+00
      vertex -1.841500e+01 -3.345090e+00  3.980785e+00
    endloop
  endfacet
  facet normal -1.000000e+00  0.000000e+00  0.000000e+00
    outer loop
      vertex -1.841500e+01 -3.483646e+00  3.289479e+00
      vertex -1.841500e+01 -3.345090e+00  3.980785e+00
      vertex -1.841500e+01 -3.349650e+00  3.399447e+00
    endloop
  endfacet
  facet normal  0.000000e+00  1.000000e+00  0.000000e+00
    outer loop
      vertex -1.841500e+01 -3.742635e+00  2.664223e+00
      vertex -1.211500e+01 -3.742635e+00  2.664223e+00
      vertex -1.841500e+01 -3.742635e+00  1.619111e+00
    endloop
  endfacet
  facet normal  0.000000e+00  1.000000e+00  0.000000e+00
    outer loop
      vertex -1.841500e+01 -3.742635e+00  1.619111e+00
      vertex -1.211500e+01 -3.742635e+00  2.664223e+00
      vertex -1.211500e+01 -3.742635e+00  1.619111e+00
    endloop
  endfacet
  facet normal  0.000000e+00  0.000000e+00  9.999999e-01
    outer loop
      vertex -1.841500e+01 -3.742635e+00  1.619111e+00
      vertex -1.211500e+01 -3.742635e+00  1.619111e+00
      vertex -1.841500e+01  3.742635e+00  1.619111e+00
    endloop
  endfacet
  facet normal  -0.000000e+00  0.000000e+00  9.999999e-01
    outer loop
      vertex -1.841500e+01  3.742635e+00  1.619111e+00
      vertex -1.211500e+01 -3.742635e+00  1.619111e+00
      vertex -1.211500e+01  3.742635e+00  1.619111e+00
    endloop
  endfacet
  facet normal  0.000000e+00 -1.000000e+00  0.000000e+00
    outer loop
      vertex -1.841500e+01  3.742635e+00  1.619111e+00
      vertex -1.211500e+01  3.742635e+00  1.619111e+00
      vertex -1.841500e+01  3.742635e+00  2.838361e+00
    endloop
  endfacet
  facet normal  0.000000e+00 -1.000000e+00  0.000000e+00
    outer loop
      vertex -1.841500e+01  3.742635e+00  2.838361e+00
      vertex -1.211500e+01  3.742635e+00  1.619111e+00
      vertex -1.211500e+01  3.742635e+00  2.838361e+00
    endloop
  endfacet
  facet normal  0.000000e+00 -7.730094e-01 -6.343946e-01
    outer loop
      vertex -1.211500e+01  3.534649e+00  3.340483e+00
      vertex -1.841500e+01  3.622961e+00  3.232876e+00
      vertex -1.211500e+01  3.622961e+00  3.232876e+00
    endloop
  endfacet
  facet normal  -0.000000e+00 -8.819218e-01 -4.713957e-01
    outer loop
      vertex -1.211500e+01  3.622961e+00  3.232876e+00
      vertex -1.841500e+01  3.622961e+00  3.232876e+00
      vertex -1.841500e+01  3.688581e+00  3.110107e+00
    endloop
  endfacet
  facet normal  0.000000e+00 -8.819218e-01 -4.713957e-01
    outer loop
      vertex -1.211500e+01  3.622961e+00  3.232876e+00
      vertex -1.841500e+01  3.688581e+00  3.110107e+00
      vertex -1.211500e+01  3.688581e+00  3.110107e+00
    endloop
  endfacet
  facet normal  -0.000000e+00 -9.569401e-01 -2.902853e-01
    outer loop
      vertex -1.211500e+01  3.688581e+00  3.110107e+00
      vertex -1.841500e+01  3.688581e+00  3.110107e+00
      vertex -1.841500e+01  3.728991e+00  2.976896e+00
    endloop
  endfacet
  facet normal  0.000000e+00 -9.569401e-01 -2.902853e-01
    outer loop
      vertex -1.211500e+01  3.688581e+00  3.110107e+00
      vertex -1.841500e+01  3.728991e+00  2.976896e+00
      vertex -1.211500e+01  3.728991e+00  2.976896e+00
    endloop
  endfacet
  facet normal  -0.000000e+00 -9.951848e-01 -9.801660e-02
    outer loop
      vertex -1.211500e+01  3.728991e+00  2.976896e+00
      vertex -1.841500e+01  3.728991e+00  2.976896e+00
      vertex -1.841500e+01  3.742635e+00  2.838361e+00
    endloop
  endfacet
  facet normal  0.000000e+00 -9.951848e-01 -9.801660e-02
    outer loop
      vertex -1.211500e+01  3.728991e+00  2.976896e+00
      vertex -1.841500e+01  3.742635e+00  2.838361e+00
      vertex -1.211500e+01  3.742635e+00  2.838361e+00
    endloop
  endfacet
  facet normal  -0.000000e+00 -7.730094e-01 -6.343946e-01
    outer loop
      vertex -1.841500e+01  3.622961e+00  3.232876e+00
      vertex -1.211500e+01  3.534649e+00  3.340483e+00
      vertex -1.841500e+01  3.534649e+00  3.340483e+00
    endloop
  endfacet
  facet normal  0.000000e+00 -6.343946e-01 -7.730094e-01
    outer loop
      vertex -1.841500e+01  3.534649e+00  3.340483e+00
      vertex -1.211500e+01  3.534649e+00  3.340483e+00
      vertex -1.211500e+01  3.427042e+00  3.428794e+00
    endloop
  endfacet
  facet normal  -0.000000e+00 -6.343946e-01 -7.730094e-01
    outer loop
      vertex -1.841500e+01  3.534649e+00  3.340483e+00
      vertex -1.211500e+01  3.427042e+00  3.428794e+00
      vertex -1.841500e+01  3.427042e+00  3.428794e+00
    endloop
  endfacet
  facet normal  0.000000e+00 -4.713957e-01 -8.819218e-01
    outer loop
      vertex -1.841500e+01  3.427042e+00  3.428794e+00
      vertex -1.211500e+01  3.427042e+00  3.428794e+00
      vertex -1.211500e+01  3.304274e+00  3.494415e+00
    endloop
  endfacet
  facet normal  -0.000000e+00 -4.713957e-01 -8.819218e-01
    outer loop
      vertex -1.841500e+01  3.427042e+00  3.428794e+00
      vertex -1.211500e+01  3.304274e+00  3.494415e+00
      vertex -1.841500e+01  3.304274e+00  3.494415e+00
    endloop
  endfacet
  facet normal  0.000000e+00 -2.902853e-01 -9.569401e-01
    outer loop
      vertex -1.841500e+01  3.304274e+00  3.494415e+00
      vertex -1.211500e+01  3.304274e+00  3.494415e+00
      vertex -1.211500e+01  3.171062e+00  3.534824e+00
    endloop
  endfacet
  facet normal  -0.000000e+00 -2.902853e-01 -9.569401e-01
    outer loop
      vertex -1.841500e+01  3.304274e+00  3.494415e+00
      vertex -1.211500e+01  3.171062e+00  3.534824e+00
      vertex -1.841500e+01  3.171062e+00  3.534824e+00
    endloop
  endfacet
  facet normal  0.000000e+00 -9.801660e-02 -9.951848e-01
    outer loop
      vertex -1.841500e+01  3.171062e+00  3.534824e+00
      vertex -1.211500e+01  3.171062e+00  3.534824e+00
      vertex -1.211500e+01  3.032527e+00  3.548469e+00
    endloop
  endfacet
  facet normal  -0.000000e+00 -9.801660e-02 -9.951848e-01
    outer loop
      vertex -1.841500e+01  3.171062e+00  3.534824e+00
      vertex -1.211500e+01  3.032527e+00  3.548469e+00
      vertex -1.841500e+01  3.032527e+00  3.548469e+00
    endloop
  endfacet
  facet normal  -0.000000e+00  0.000000e+00 -1.000000e+00
    outer loop
      vertex -1.841500e+01  3.032527e+00  3.548469e+00
      vertex -1.211500e+01  3.032527e+00  3.548469e+00
      vertex -1.841500e+01 -2.858390e+00  3.548469e+00
    endloop
  endfacet
  facet normal  0.000000e+00  0.000000e+00 -1.000000e+00
    outer loop
      vertex -1.841500e+01 -2.858390e+00  3.548469e+00
      vertex -1.211500e+01  3.032527e+00  3.548469e+00
      vertex -1.211500e+01 -2.858390e+00  3.548469e+00
    endloop
  endfacet
  facet normal  0.000000e+00  6.343946e-01 -7.730094e-01
    outer loop
      vertex -1.211500e+01 -3.483646e+00  3.289479e+00
      vertex -1.841500e+01 -3.349650e+00  3.399447e+00
      vertex -1.211500e+01 -3.349650e+00  3.399447e+00
    endloop
  endfacet
  facet normal  0.000000e+00  4.713961e-01 -8.819216e-01
    outer loop
      vertex -1.211500e+01 -3.349650e+00  3.399447e+00
      vertex -1.841500e+01 -3.349650e+00  3.399447e+00
      vertex -1.841500e+01 -3.196776e+00  3.481160e+00
    endloop
  endfacet
  facet normal  0.000000e+00  4.713961e-01 -8.819216e-01
    outer loop
      vertex -1.211500e+01 -3.349650e+00  3.399447e+00
      vertex -1.841500e+01 -3.196776e+00  3.481160e+00
      vertex -1.211500e+01 -3.196776e+00  3.481160e+00
    endloop
  endfacet
  facet normal  0.000000e+00  2.902851e-01 -9.569402e-01
    outer loop
      vertex -1.211500e+01 -3.196776e+00  3.481160e+00
      vertex -1.841500e+01 -3.196776e+00  3.481160e+00
      vertex -1.841500e+01 -3.030898e+00  3.531478e+00
    endloop
  endfacet
  facet normal  0.000000e+00  2.902851e-01 -9.569402e-01
    outer loop
      vertex -1.211500e+01 -3.196776e+00  3.481160e+00
      vertex -1.841500e+01 -3.030898e+00  3.531478e+00
      vertex -1.211500e+01 -3.030898e+00  3.531478e+00
    endloop
  endfacet
  facet normal  0.000000e+00  9.801652e-02 -9.951848e-01
    outer loop
      vertex -1.211500e+01 -3.030898e+00  3.531478e+00
      vertex -1.841500e+01 -3.030898e+00  3.531478e+00
      vertex -1.841500e+01 -2.858390e+00  3.548469e+00
    endloop
  endfacet
  facet normal  0.000000e+00  9.801652e-02 -9.951848e-01
    outer loop
      vertex -1.211500e+01 -3.030898e+00  3.531478e+00
      vertex -1.841500e+01 -2.858390e+00  3.548469e+00
      vertex -1.211500e+01 -2.858390e+00  3.548469e+00
    endloop
  endfacet
  facet normal  0.000000e+00  6.343946e-01 -7.730094e-01
    outer loop
      vertex -1.841500e+01 -3.349650e+00  3.399447e+00
      vertex -1.211500e+01 -3.483646e+00  3.289479e+00
      vertex -1.841500e+01 -3.483646e+00  3.289479e+00
    endloop
  endfacet
  facet normal  0.000000e+00  7.730094e-01 -6.343946e-01
    outer loop
      vertex -1.841500e+01 -3.483646e+00  3.289479e+00
      vertex -1.211500e+01 -3.483646e+00  3.289479e+00
      vertex -1.211500e+01 -3.593613e+00  3.155484e+00
    endloop
  endfacet
  facet normal  0.000000e+00  7.730094e-01 -6.343946e-01
    outer loop
      vertex -1.841500e+01 -3.483646e+00  3.289479e+00
      vertex -1.211500e+01 -3.593613e+00  3.155484e+00
      vertex -1.841500e+01 -3.593613e+00  3.155484e+00
    endloop
  endfacet
  facet normal  0.000000e+00  8.819216e-01 -4.713961e-01
    outer loop
      vertex -1.841500e+01 -3.593613e+00  3.155484e+00
      vertex -1.211500e+01 -3.593613e+00  3.155484e+00
      vertex -1.211500e+01 -3.675326e+00  3.002609e+00
    endloop
  endfacet
  facet normal  0.000000e+00  8.819216e-01 -4.713961e-01
    outer loop
      vertex -1.841500e+01 -3.593613e+00  3.155484e+00
      vertex -1.211500e+01 -3.675326e+00  3.002609e+00
      vertex -1.841500e+01 -3.675326e+00  3.002609e+00
    endloop
  endfacet
  facet normal  0.000000e+00  9.569402e-01 -2.902851e-01
    outer loop
      vertex -1.841500e+01 -3.675326e+00  3.002609e+00
      vertex -1.211500e+01 -3.675326e+00  3.002609e+00
      vertex -1.211500e+01 -3.725645e+00  2.836731e+00
    endloop
  endfacet
  facet normal  0.000000e+00  9.569402e-01 -2.902851e-01
    outer loop
      vertex -1.841500e+01 -3.675326e+00  3.002609e+00
      vertex -1.211500e+01 -3.725645e+00  2.836731e+00
      vertex -1.841500e+01 -3.725645e+00  2.836731e+00
    endloop
  endfacet
  facet normal  0.000000e+00  9.951848e-01 -9.801652e-02
    outer loop
      vertex -1.841500e+01 -3.725645e+00  2.836731e+00
      vertex -1.211500e+01 -3.725645e+00  2.836731e+00
      vertex -1.211500e+01 -3.742635e+00  2.664223e+00
    endloop
  endfacet
  facet normal  0.000000e+00  9.951848e-01 -9.801652e-02
    outer loop
      vertex -1.841500e+01 -3.725645e+00  2.836731e+00
      vertex -1.211500e+01 -3.742635e+00  2.664223e+00
      vertex -1.841500e+01 -3.742635e+00  2.664223e+00
    endloop
  endfacet
  facet normal -1.000000e+00  -0.000000e+00  -0.000000e+00
    outer loop
      vertex -1.211500e+01 -2.858390e+00  3.548469e+00
      vertex -1.211500e+01  3.032527e+00  3.548469e+00
      vertex -1.211500e+01  3.742635e+00  1.619111e+00
    endloop
  endfacet
  facet normal -1.000000e+00  0.000000e+00  0.000000e+00
    outer loop
      vertex -1.211500e+01 -2.858390e+00  3.548469e+00
      vertex -1.211500e+01  3.742635e+00  1.619111e+00
      vertex -1.211500e+01 -3.742635e+00  1.619111e+00
    endloop
  endfacet
  facet normal -1.000000e+00  0.000000e+00  0.000000e+00
    outer loop
      vertex -1.211500e+01 -2.858390e+00  3.548469e+00
      vertex -1.211500e+01 -3.742635e+00  1.619111e+00
      vertex -1.211500e+01 -3.742635e+00  2.664223e+00
    endloop
  endfacet
  facet normal -1.000000e+00  0.000000e+00  0.000000e+00
    outer loop
      vertex -1.211500e+01 -2.858390e+00  3.548469e+00
      vertex -1.211500e+01 -3.742635e+00  2.664223e+00
      vertex -1.211500e+01 -3.725645e+00  2.836731e+00
    endloop
  endfacet
  facet normal -1.000000e+00  0.000000e+00  0.000000e+00
    outer loop
      vertex -1.211500e+01 -2.858390e+00  3.548469e+00
      vertex -1.211500e+01 -3.725645e+00  2.836731e+00
      vertex -1.211500e+01 -3.675326e+00  3.002609e+00
    endloop
  endfacet
  facet normal -1.000000e+00  0.000000e+00  0.000000e+00
    outer loop
      vertex -1.211500e+01 -2.858390e+00  3.548469e+00
      vertex -1.211500e+01 -3.675326e+00  3.002609e+00
      vertex -1.211500e+01 -3.593613e+00  3.155484e+00
    endloop
  endfacet
  facet normal -1.000000e+00  0.000000e+00  0.000000e+00
    outer loop
      vertex -1.211500e+01 -2.858390e+00  3.548469e+00
      vertex -1.211500e+01 -3.593613e+00  3.155484e+00
      vertex -1.211500e+01 -3.483646e+00  3.289479e+00
    endloop
  endfacet
  facet normal -1.000000e+00  0.000000e+00  0.000000e+00
    outer loop
      vertex -1.211500e+01 -2.858390e+00  3.548469e+00
      vertex -1.211500e+01 -3.483646e+00  3.289479e+00
      vertex -1.211500e+01 -3.349650e+00  3.399447e+00
    endloop
  endfacet
  facet normal -1.000000e+00  0.000000e+00  0.000000e+00
    outer loop
      vertex -1.211500e+01 -2.858390e+00  3.548469e+00
      vertex -1.211500e+01 -3.349650e+00  3.399447e+00
      vertex -1.211500e+01 -3.196776e+00  3.481160e+00
    endloop
  endfacet
  facet normal -1.000000e+00  0.000000e+00  0.000000e+00
    outer loop
      vertex -1.211500e+01 -2.858390e+00  3.548469e+00
      vertex -1.211500e+01 -3.196776e+00  3.481160e+00
      vertex -1.211500e+01 -3.030898e+00  3.531478e+00
    endloop
  endfacet
  facet normal -1.000000e+00  0.000000e+00  0.000000e+00
    outer loop
      vertex -1.211500e+01  3.742635e+00  1.619111e+00
      vertex -1.211500e+01  3.032527e+00  3.548469e+00
      vertex -1.211500e+01  3.171062e+00  3.534824e+00
    endloop
  endfacet
  facet normal -1.000000e+00  0.000000e+00  0.000000e+00
    outer loop
      vertex -1.211500e+01  3.742635e+00  1.619111e+00
      vertex -1.211500e+01  3.171062e+00  3.534824e+00
      vertex -1.211500e+01  3.304274e+00  3.494415e+00
    endloop
  endfacet
  facet normal -1.000000e+00  0.000000e+00  0.000000e+00
    outer loop
      vertex -1.211500e+01  3.742635e+00  1.619111e+00
      vertex -1.211500e+01  3.304274e+00  3.494415e+00
      vertex -1.211500e+01  3.427042e+00  3.428794e+00
    endloop
  endfacet
  facet normal -1.000000e+00  0.000000e+00  0.000000e+00
    outer loop
      vertex -1.211500e+01  3.742635e+00  1.619111e+00
      vertex -1.211500e+01  3.427042e+00  3.428794e+00
      vertex -1.211500e+01  3.534649e+00  3.340483e+00
    endloop
  endfacet
  facet normal -1.000000e+00  0.000000e+00  0.000000e+00
    outer loop
      vertex -1.211500e+01  3.742635e+00  1.619111e+00
      vertex -1.211500e+01  3.534649e+00  3.340483e+00
      vertex -1.211500e+01  3.622961e+00  3.232876e+00
    endloop
  endfacet
  facet normal -1.000000e+00  0.000000e+00  0.000000e+00
    outer loop
      vertex -1.211500e+01  3.742635e+00  1.619111e+00
      vertex -1.211500e+01  3.622961e+00  3.232876e+00
      vertex -1.211500e+01  3.688581e+00  3.110107e+00
    endloop
  endfacet
  facet normal -1.000000e+00  0.000000e+00  0.000000e+00
    outer loop
      vertex -1.211500e+01  3.742635e+00  1.619111e+00
      vertex -1.211500e+01  3.688581e+00  3.110107e+00
      vertex -1.211500e+01  3.728991e+00  2.976896e+00
    endloop
  endfacet
  facet normal -1.000000e+00  0.000000e+00  0.000000e+00
    outer loop
      vertex -1.211500e+01  3.742635e+00  1.619111e+00
      vertex -1.211500e+01  3.728991e+00  2.976896e+00
      vertex -1.211500e+01  3.742635e+00  2.838361e+00
    endloop
  endfacet
  facet normal  1.000000e+00  0.000000e+00  0.000000e+00
    outer loop
      vertex -1.011500e+01 -3.857107e+00  3.707107e+00
      vertex -1.011500e+01  3.705570e+00  3.831470e+00
      vertex -1.011500e+01 -3.705570e+00  3.831470e+00
    endloop
  endfacet
  facet normal  1.000000e+00  0.000000e+00  0.000000e+00
    outer loop
      vertex -1.011500e+01 -3.705570e+00  3.831470e+00
      vertex -1.011500e+01  3.705570e+00  3.831470e+00
      vertex -1.011500e+01  3.532683e+00  3.923880e+00
    endloop
  endfacet
  facet normal  1.000000e+00  0.000000e+00  0.000000e+00
    outer loop
      vertex -1.011500e+01 -3.705570e+00  3.831470e+00
      vertex -1.011500e+01  3.532683e+00  3.923880e+00
      vertex -1.011500e+01 -3.532683e+00  3.923880e+00
    endloop
  endfacet
  facet normal  1.000000e+00  0.000000e+00  0.000000e+00
    outer loop
      vertex -1.011500e+01 -3.532683e+00  3.923880e+00
      vertex -1.011500e+01  3.532683e+00  3.923880e+00
      vertex -1.011500e+01  3.345090e+00  3.980785e+00
    endloop
  endfacet
  facet normal  1.000000e+00  0.000000e+00  0.000000e+00
    outer loop
      vertex -1.011500e+01 -3.532683e+00  3.923880e+00
      vertex -1.011500e+01  3.345090e+00  3.980785e+00
      vertex -1.011500e+01 -3.345090e+00  3.980785e+00
    endloop
  endfacet
  facet normal  1.000000e+00  0.000000e+00  0.000000e+00
    outer loop
      vertex -1.011500e+01 -3.345090e+00  3.980785e+00
      vertex -1.011500e+01  3.345090e+00  3.980785e+00
      vertex -1.011500e+01  3.150000e+00  4.000000e+00
    endloop
  endfacet
  facet normal  1.000000e+00  0.000000e+00  0.000000e+00
    outer loop
      vertex -1.011500e+01 -3.345090e+00  3.980785e+00
      vertex -1.011500e+01  3.150000e+00  4.000000e+00
      vertex -1.011500e+01 -3.150000e+00  4.000000e+00
    endloop
  endfacet
  facet normal  9.999999e-01  0.000000e+00  0.000000e+00
    outer loop
      vertex -1.011500e+01  3.705570e+00  3.831470e+00
      vertex -1.011500e+01 -3.857107e+00  3.707107e+00
      vertex -1.011500e+01  3.857107e+00  3.707107e+00
    endloop
  endfacet
  facet normal  1.000000e+00  0.000000e+00  0.000000e+00
    outer loop
      vertex -1.011500e+01  3.857107e+00  3.707107e+00
      vertex -1.011500e+01 -3.857107e+00  3.707107e+00
      vertex -1.011500e+01 -3.981470e+00  3.555570e+00
    endloop
  endfacet
  facet normal  1.000000e+00  0.000000e+00  0.000000e+00
    outer loop
      vertex -1.011500e+01  3.857107e+00  3.707107e+00
      vertex -1.011500e+01 -3.981470e+00  3.555570e+00
      vertex -1.011500e+01  3.981470e+00  3.555570e+00
    endloop
  endfacet
  facet normal  1.000000e+00  0.000000e+00  0.000000e+00
    outer loop
      vertex -1.011500e+01  3.981470e+00  3.555570e+00
      vertex -1.011500e+01 -3.981470e+00  3.555570e+00
      vertex -1.011500e+01 -4.073880e+00  3.382684e+00
    endloop
  endfacet
  facet normal  1.000000e+00  0.000000e+00  0.000000e+00
    outer loop
      vertex -1.011500e+01  3.981470e+00  3.555570e+00
      vertex -1.011500e+01 -4.073880e+00  3.382684e+00
      vertex -1.011500e+01  4.073880e+00  3.382684e+00
    endloop
  endfacet
  facet normal  1.000000e+00  0.000000e+00  0.000000e+00
    outer loop
      vertex -1.011500e+01  4.073880e+00  3.382684e+00
      vertex -1.011500e+01 -4.073880e+00  3.382684e+00
      vertex -1.011500e+01 -4.130785e+00  3.195090e+00
    endloop
  endfacet
  facet normal  9.999999e-01  0.000000e+00  0.000000e+00
    outer loop
      vertex -1.011500e+01  4.073880e+00  3.382684e+00
      vertex -1.011500e+01 -4.130785e+00  3.195090e+00
      vertex -1.011500e+01  4.130785e+00  3.195090e+00
    endloop
  endfacet
  facet normal  1.000000e+00  0.000000e+00  0.000000e+00
    outer loop
      vertex -1.011500e+01  4.130785e+00  3.195090e+00
      vertex -1.011500e+01 -4.130785e+00  3.195090e+00
      vertex -1.011500e+01 -4.150000e+00  3.000000e+00
    endloop
  endfacet
  facet normal  9.999999e-01  0.000000e+00  0.000000e+00
    outer loop
      vertex -1.011500e+01  4.130785e+00  3.195090e+00
      vertex -1.011500e+01 -4.150000e+00  3.000000e+00
      vertex -1.011500e+01  4.150000e+00  3.000000e+00
    endloop
  endfacet
  facet normal  1.000000e+00  0.000000e+00  0.000000e+00
    outer loop
      vertex -1.011500e+01  4.150000e+00  3.000000e+00
      vertex -1.011500e+01 -4.150000e+00  3.000000e+00
      vertex -1.011500e+01 -4.150000e+00  1.500000e+00
    endloop
  endfacet
  facet normal  1.000000e+00  0.000000e+00  0.000000e+00
    outer loop
      vertex -1.011500e+01  4.150000e+00  3.000000e+00
      vertex -1.011500e+01 -4.150000e+00  1.500000e+00
      vertex -1.011500e+01  4.150000e+00  1.500000e+00
    endloop
  endfacet
  facet normal  0.000000e+00  0.000000e+00  1.000000e+00
    outer loop
      vertex -1.841500e+01  3.150000e+00  4.000000e+00
      vertex -1.841500e+01 -3.150000e+00  4.000000e+00
      vertex -1.011500e+01  3.150000e+00  4.000000e+00
    endloop
  endfacet
  facet normal  0.000000e+00  0.000000e+00  1.000000e+00
    outer loop
      vertex -1.011500e+01  3.150000e+00  4.000000e+00
      vertex -1.841500e+01 -3.150000e+00  4.000000e+00
      vertex -1.011500e+01 -3.150000e+00  4.000000e+00
    endloop
  endfacet
  facet normal  0.000000e+00  1.000000e+00  0.000000e+00
    outer loop
      vertex -1.841500e+01  4.150000e+00  1.500000e+00
      vertex -1.841500e+01  4.150000e+00  3.000000e+00
      vertex -1.011500e+01  4.150000e+00  1.500000e+00
    endloop
  endfacet
  facet normal  0.000000e+00  1.000000e+00  -0.000000e+00
    outer loop
      vertex -1.011500e+01  4.150000e+00  1.500000e+00
      vertex -1.841500e+01  4.150000e+00  3.000000e+00
      vertex -1.011500e+01  4.150000e+00  3.000000e+00
    endloop
  endfacet
  facet normal  0.000000e+00  9.801670e-02  9.951848e-01
    outer loop
      vertex -1.841500e+01  3.150000e+00  4.000000e+00
      vertex -1.011500e+01  3.150000e+00  4.000000e+00
      vertex -1.841500e+01  3.345090e+00  3.980785e+00
    endloop
  endfacet
  facet normal  -0.000000e+00  9.801670e-02  9.951848e-01
    outer loop
      vertex -1.841500e+01  3.345090e+00  3.980785e+00
      vertex -1.011500e+01  3.150000e+00  4.000000e+00
      vertex -1.011500e+01  3.345090e+00  3.980785e+00
    endloop
  endfacet
  facet normal  0.000000e+00  2.902849e-01  9.569404e-01
    outer loop
      vertex -1.841500e+01  3.345090e+00  3.980785e+00
      vertex -1.011500e+01  3.345090e+00  3.980785e+00
      vertex -1.841500e+01  3.532683e+00  3.923880e+00
    endloop
  endfacet
  facet normal  -0.000000e+00  2.902849e-01  9.569404e-01
    outer loop
      vertex -1.841500e+01  3.532683e+00  3.923880e+00
      vertex -1.011500e+01  3.345090e+00  3.980785e+00
      vertex -1.011500e+01  3.532683e+00  3.923880e+00
    endloop
  endfacet
  facet normal  0.000000e+00  4.713973e-01  8.819210e-01
    outer loop
      vertex -1.841500e+01  3.532683e+00  3.923880e+00
      vertex -1.011500e+01  3.532683e+00  3.923880e+00
      vertex -1.841500e+01  3.705570e+00  3.831470e+00
    endloop
  endfacet
  facet normal  -0.000000e+00  4.713973e-01  8.819210e-01
    outer loop
      vertex -1.841500e+01  3.705570e+00  3.831470e+00
      vertex -1.011500e+01  3.532683e+00  3.923880e+00
      vertex -1.011500e+01  3.705570e+00  3.831470e+00
    endloop
  endfacet
  facet normal  0.000000e+00  6.343931e-01  7.730106e-01
    outer loop
      vertex -1.841500e+01  3.705570e+00  3.831470e+00
      vertex -1.011500e+01  3.705570e+00  3.831470e+00
      vertex -1.841500e+01  3.857107e+00  3.707107e+00
    endloop
  endfacet
  facet normal  -0.000000e+00  6.343931e-01  7.730106e-01
    outer loop
      vertex -1.841500e+01  3.857107e+00  3.707107e+00
      vertex -1.011500e+01  3.705570e+00  3.831470e+00
      vertex -1.011500e+01  3.857107e+00  3.707107e+00
    endloop
  endfacet
  facet normal  0.000000e+00  7.730105e-01  6.343933e-01
    outer loop
      vertex -1.841500e+01  3.857107e+00  3.707107e+00
      vertex -1.011500e+01  3.857107e+00  3.707107e+00
      vertex -1.841500e+01  3.981470e+00  3.555570e+00
    endloop
  endfacet
  facet normal  -0.000000e+00  7.730105e-01  6.343933e-01
    outer loop
      vertex -1.841500e+01  3.981470e+00  3.555570e+00
      vertex -1.011500e+01  3.857107e+00  3.707107e+00
      vertex -1.011500e+01  3.981470e+00  3.555570e+00
    endloop
  endfacet
  facet normal  0.000000e+00  8.819207e-01  4.713978e-01
    outer loop
      vertex -1.841500e+01  3.981470e+00  3.555570e+00
      vertex -1.011500e+01  3.981470e+00  3.555570e+00
      vertex -1.841500e+01  4.073880e+00  3.382684e+00
    endloop
  endfacet
  facet normal  -0.000000e+00  8.819207e-01  4.713978e-01
    outer loop
      vertex -1.841500e+01  4.073880e+00  3.382684e+00
      vertex -1.011500e+01  3.981470e+00  3.555570e+00
      vertex -1.011500e+01  4.073880e+00  3.382684e+00
    endloop
  endfacet
  facet normal  0.000000e+00  9.569404e-01  2.902845e-01
    outer loop
      vertex -1.841500e+01  4.073880e+00  3.382684e+00
      vertex -1.011500e+01  4.073880e+00  3.382684e+00
      vertex -1.841500e+01  4.130785e+00  3.195090e+00
    endloop
  endfacet
  facet normal  -0.000000e+00  9.569404e-01  2.902845e-01
    outer loop
      vertex -1.841500e+01  4.130785e+00  3.195090e+00
      vertex -1.011500e+01  4.073880e+00  3.382684e+00
      vertex -1.011500e+01  4.130785e+00  3.195090e+00
    endloop
  endfacet
  facet normal  0.000000e+00  9.951848e-01  9.801670e-02
    outer loop
      vertex -1.841500e+01  4.130785e+00  3.195090e+00
      vertex -1.011500e+01  4.130785e+00  3.195090e+00
      vertex -1.841500e+01  4.150000e+00  3.000000e+00
    endloop
  endfacet
  facet normal  -0.000000e+00  9.951848e-01  9.801670e-02
    outer loop
      vertex -1.841500e+01  4.150000e+00  3.000000e+00
      vertex -1.011500e+01  4.130785e+00  3.195090e+00
      vertex -1.011500e+01  4.150000e+00  3.000000e+00
    endloop
  endfacet
  facet normal  0.000000e+00 -1.000000e+00  0.000000e+00
    outer loop
      vertex -1.841500e+01 -4.150000e+00  3.000000e+00
      vertex -1.841500e+01 -4.150000e+00  1.500000e+00
      vertex -1.011500e+01 -4.150000e+00  3.000000e+00
    endloop
  endfacet
  facet normal  0.000000e+00 -1.000000e+00  -0.000000e+00
    outer loop
      vertex -1.011500e+01 -4.150000e+00  3.000000e+00
      vertex -1.841500e+01 -4.150000e+00  1.500000e+00
      vertex -1.011500e+01 -4.150000e+00  1.500000e+00
    endloop
  endfacet
  facet normal  0.000000e+00 -9.951848e-01  9.801670e-02
    outer loop
      vertex -1.841500e+01 -4.150000e+00  3.000000e+00
      vertex -1.011500e+01 -4.150000e+00  3.000000e+00
      vertex -1.841500e+01 -4.130785e+00  3.195090e+00
    endloop
  endfacet
  facet normal  0.000000e+00 -9.951848e-01  9.801670e-02
    outer loop
      vertex -1.841500e+01 -4.130785e+00  3.195090e+00
      vertex -1.011500e+01 -4.150000e+00  3.000000e+00
      vertex -1.011500e+01 -4.130785e+00  3.195090e+00
    endloop
  endfacet
  facet normal  0.000000e+00 -9.569404e-01  2.902845e-01
    outer loop
      vertex -1.841500e+01 -4.130785e+00  3.195090e+00
      vertex -1.011500e+01 -4.130785e+00  3.195090e+00
      vertex -1.841500e+01 -4.073880e+00  3.382684e+00
    endloop
  endfacet
  facet normal  0.000000e+00 -9.569404e-01  2.902845e-01
    outer loop
      vertex -1.841500e+01 -4.073880e+00  3.382684e+00
      vertex -1.011500e+01 -4.130785e+00  3.195090e+00
      vertex -1.011500e+01 -4.073880e+00  3.382684e+00
    endloop
  endfacet
  facet normal  0.000000e+00 -8.819207e-01  4.713978e-01
    outer loop
      vertex -1.841500e+01 -4.073880e+00  3.382684e+00
      vertex -1.011500e+01 -4.073880e+00  3.382684e+00
      vertex -1.841500e+01 -3.981470e+00  3.555570e+00
    endloop
  endfacet
  facet normal  0.000000e+00 -8.819207e-01  4.713978e-01
    outer loop
      vertex -1.841500e+01 -3.981470e+00  3.555570e+00
      vertex -1.011500e+01 -4.073880e+00  3.382684e+00
      vertex -1.011500e+01 -3.981470e+00  3.555570e+00
    endloop
  endfacet
  facet normal  0.000000e+00 -7.730105e-01  6.343933e-01
    outer loop
      vertex -1.841500e+01 -3.981470e+00  3.555570e+00
      vertex -1.011500e+01 -3.981470e+00  3.555570e+00
      vertex -1.841500e+01 -3.857107e+00  3.707107e+00
    endloop
  endfacet
  facet normal  0.000000e+00 -7.730105e-01  6.343933e-01
    outer loop
      vertex -1.841500e+01 -3.857107e+00  3.707107e+00
      vertex -1.011500e+01 -3.981470e+00  3.555570e+00
      vertex -1.011500e+01 -3.857107e+00  3.707107e+00
    endloop
  endfacet
  facet normal  0.000000e+00 -6.343931e-01  7.730106e-01
    outer loop
      vertex -1.841500e+01 -3.857107e+00  3.707107e+00
      vertex -1.011500e+01 -3.857107e+00  3.707107e+00
      vertex -1.841500e+01 -3.705570e+00  3.831470e+00
    endloop
  endfacet
  facet normal  0.000000e+00 -6.343931e-01  7.730106e-01
    outer loop
      vertex -1.841500e+01 -3.705570e+00  3.831470e+00
      vertex -1.011500e+01 -3.857107e+00  3.707107e+00
      vertex -1.011500e+01 -3.705570e+00  3.831470e+00
    endloop
  endfacet
  facet normal  0.000000e+00 -4.713973e-01  8.819210e-01
    outer loop
      vertex -1.841500e+01 -3.705570e+00  3.831470e+00
      vertex -1.011500e+01 -3.705570e+00  3.831470e+00
      vertex -1.841500e+01 -3.532683e+00  3.923880e+00
    endloop
  endfacet
  facet normal  0.000000e+00 -4.713973e-01  8.819210e-01
    outer loop
      vertex -1.841500e+01 -3.532683e+00  3.923880e+00
      vertex -1.011500e+01 -3.705570e+00  3.831470e+00
      vertex -1.011500e+01 -3.532683e+00  3.923880e+00
    endloop
  endfacet
  facet normal  0.000000e+00 -2.902849e-01  9.569404e-01
    outer loop
      vertex -1.841500e+01 -3.532683e+00  3.923880e+00
      vertex -1.011500e+01 -3.532683e+00  3.923880e+00
      vertex -1.841500e+01 -3.345090e+00  3.980785e+00
    endloop
  endfacet
  facet normal  0.000000e+00 -2.902849e-01  9.569404e-01
    outer loop
      vertex -1.841500e+01 -3.345090e+00  3.980785e+00
      vertex -1.011500e+01 -3.532683e+00  3.923880e+00
      vertex -1.011500e+01 -3.345090e+00  3.980785e+00
    endloop
  endfacet
  facet normal  0.000000e+00 -9.801670e-02  9.951848e-01
    outer loop
      vertex -1.841500e+01 -3.345090e+00  3.980785e+00
      vertex -1.011500e+01 -3.345090e+00  3.980785e+00
      vertex -1.841500e+01 -3.150000e+00  4.000000e+00
    endloop
  endfacet
  facet normal  0.000000e+00 -9.801670e-02  9.951848e-01
    outer loop
      vertex -1.841500e+01 -3.150000e+00  4.000000e+00
      vertex -1.011500e+01 -3.345090e+00  3.980785e+00
      vertex -1.011500e+01 -3.150000e+00  4.000000e+00
    endloop
  endfacet
  facet normal  0.000000e+00  0.000000e+00  1.000000e+00
    outer loop
      vertex -1.841500e+01  1.333500e+01  1.500000e+00
      vertex -1.841500e+01  4.150000e+00  1.500000e+00
      vertex  1.841500e+01  1.333500e+01  1.500000e+00
    endloop
  endfacet
  facet normal  0.000000e+00  0.000000e+00  1.000000e+00
    outer loop
      vertex  1.841500e+01  1.333500e+01  1.500000e+00
      vertex -1.841500e+01  4.150000e+00  1.500000e+00
      vertex -1.011500e+01  4.150000e+00  1.500000e+00
    endloop
  endfacet
  facet normal  -0.000000e+00  0.000000e+00  1.000000e+00
    outer loop
      vertex  1.841500e+01  1.333500e+01  1.500000e+00
      vertex -1.011500e+01  4.150000e+00  1.500000e+00
      vertex  1.841500e+01 -1.333500e+01  1.500000e+00
    endloop
  endfacet
  facet normal  0.000000e+00  0.000000e+00  1.000000e+00
    outer loop
      vertex  1.841500e+01 -1.333500e+01  1.500000e+00
      vertex -1.011500e+01  4.150000e+00  1.500000e+00
      vertex -1.011500e+01 -4.150000e+00  1.500000e+00
    endloop
  endfacet
  facet normal  0.000000e+00  0.000000e+00  1.000000e+00
    outer loop
      vertex  1.841500e+01 -1.333500e+01  1.500000e+00
      vertex -1.011500e+01 -4.150000e+00  1.500000e+00
      vertex -1.841500e+01 -1.333500e+01  1.500000e+00
    endloop
  endfacet
  facet normal  0.000000e+00  0.000000e+00  1.000000e+00
    outer loop
      vertex -1.841500e+01 -1.333500e+01  1.500000e+00
      vertex -1.011500e+01 -4.150000e+00  1.500000e+00
      vertex -1.841500e+01 -4.150000e+00  1.500000e+00
    endloop
  endfacet
  facet normal  0.000000e+00  0.000000e+00 -9.999999e-01
    outer loop
      vertex -1.841500e+01 -1.333500e+01  0.000000e+00
      vertex -1.841500e+01  1.333500e+01  0.000000e+00
      vertex  1.841500e+01 -1.333500e+01  0.000000e+00
    endloop
  endfacet
  facet normal  0.000000e+00  0.000000e+00 -9.999999e-01
    outer loop
      vertex  1.841500e+01 -1.333500e+01  0.000000e+00
      vertex -1.841500e+01  1.333500e+01  0.000000e+00
      vertex  1.841500e+01  1.333500e+01  0.000000e+00
    endloop
  endfacet
  facet normal  1.000000e+00  -0.000000e+00  0.000000e+00
    outer loop
      vertex  1.841500e+01  1.333500e+01  1.500000e+00
      vertex  1.841500e+01 -1.333500e+01  1.500000e+00
      vertex  1.841500e+01  1.333500e+01  0.000000e+00
    endloop
  endfacet
  facet normal  1.000000e+00  0.000000e+00  0.000000e+00
    outer loop
      vertex  1.841500e+01  1.333500e+01  0.000000e+00
      vertex  1.841500e+01 -1.333500e+01  1.500000e+00
      vertex  1.841500e+01 -1.333500e+01  0.000000e+00
    endloop
  endfacet
  facet normal  0.000000e+00 -1.000000e+00  0.000000e+00
    outer loop
      vertex  1.841500e+01 -1.333500e+01  1.500000e+00
      vertex -1.841500e+01 -1.333500e+01  1.500000e+00
      vertex  1.841500e+01 -1.333500e+01  0.000000e+00
    endloop
  endfacet
  facet normal  0.000000e+00 -1.000000e+00  0.000000e+00
    outer loop
      vertex  1.841500e+01 -1.333500e+01  0.000000e+00
      vertex -1.841500e+01 -1.333500e+01  1.500000e+00
      vertex -1.841500e+01 -1.333500e+01  0.000000e+00
    endloop
  endfacet
  facet normal  0.000000e+00  1.000000e+00  0.000000e+00
    outer loop
      vertex -1.841500e+01  1.333500e+01  1.500000e+00
      vertex  1.841500e+01  1.333500e+01  1.500000e+00
      vertex -1.841500e+01  1.333500e+01  0.000000e+00
    endloop
  endfacet
  facet normal  0.000000e+00  1.000000e+00  0.000000e+00
    outer loop
      vertex -1.841500e+01  1.333500e+01  0.000000e+00
      vertex  1.841500e+01  1.333500e+01  1.500000e+00
      vertex  1.841500e+01  1.333500e+01  0.000000e+00
    endloop
  endfacet
endsolid CATIA STL
