ISO-10303-21;
HEADER;
FILE_DESCRIPTION(('CATIA V5 STEP Exchange','CAx-IF Rec.Pracs.--- Model Styling and Organization---1.5--- 2016-08-15','CAx-IF Rec.Pracs.---Supplemental Geometry---1.0---2011-11-01','CAx-IF Rec.Pracs.--- Composite Materials ---3.4---2017-06-13','CAx-IF Rec.Pracs.---Tessellated 3D Geometry---1.0---2015-12-17'),'2;1');

FILE_NAME('C:\\Users\\icemi\\Desktop\\RZS_Repository\\RES\\catia_macros\\generated\\RES_Enclosure_PRODUCTION_20260730_R6_SEAL_FIX\\RES_InsulationPlate.stp','2026-08-25T03:23:17+00:00',('none'),('none'),'CATIA Version 5-6 Release 2022 SP6','CATIA V5 STEP AP242 v3','none');

FILE_SCHEMA(('AP242_MANAGED_MODEL_BASED_3D_ENGINEERING_MIM_LF  {1 0 10303 442 1 1 4}'));

ENDSEC;
DATA;
#5=PRODUCT('Part7','','',(#2)) ;
#2=PRODUCT_CONTEXT(' ',#1,'mechanical') ;
#1=APPLICATION_CONTEXT('managed model based 3d engineering') ;
#10=PRODUCT_DEFINITION('',' ',#6,#3) ;
#3=PRODUCT_DEFINITION_CONTEXT('part definition',#1,' ') ;
#11=PRODUCT_DEFINITION_SHAPE(' ',' ',#10) ;
#1193=MECHANICAL_DESIGN_GEOMETRIC_PRESENTATION_REPRESENTATION(' ',(#29),#16) ;
#7=PRODUCT_CATEGORY('part','specification') ;
#19=SHAPE_REPRESENTATION(' ',(#18),#16) ;
#17=CARTESIAN_POINT(' ',(0.,0.,0.)) ;
#31=CARTESIAN_POINT('Axis2P3D Location',(-84.,-42.,0.)) ;
#36=CARTESIAN_POINT('Line Origine',(-80.,-42.,2.)) ;
#40=CARTESIAN_POINT('Vertex',(-84.,-42.,2.)) ;
#42=CARTESIAN_POINT('Vertex',(-76.,-42.,2.)) ;
#45=CARTESIAN_POINT('Line Origine',(-76.,-42.,1.)) ;
#49=CARTESIAN_POINT('Vertex',(-76.,-42.,0.)) ;
#52=CARTESIAN_POINT('Line Origine',(-80.,-42.,0.)) ;
#56=CARTESIAN_POINT('Vertex',(-84.,-42.,0.)) ;
#59=CARTESIAN_POINT('Line Origine',(-84.,-42.,1.)) ;
#71=CARTESIAN_POINT('Axis2P3D Location',(-76.,-42.,0.)) ;
#76=CARTESIAN_POINT('Line Origine',(-76.,-32.,2.)) ;
#80=CARTESIAN_POINT('Vertex',(-76.,-22.,2.)) ;
#83=CARTESIAN_POINT('Line Origine',(-76.,-22.,1.)) ;
#87=CARTESIAN_POINT('Vertex',(-76.,-22.,0.)) ;
#90=CARTESIAN_POINT('Line Origine',(-76.,-32.,0.)) ;
#102=CARTESIAN_POINT('Axis2P3D Location',(-76.,-22.,0.)) ;
#107=CARTESIAN_POINT('Line Origine',(-80.,-22.,2.)) ;
#111=CARTESIAN_POINT('Vertex',(-84.,-22.,2.)) ;
#114=CARTESIAN_POINT('Line Origine',(-84.,-22.,1.)) ;
#118=CARTESIAN_POINT('Vertex',(-84.,-22.,0.)) ;
#121=CARTESIAN_POINT('Line Origine',(-80.,-22.,0.)) ;
#133=CARTESIAN_POINT('Axis2P3D Location',(-84.,22.,0.)) ;
#138=CARTESIAN_POINT('Line Origine',(-80.,22.,2.)) ;
#142=CARTESIAN_POINT('Vertex',(-84.,22.,2.)) ;
#144=CARTESIAN_POINT('Vertex',(-76.,22.,2.)) ;
#147=CARTESIAN_POINT('Line Origine',(-76.,22.,1.)) ;
#151=CARTESIAN_POINT('Vertex',(-76.,22.,0.)) ;
#154=CARTESIAN_POINT('Line Origine',(-80.,22.,0.)) ;
#158=CARTESIAN_POINT('Vertex',(-84.,22.,0.)) ;
#161=CARTESIAN_POINT('Line Origine',(-84.,22.,1.)) ;
#173=CARTESIAN_POINT('Line Origine',(-76.,32.,2.)) ;
#177=CARTESIAN_POINT('Vertex',(-76.,42.,2.)) ;
#180=CARTESIAN_POINT('Line Origine',(-76.,42.,1.)) ;
#184=CARTESIAN_POINT('Vertex',(-76.,42.,0.)) ;
#187=CARTESIAN_POINT('Line Origine',(-76.,32.,0.)) ;
#199=CARTESIAN_POINT('Axis2P3D Location',(-76.,42.,0.)) ;
#204=CARTESIAN_POINT('Line Origine',(-80.,42.,2.)) ;
#208=CARTESIAN_POINT('Vertex',(-84.,42.,2.)) ;
#211=CARTESIAN_POINT('Line Origine',(-84.,42.,1.)) ;
#215=CARTESIAN_POINT('Vertex',(-84.,42.,0.)) ;
#218=CARTESIAN_POINT('Line Origine',(-80.,42.,0.)) ;
#230=CARTESIAN_POINT('Line Origine',(80.,-42.,2.)) ;
#234=CARTESIAN_POINT('Vertex',(76.,-42.,2.)) ;
#236=CARTESIAN_POINT('Vertex',(84.,-42.,2.)) ;
#239=CARTESIAN_POINT('Line Origine',(84.,-42.,1.)) ;
#243=CARTESIAN_POINT('Vertex',(84.,-42.,0.)) ;
#246=CARTESIAN_POINT('Line Origine',(80.,-42.,0.)) ;
#250=CARTESIAN_POINT('Vertex',(76.,-42.,0.)) ;
#253=CARTESIAN_POINT('Line Origine',(76.,-42.,1.)) ;
#265=CARTESIAN_POINT('Axis2P3D Location',(76.,-22.,0.)) ;
#270=CARTESIAN_POINT('Line Origine',(76.,-32.,2.)) ;
#274=CARTESIAN_POINT('Vertex',(76.,-22.,2.)) ;
#277=CARTESIAN_POINT('Line Origine',(76.,-32.,0.)) ;
#281=CARTESIAN_POINT('Vertex',(76.,-22.,0.)) ;
#284=CARTESIAN_POINT('Line Origine',(76.,-22.,1.)) ;
#296=CARTESIAN_POINT('Line Origine',(80.,-22.,2.)) ;
#300=CARTESIAN_POINT('Vertex',(84.,-22.,2.)) ;
#303=CARTESIAN_POINT('Line Origine',(80.,-22.,0.)) ;
#307=CARTESIAN_POINT('Vertex',(84.,-22.,0.)) ;
#310=CARTESIAN_POINT('Line Origine',(84.,-22.,1.)) ;
#322=CARTESIAN_POINT('Line Origine',(80.,22.,2.)) ;
#326=CARTESIAN_POINT('Vertex',(76.,22.,2.)) ;
#328=CARTESIAN_POINT('Vertex',(84.,22.,2.)) ;
#331=CARTESIAN_POINT('Line Origine',(84.,22.,1.)) ;
#335=CARTESIAN_POINT('Vertex',(84.,22.,0.)) ;
#338=CARTESIAN_POINT('Line Origine',(80.,22.,0.)) ;
#342=CARTESIAN_POINT('Vertex',(76.,22.,0.)) ;
#345=CARTESIAN_POINT('Line Origine',(76.,22.,1.)) ;
#357=CARTESIAN_POINT('Line Origine',(76.,32.,2.)) ;
#361=CARTESIAN_POINT('Vertex',(76.,42.,2.)) ;
#364=CARTESIAN_POINT('Line Origine',(76.,32.,0.)) ;
#368=CARTESIAN_POINT('Vertex',(76.,42.,0.)) ;
#371=CARTESIAN_POINT('Line Origine',(76.,42.,1.)) ;
#383=CARTESIAN_POINT('Line Origine',(80.,42.,2.)) ;
#387=CARTESIAN_POINT('Vertex',(84.,42.,2.)) ;
#390=CARTESIAN_POINT('Line Origine',(80.,42.,0.)) ;
#394=CARTESIAN_POINT('Vertex',(84.,42.,0.)) ;
#397=CARTESIAN_POINT('Line Origine',(84.,42.,1.)) ;
#409=CARTESIAN_POINT('Axis2P3D Location',(-78.,-59.,1.)) ;
#414=CARTESIAN_POINT('Axis2P3D Location',(-78.,-59.,2.)) ;
#418=CARTESIAN_POINT('Vertex',(-75.6,-59.,2.)) ;
#420=CARTESIAN_POINT('Vertex',(-80.4,-59.,2.)) ;
#423=CARTESIAN_POINT('Line Origine',(-80.4,-59.,1.)) ;
#427=CARTESIAN_POINT('Vertex',(-80.4,-59.,0.)) ;
#430=CARTESIAN_POINT('Axis2P3D Location',(-78.,-59.,0.)) ;
#434=CARTESIAN_POINT('Vertex',(-75.6,-59.,0.)) ;
#437=CARTESIAN_POINT('Line Origine',(-75.6,-59.,1.)) ;
#449=CARTESIAN_POINT('Axis2P3D Location',(-78.,-59.,2.)) ;
#454=CARTESIAN_POINT('Axis2P3D Location',(-78.,-59.,0.)) ;
#466=CARTESIAN_POINT('Axis2P3D Location',(0.,0.,0.)) ;
#471=CARTESIAN_POINT('Line Origine',(84.,-51.5,0.)) ;
#475=CARTESIAN_POINT('Vertex',(84.,-61.,0.)) ;
#478=CARTESIAN_POINT('Axis2P3D Location',(80.,-61.,0.)) ;
#482=CARTESIAN_POINT('Vertex',(80.,-65.,0.)) ;
#485=CARTESIAN_POINT('Line Origine',(0.,-65.,0.)) ;
#489=CARTESIAN_POINT('Vertex',(-80.,-65.,0.)) ;
#492=CARTESIAN_POINT('Axis2P3D Location',(-80.,-61.,0.)) ;
#496=CARTESIAN_POINT('Vertex',(-84.,-61.,0.)) ;
#499=CARTESIAN_POINT('Line Origine',(-84.,-51.5,0.)) ;
#504=CARTESIAN_POINT('Line Origine',(-84.,0.,0.)) ;
#509=CARTESIAN_POINT('Line Origine',(-84.,51.5,0.)) ;
#513=CARTESIAN_POINT('Vertex',(-84.,61.,0.)) ;
#516=CARTESIAN_POINT('Axis2P3D Location',(-80.,61.,0.)) ;
#520=CARTESIAN_POINT('Vertex',(-80.,65.,0.)) ;
#523=CARTESIAN_POINT('Line Origine',(0.,65.,0.)) ;
#527=CARTESIAN_POINT('Vertex',(80.,65.,0.)) ;
#530=CARTESIAN_POINT('Axis2P3D Location',(80.,61.,0.)) ;
#534=CARTESIAN_POINT('Vertex',(84.,61.,0.)) ;
#537=CARTESIAN_POINT('Line Origine',(84.,51.5,0.)) ;
#542=CARTESIAN_POINT('Line Origine',(84.,0.,0.)) ;
#577=CARTESIAN_POINT('Axis2P3D Location',(78.,59.,0.)) ;
#581=CARTESIAN_POINT('Vertex',(75.,59.,0.)) ;
#583=CARTESIAN_POINT('Vertex',(81.,59.,0.)) ;
#586=CARTESIAN_POINT('Axis2P3D Location',(78.,59.,0.)) ;
#595=CARTESIAN_POINT('Line Origine',(78.,-56.6,0.)) ;
#599=CARTESIAN_POINT('Vertex',(78.85,-56.6,0.)) ;
#601=CARTESIAN_POINT('Vertex',(77.15,-56.6,0.)) ;
#604=CARTESIAN_POINT('Axis2P3D Location',(77.15,-59.,0.)) ;
#608=CARTESIAN_POINT('Vertex',(77.15,-61.4,0.)) ;
#611=CARTESIAN_POINT('Line Origine',(78.,-61.4,0.)) ;
#615=CARTESIAN_POINT('Vertex',(78.85,-61.4,0.)) ;
#618=CARTESIAN_POINT('Axis2P3D Location',(78.85,-59.,0.)) ;
#629=CARTESIAN_POINT('Axis2P3D Location',(-78.,58.15,0.)) ;
#633=CARTESIAN_POINT('Vertex',(-80.4,58.15,0.)) ;
#635=CARTESIAN_POINT('Vertex',(-75.6,58.15,0.)) ;
#638=CARTESIAN_POINT('Line Origine',(-75.6,59.,0.)) ;
#642=CARTESIAN_POINT('Vertex',(-75.6,59.85,0.)) ;
#645=CARTESIAN_POINT('Axis2P3D Location',(-78.,59.85,0.)) ;
#649=CARTESIAN_POINT('Vertex',(-80.4,59.85,0.)) ;
#652=CARTESIAN_POINT('Line Origine',(-80.4,59.,0.)) ;
#664=CARTESIAN_POINT('Axis2P3D Location',(0.,0.,2.)) ;
#669=CARTESIAN_POINT('Line Origine',(84.,0.,2.)) ;
#674=CARTESIAN_POINT('Line Origine',(84.,51.5,2.)) ;
#678=CARTESIAN_POINT('Vertex',(84.,61.,2.)) ;
#681=CARTESIAN_POINT('Axis2P3D Location',(80.,61.,2.)) ;
#685=CARTESIAN_POINT('Vertex',(80.,65.,2.)) ;
#688=CARTESIAN_POINT('Line Origine',(0.,65.,2.)) ;
#692=CARTESIAN_POINT('Vertex',(-80.,65.,2.)) ;
#695=CARTESIAN_POINT('Axis2P3D Location',(-80.,61.,2.)) ;
#699=CARTESIAN_POINT('Vertex',(-84.,61.,2.)) ;
#702=CARTESIAN_POINT('Line Origine',(-84.,51.5,2.)) ;
#707=CARTESIAN_POINT('Line Origine',(-84.,0.,2.)) ;
#712=CARTESIAN_POINT('Line Origine',(-84.,-51.5,2.)) ;
#716=CARTESIAN_POINT('Vertex',(-84.,-61.,2.)) ;
#719=CARTESIAN_POINT('Axis2P3D Location',(-80.,-61.,2.)) ;
#723=CARTESIAN_POINT('Vertex',(-80.,-65.,2.)) ;
#726=CARTESIAN_POINT('Line Origine',(0.,-65.,2.)) ;
#730=CARTESIAN_POINT('Vertex',(80.,-65.,2.)) ;
#733=CARTESIAN_POINT('Axis2P3D Location',(80.,-61.,2.)) ;
#737=CARTESIAN_POINT('Vertex',(84.,-61.,2.)) ;
#740=CARTESIAN_POINT('Line Origine',(84.,-51.5,2.)) ;
#775=CARTESIAN_POINT('Axis2P3D Location',(78.,59.,2.)) ;
#779=CARTESIAN_POINT('Vertex',(81.,59.,2.)) ;
#781=CARTESIAN_POINT('Vertex',(75.,59.,2.)) ;
#784=CARTESIAN_POINT('Axis2P3D Location',(78.,59.,2.)) ;
#793=CARTESIAN_POINT('Axis2P3D Location',(78.85,-59.,2.)) ;
#797=CARTESIAN_POINT('Vertex',(78.85,-61.4,2.)) ;
#799=CARTESIAN_POINT('Vertex',(78.85,-56.6,2.)) ;
#802=CARTESIAN_POINT('Line Origine',(78.,-61.4,2.)) ;
#806=CARTESIAN_POINT('Vertex',(77.15,-61.4,2.)) ;
#809=CARTESIAN_POINT('Axis2P3D Location',(77.15,-59.,2.)) ;
#813=CARTESIAN_POINT('Vertex',(77.15,-56.6,2.)) ;
#816=CARTESIAN_POINT('Line Origine',(78.,-56.6,2.)) ;
#827=CARTESIAN_POINT('Line Origine',(-80.4,59.,2.)) ;
#831=CARTESIAN_POINT('Vertex',(-80.4,59.85,2.)) ;
#833=CARTESIAN_POINT('Vertex',(-80.4,58.15,2.)) ;
#836=CARTESIAN_POINT('Axis2P3D Location',(-78.,59.85,2.)) ;
#840=CARTESIAN_POINT('Vertex',(-75.6,59.85,2.)) ;
#843=CARTESIAN_POINT('Line Origine',(-75.6,59.,2.)) ;
#847=CARTESIAN_POINT('Vertex',(-75.6,58.15,2.)) ;
#850=CARTESIAN_POINT('Axis2P3D Location',(-78.,58.15,2.)) ;
#862=CARTESIAN_POINT('Axis2P3D Location',(84.,-61.,0.)) ;
#874=CARTESIAN_POINT('Line Origine',(84.,61.,1.)) ;
#886=CARTESIAN_POINT('Axis2P3D Location',(80.,61.,1.)) ;
#891=CARTESIAN_POINT('Line Origine',(80.,65.,1.)) ;
#903=CARTESIAN_POINT('Axis2P3D Location',(80.,65.,0.)) ;
#908=CARTESIAN_POINT('Line Origine',(-80.,65.,1.)) ;
#920=CARTESIAN_POINT('Axis2P3D Location',(-80.,61.,1.)) ;
#925=CARTESIAN_POINT('Line Origine',(-84.,61.,1.)) ;
#937=CARTESIAN_POINT('Axis2P3D Location',(-84.,61.,0.)) ;
#956=CARTESIAN_POINT('Line Origine',(-84.,-61.,1.)) ;
#968=CARTESIAN_POINT('Axis2P3D Location',(-80.,-61.,1.)) ;
#973=CARTESIAN_POINT('Line Origine',(-80.,-65.,1.)) ;
#985=CARTESIAN_POINT('Axis2P3D Location',(-80.,-65.,0.)) ;
#990=CARTESIAN_POINT('Line Origine',(80.,-65.,1.)) ;
#1002=CARTESIAN_POINT('Axis2P3D Location',(80.,-61.,1.)) ;
#1007=CARTESIAN_POINT('Line Origine',(84.,-61.,1.)) ;
#1026=CARTESIAN_POINT('Axis2P3D Location',(78.,59.,1.)) ;
#1031=CARTESIAN_POINT('Line Origine',(75.,59.,1.)) ;
#1036=CARTESIAN_POINT('Line Origine',(81.,59.,1.)) ;
#1055=CARTESIAN_POINT('Axis2P3D Location',(78.85,-59.,1.)) ;
#1060=CARTESIAN_POINT('Line Origine',(78.85,-56.6,1.)) ;
#1065=CARTESIAN_POINT('Line Origine',(78.85,-61.4,1.)) ;
#1077=CARTESIAN_POINT('Axis2P3D Location',(78.85,-61.4,0.)) ;
#1082=CARTESIAN_POINT('Line Origine',(77.15,-61.4,1.)) ;
#1094=CARTESIAN_POINT('Axis2P3D Location',(77.15,-59.,1.)) ;
#1099=CARTESIAN_POINT('Line Origine',(77.15,-56.6,1.)) ;
#1111=CARTESIAN_POINT('Axis2P3D Location',(77.15,-56.6,0.)) ;
#1123=CARTESIAN_POINT('Axis2P3D Location',(-80.4,59.85,0.)) ;
#1128=CARTESIAN_POINT('Line Origine',(-80.4,58.15,1.)) ;
#1133=CARTESIAN_POINT('Line Origine',(-80.4,59.85,1.)) ;
#1145=CARTESIAN_POINT('Axis2P3D Location',(-78.,59.85,1.)) ;
#1150=CARTESIAN_POINT('Line Origine',(-75.6,59.85,1.)) ;
#1162=CARTESIAN_POINT('Axis2P3D Location',(-75.6,58.15,0.)) ;
#1167=CARTESIAN_POINT('Line Origine',(-75.6,58.15,1.)) ;
#1179=CARTESIAN_POINT('Axis2P3D Location',(-78.,58.15,1.)) ;
#8=PRODUCT_RELATED_PRODUCT_CATEGORY('part',$,(#5)) ;
#15=UNCERTAINTY_MEASURE_WITH_UNIT(LENGTH_MEASURE(0.005),#12,'distance_accuracy_value','CONFUSED CURVE UNCERTAINTY') ;
#29=STYLED_ITEM(' ',(#28),#21) ;
#28=PRESENTATION_STYLE_ASSIGNMENT((#27)) ;
#27=SURFACE_STYLE_USAGE(.BOTH.,#26) ;
#26=SURFACE_SIDE_STYLE(' ',(#25)) ;
#25=SURFACE_STYLE_FILL_AREA(#24) ;
#24=FILL_AREA_STYLE(' ',(#23)) ;
#23=FILL_AREA_STYLE_COLOUR(' ',#22) ;
#38=VECTOR('Line Direction',#37,1.) ;
#47=VECTOR('Line Direction',#46,1.) ;
#54=VECTOR('Line Direction',#53,1.) ;
#61=VECTOR('Line Direction',#60,1.) ;
#78=VECTOR('Line Direction',#77,1.) ;
#85=VECTOR('Line Direction',#84,1.) ;
#92=VECTOR('Line Direction',#91,1.) ;
#109=VECTOR('Line Direction',#108,1.) ;
#116=VECTOR('Line Direction',#115,1.) ;
#123=VECTOR('Line Direction',#122,1.) ;
#140=VECTOR('Line Direction',#139,1.) ;
#149=VECTOR('Line Direction',#148,1.) ;
#156=VECTOR('Line Direction',#155,1.) ;
#163=VECTOR('Line Direction',#162,1.) ;
#175=VECTOR('Line Direction',#174,1.) ;
#182=VECTOR('Line Direction',#181,1.) ;
#189=VECTOR('Line Direction',#188,1.) ;
#206=VECTOR('Line Direction',#205,1.) ;
#213=VECTOR('Line Direction',#212,1.) ;
#220=VECTOR('Line Direction',#219,1.) ;
#232=VECTOR('Line Direction',#231,1.) ;
#241=VECTOR('Line Direction',#240,1.) ;
#248=VECTOR('Line Direction',#247,1.) ;
#255=VECTOR('Line Direction',#254,1.) ;
#272=VECTOR('Line Direction',#271,1.) ;
#279=VECTOR('Line Direction',#278,1.) ;
#286=VECTOR('Line Direction',#285,1.) ;
#298=VECTOR('Line Direction',#297,1.) ;
#305=VECTOR('Line Direction',#304,1.) ;
#312=VECTOR('Line Direction',#311,1.) ;
#324=VECTOR('Line Direction',#323,1.) ;
#333=VECTOR('Line Direction',#332,1.) ;
#340=VECTOR('Line Direction',#339,1.) ;
#347=VECTOR('Line Direction',#346,1.) ;
#359=VECTOR('Line Direction',#358,1.) ;
#366=VECTOR('Line Direction',#365,1.) ;
#373=VECTOR('Line Direction',#372,1.) ;
#385=VECTOR('Line Direction',#384,1.) ;
#392=VECTOR('Line Direction',#391,1.) ;
#399=VECTOR('Line Direction',#398,1.) ;
#425=VECTOR('Line Direction',#424,1.) ;
#439=VECTOR('Line Direction',#438,1.) ;
#473=VECTOR('Line Direction',#472,1.) ;
#487=VECTOR('Line Direction',#486,1.) ;
#501=VECTOR('Line Direction',#500,1.) ;
#506=VECTOR('Line Direction',#505,1.) ;
#511=VECTOR('Line Direction',#510,1.) ;
#525=VECTOR('Line Direction',#524,1.) ;
#539=VECTOR('Line Direction',#538,1.) ;
#544=VECTOR('Line Direction',#543,1.) ;
#597=VECTOR('Line Direction',#596,1.) ;
#613=VECTOR('Line Direction',#612,1.) ;
#640=VECTOR('Line Direction',#639,1.) ;
#654=VECTOR('Line Direction',#653,1.) ;
#671=VECTOR('Line Direction',#670,1.) ;
#676=VECTOR('Line Direction',#675,1.) ;
#690=VECTOR('Line Direction',#689,1.) ;
#704=VECTOR('Line Direction',#703,1.) ;
#709=VECTOR('Line Direction',#708,1.) ;
#714=VECTOR('Line Direction',#713,1.) ;
#728=VECTOR('Line Direction',#727,1.) ;
#742=VECTOR('Line Direction',#741,1.) ;
#804=VECTOR('Line Direction',#803,1.) ;
#818=VECTOR('Line Direction',#817,1.) ;
#829=VECTOR('Line Direction',#828,1.) ;
#845=VECTOR('Line Direction',#844,1.) ;
#876=VECTOR('Line Direction',#875,1.) ;
#893=VECTOR('Line Direction',#892,1.) ;
#910=VECTOR('Line Direction',#909,1.) ;
#927=VECTOR('Line Direction',#926,1.) ;
#958=VECTOR('Line Direction',#957,1.) ;
#975=VECTOR('Line Direction',#974,1.) ;
#992=VECTOR('Line Direction',#991,1.) ;
#1009=VECTOR('Line Direction',#1008,1.) ;
#1033=VECTOR('Line Direction',#1032,1.) ;
#1038=VECTOR('Line Direction',#1037,1.) ;
#1062=VECTOR('Line Direction',#1061,1.) ;
#1067=VECTOR('Line Direction',#1066,1.) ;
#1084=VECTOR('Line Direction',#1083,1.) ;
#1101=VECTOR('Line Direction',#1100,1.) ;
#1130=VECTOR('Line Direction',#1129,1.) ;
#1135=VECTOR('Line Direction',#1134,1.) ;
#1152=VECTOR('Line Direction',#1151,1.) ;
#1169=VECTOR('Line Direction',#1168,1.) ;
#32=DIRECTION('Axis2P3D Direction',(0.,-1.,0.)) ;
#33=DIRECTION('Axis2P3D XDirection',(1.,0.,0.)) ;
#37=DIRECTION('Vector Direction',(1.,0.,0.)) ;
#46=DIRECTION('Vector Direction',(0.,0.,1.)) ;
#53=DIRECTION('Vector Direction',(1.,0.,0.)) ;
#60=DIRECTION('Vector Direction',(0.,0.,1.)) ;
#72=DIRECTION('Axis2P3D Direction',(1.,0.,0.)) ;
#73=DIRECTION('Axis2P3D XDirection',(0.,1.,0.)) ;
#77=DIRECTION('Vector Direction',(0.,1.,0.)) ;
#84=DIRECTION('Vector Direction',(0.,0.,1.)) ;
#91=DIRECTION('Vector Direction',(0.,1.,0.)) ;
#103=DIRECTION('Axis2P3D Direction',(0.,1.,-0.)) ;
#104=DIRECTION('Axis2P3D XDirection',(-1.,0.,0.)) ;
#108=DIRECTION('Vector Direction',(-1.,0.,0.)) ;
#115=DIRECTION('Vector Direction',(0.,0.,1.)) ;
#122=DIRECTION('Vector Direction',(-1.,0.,0.)) ;
#134=DIRECTION('Axis2P3D Direction',(0.,-1.,0.)) ;
#135=DIRECTION('Axis2P3D XDirection',(1.,0.,0.)) ;
#139=DIRECTION('Vector Direction',(1.,0.,0.)) ;
#148=DIRECTION('Vector Direction',(0.,0.,1.)) ;
#155=DIRECTION('Vector Direction',(1.,0.,0.)) ;
#162=DIRECTION('Vector Direction',(0.,0.,1.)) ;
#174=DIRECTION('Vector Direction',(0.,1.,0.)) ;
#181=DIRECTION('Vector Direction',(0.,0.,1.)) ;
#188=DIRECTION('Vector Direction',(0.,1.,0.)) ;
#200=DIRECTION('Axis2P3D Direction',(0.,1.,-0.)) ;
#201=DIRECTION('Axis2P3D XDirection',(-1.,0.,0.)) ;
#205=DIRECTION('Vector Direction',(-1.,0.,0.)) ;
#212=DIRECTION('Vector Direction',(0.,0.,1.)) ;
#219=DIRECTION('Vector Direction',(-1.,0.,0.)) ;
#231=DIRECTION('Vector Direction',(1.,0.,0.)) ;
#240=DIRECTION('Vector Direction',(0.,0.,1.)) ;
#247=DIRECTION('Vector Direction',(1.,0.,0.)) ;
#254=DIRECTION('Vector Direction',(0.,0.,1.)) ;
#266=DIRECTION('Axis2P3D Direction',(-1.,0.,0.)) ;
#267=DIRECTION('Axis2P3D XDirection',(0.,-1.,0.)) ;
#271=DIRECTION('Vector Direction',(0.,-1.,0.)) ;
#278=DIRECTION('Vector Direction',(0.,-1.,0.)) ;
#285=DIRECTION('Vector Direction',(0.,0.,1.)) ;
#297=DIRECTION('Vector Direction',(-1.,0.,0.)) ;
#304=DIRECTION('Vector Direction',(-1.,0.,0.)) ;
#311=DIRECTION('Vector Direction',(0.,0.,1.)) ;
#323=DIRECTION('Vector Direction',(1.,0.,0.)) ;
#332=DIRECTION('Vector Direction',(0.,0.,1.)) ;
#339=DIRECTION('Vector Direction',(1.,0.,0.)) ;
#346=DIRECTION('Vector Direction',(0.,0.,1.)) ;
#358=DIRECTION('Vector Direction',(0.,-1.,0.)) ;
#365=DIRECTION('Vector Direction',(0.,-1.,0.)) ;
#372=DIRECTION('Vector Direction',(0.,0.,1.)) ;
#384=DIRECTION('Vector Direction',(-1.,0.,0.)) ;
#391=DIRECTION('Vector Direction',(-1.,0.,0.)) ;
#398=DIRECTION('Vector Direction',(0.,0.,1.)) ;
#410=DIRECTION('Axis2P3D Direction',(0.,0.,1.)) ;
#411=DIRECTION('Axis2P3D XDirection',(1.,0.,0.)) ;
#415=DIRECTION('Axis2P3D Direction',(0.,0.,1.)) ;
#424=DIRECTION('Vector Direction',(0.,0.,1.)) ;
#431=DIRECTION('Axis2P3D Direction',(0.,0.,1.)) ;
#438=DIRECTION('Vector Direction',(0.,0.,1.)) ;
#450=DIRECTION('Axis2P3D Direction',(0.,0.,1.)) ;
#455=DIRECTION('Axis2P3D Direction',(0.,0.,1.)) ;
#467=DIRECTION('Axis2P3D Direction',(0.,0.,1.)) ;
#468=DIRECTION('Axis2P3D XDirection',(1.,0.,0.)) ;
#472=DIRECTION('Vector Direction',(0.,1.,0.)) ;
#479=DIRECTION('Axis2P3D Direction',(0.,0.,1.)) ;
#486=DIRECTION('Vector Direction',(1.,0.,0.)) ;
#493=DIRECTION('Axis2P3D Direction',(0.,0.,1.)) ;
#500=DIRECTION('Vector Direction',(0.,-1.,0.)) ;
#505=DIRECTION('Vector Direction',(0.,-1.,0.)) ;
#510=DIRECTION('Vector Direction',(0.,-1.,0.)) ;
#517=DIRECTION('Axis2P3D Direction',(0.,0.,1.)) ;
#524=DIRECTION('Vector Direction',(-1.,0.,0.)) ;
#531=DIRECTION('Axis2P3D Direction',(0.,0.,1.)) ;
#538=DIRECTION('Vector Direction',(0.,1.,0.)) ;
#543=DIRECTION('Vector Direction',(0.,1.,0.)) ;
#578=DIRECTION('Axis2P3D Direction',(0.,0.,1.)) ;
#587=DIRECTION('Axis2P3D Direction',(0.,0.,1.)) ;
#596=DIRECTION('Vector Direction',(1.,0.,0.)) ;
#605=DIRECTION('Axis2P3D Direction',(0.,0.,1.)) ;
#612=DIRECTION('Vector Direction',(-1.,0.,0.)) ;
#619=DIRECTION('Axis2P3D Direction',(0.,0.,1.)) ;
#630=DIRECTION('Axis2P3D Direction',(0.,0.,1.)) ;
#639=DIRECTION('Vector Direction',(0.,1.,0.)) ;
#646=DIRECTION('Axis2P3D Direction',(0.,0.,1.)) ;
#653=DIRECTION('Vector Direction',(0.,-1.,0.)) ;
#665=DIRECTION('Axis2P3D Direction',(0.,0.,1.)) ;
#666=DIRECTION('Axis2P3D XDirection',(1.,0.,0.)) ;
#670=DIRECTION('Vector Direction',(0.,1.,0.)) ;
#675=DIRECTION('Vector Direction',(0.,1.,0.)) ;
#682=DIRECTION('Axis2P3D Direction',(0.,0.,1.)) ;
#689=DIRECTION('Vector Direction',(-1.,0.,0.)) ;
#696=DIRECTION('Axis2P3D Direction',(0.,0.,1.)) ;
#703=DIRECTION('Vector Direction',(0.,-1.,0.)) ;
#708=DIRECTION('Vector Direction',(0.,-1.,0.)) ;
#713=DIRECTION('Vector Direction',(0.,-1.,0.)) ;
#720=DIRECTION('Axis2P3D Direction',(0.,0.,1.)) ;
#727=DIRECTION('Vector Direction',(1.,0.,0.)) ;
#734=DIRECTION('Axis2P3D Direction',(0.,0.,1.)) ;
#741=DIRECTION('Vector Direction',(0.,1.,0.)) ;
#776=DIRECTION('Axis2P3D Direction',(0.,0.,1.)) ;
#785=DIRECTION('Axis2P3D Direction',(0.,0.,1.)) ;
#794=DIRECTION('Axis2P3D Direction',(0.,0.,1.)) ;
#803=DIRECTION('Vector Direction',(-1.,0.,0.)) ;
#810=DIRECTION('Axis2P3D Direction',(0.,0.,1.)) ;
#817=DIRECTION('Vector Direction',(1.,0.,0.)) ;
#828=DIRECTION('Vector Direction',(0.,-1.,0.)) ;
#837=DIRECTION('Axis2P3D Direction',(0.,0.,1.)) ;
#844=DIRECTION('Vector Direction',(0.,1.,0.)) ;
#851=DIRECTION('Axis2P3D Direction',(0.,0.,1.)) ;
#863=DIRECTION('Axis2P3D Direction',(1.,0.,0.)) ;
#864=DIRECTION('Axis2P3D XDirection',(0.,1.,0.)) ;
#875=DIRECTION('Vector Direction',(0.,0.,1.)) ;
#887=DIRECTION('Axis2P3D Direction',(0.,0.,1.)) ;
#888=DIRECTION('Axis2P3D XDirection',(1.,0.,0.)) ;
#892=DIRECTION('Vector Direction',(0.,0.,1.)) ;
#904=DIRECTION('Axis2P3D Direction',(0.,1.,-0.)) ;
#905=DIRECTION('Axis2P3D XDirection',(-1.,0.,0.)) ;
#909=DIRECTION('Vector Direction',(0.,0.,1.)) ;
#921=DIRECTION('Axis2P3D Direction',(0.,0.,1.)) ;
#922=DIRECTION('Axis2P3D XDirection',(6.12323399574E-17,1.,0.)) ;
#926=DIRECTION('Vector Direction',(0.,0.,1.)) ;
#938=DIRECTION('Axis2P3D Direction',(-1.,0.,0.)) ;
#939=DIRECTION('Axis2P3D XDirection',(0.,-1.,0.)) ;
#957=DIRECTION('Vector Direction',(0.,0.,1.)) ;
#969=DIRECTION('Axis2P3D Direction',(0.,0.,1.)) ;
#970=DIRECTION('Axis2P3D XDirection',(-1.,3.67517835872E-15,0.)) ;
#974=DIRECTION('Vector Direction',(0.,0.,1.)) ;
#986=DIRECTION('Axis2P3D Direction',(0.,-1.,0.)) ;
#987=DIRECTION('Axis2P3D XDirection',(1.,0.,0.)) ;
#991=DIRECTION('Vector Direction',(0.,0.,1.)) ;
#1003=DIRECTION('Axis2P3D Direction',(0.,0.,1.)) ;
#1004=DIRECTION('Axis2P3D XDirection',(-1.83697019872E-16,-1.,-0.)) ;
#1008=DIRECTION('Vector Direction',(0.,0.,1.)) ;
#1027=DIRECTION('Axis2P3D Direction',(0.,0.,1.)) ;
#1028=DIRECTION('Axis2P3D XDirection',(1.,0.,0.)) ;
#1032=DIRECTION('Vector Direction',(0.,0.,1.)) ;
#1037=DIRECTION('Vector Direction',(0.,0.,1.)) ;
#1056=DIRECTION('Axis2P3D Direction',(0.,0.,1.)) ;
#1057=DIRECTION('Axis2P3D XDirection',(-1.83697019872E-16,-1.,-0.)) ;
#1061=DIRECTION('Vector Direction',(0.,0.,1.)) ;
#1066=DIRECTION('Vector Direction',(0.,0.,1.)) ;
#1078=DIRECTION('Axis2P3D Direction',(0.,1.,-0.)) ;
#1079=DIRECTION('Axis2P3D XDirection',(-1.,0.,0.)) ;
#1083=DIRECTION('Vector Direction',(0.,0.,1.)) ;
#1095=DIRECTION('Axis2P3D Direction',(0.,0.,1.)) ;
#1096=DIRECTION('Axis2P3D XDirection',(6.12323399574E-17,1.,0.)) ;
#1100=DIRECTION('Vector Direction',(0.,0.,1.)) ;
#1112=DIRECTION('Axis2P3D Direction',(0.,-1.,0.)) ;
#1113=DIRECTION('Axis2P3D XDirection',(1.,0.,0.)) ;
#1124=DIRECTION('Axis2P3D Direction',(-1.,0.,0.)) ;
#1125=DIRECTION('Axis2P3D XDirection',(0.,-1.,0.)) ;
#1129=DIRECTION('Vector Direction',(0.,0.,1.)) ;
#1134=DIRECTION('Vector Direction',(0.,0.,1.)) ;
#1146=DIRECTION('Axis2P3D Direction',(0.,0.,1.)) ;
#1147=DIRECTION('Axis2P3D XDirection',(1.,0.,0.)) ;
#1151=DIRECTION('Vector Direction',(0.,0.,1.)) ;
#1163=DIRECTION('Axis2P3D Direction',(1.,0.,0.)) ;
#1164=DIRECTION('Axis2P3D XDirection',(0.,1.,0.)) ;
#1168=DIRECTION('Vector Direction',(0.,0.,1.)) ;
#1180=DIRECTION('Axis2P3D Direction',(0.,0.,1.)) ;
#1181=DIRECTION('Axis2P3D XDirection',(-1.,2.78699993902E-15,0.)) ;
#1192=SHAPE_REPRESENTATION_RELATIONSHIP(' ',' ',#19,#1191) ;
#18=AXIS2_PLACEMENT_3D(' ',#17,$,$) ;
#34=AXIS2_PLACEMENT_3D('Plane Axis2P3D',#31,#32,#33) ;
#74=AXIS2_PLACEMENT_3D('Plane Axis2P3D',#71,#72,#73) ;
#105=AXIS2_PLACEMENT_3D('Plane Axis2P3D',#102,#103,#104) ;
#136=AXIS2_PLACEMENT_3D('Plane Axis2P3D',#133,#134,#135) ;
#202=AXIS2_PLACEMENT_3D('Plane Axis2P3D',#199,#200,#201) ;
#268=AXIS2_PLACEMENT_3D('Plane Axis2P3D',#265,#266,#267) ;
#412=AXIS2_PLACEMENT_3D('Cylinder Axis2P3D',#409,#410,#411) ;
#416=AXIS2_PLACEMENT_3D('Circle Axis2P3D',#414,#415,$) ;
#432=AXIS2_PLACEMENT_3D('Circle Axis2P3D',#430,#431,$) ;
#451=AXIS2_PLACEMENT_3D('Circle Axis2P3D',#449,#450,$) ;
#456=AXIS2_PLACEMENT_3D('Circle Axis2P3D',#454,#455,$) ;
#469=AXIS2_PLACEMENT_3D('Plane Axis2P3D',#466,#467,#468) ;
#480=AXIS2_PLACEMENT_3D('Circle Axis2P3D',#478,#479,$) ;
#494=AXIS2_PLACEMENT_3D('Circle Axis2P3D',#492,#493,$) ;
#518=AXIS2_PLACEMENT_3D('Circle Axis2P3D',#516,#517,$) ;
#532=AXIS2_PLACEMENT_3D('Circle Axis2P3D',#530,#531,$) ;
#579=AXIS2_PLACEMENT_3D('Circle Axis2P3D',#577,#578,$) ;
#588=AXIS2_PLACEMENT_3D('Circle Axis2P3D',#586,#587,$) ;
#606=AXIS2_PLACEMENT_3D('Circle Axis2P3D',#604,#605,$) ;
#620=AXIS2_PLACEMENT_3D('Circle Axis2P3D',#618,#619,$) ;
#631=AXIS2_PLACEMENT_3D('Circle Axis2P3D',#629,#630,$) ;
#647=AXIS2_PLACEMENT_3D('Circle Axis2P3D',#645,#646,$) ;
#667=AXIS2_PLACEMENT_3D('Plane Axis2P3D',#664,#665,#666) ;
#683=AXIS2_PLACEMENT_3D('Circle Axis2P3D',#681,#682,$) ;
#697=AXIS2_PLACEMENT_3D('Circle Axis2P3D',#695,#696,$) ;
#721=AXIS2_PLACEMENT_3D('Circle Axis2P3D',#719,#720,$) ;
#735=AXIS2_PLACEMENT_3D('Circle Axis2P3D',#733,#734,$) ;
#777=AXIS2_PLACEMENT_3D('Circle Axis2P3D',#775,#776,$) ;
#786=AXIS2_PLACEMENT_3D('Circle Axis2P3D',#784,#785,$) ;
#795=AXIS2_PLACEMENT_3D('Circle Axis2P3D',#793,#794,$) ;
#811=AXIS2_PLACEMENT_3D('Circle Axis2P3D',#809,#810,$) ;
#838=AXIS2_PLACEMENT_3D('Circle Axis2P3D',#836,#837,$) ;
#852=AXIS2_PLACEMENT_3D('Circle Axis2P3D',#850,#851,$) ;
#865=AXIS2_PLACEMENT_3D('Plane Axis2P3D',#862,#863,#864) ;
#889=AXIS2_PLACEMENT_3D('Cylinder Axis2P3D',#886,#887,#888) ;
#906=AXIS2_PLACEMENT_3D('Plane Axis2P3D',#903,#904,#905) ;
#923=AXIS2_PLACEMENT_3D('Cylinder Axis2P3D',#920,#921,#922) ;
#940=AXIS2_PLACEMENT_3D('Plane Axis2P3D',#937,#938,#939) ;
#971=AXIS2_PLACEMENT_3D('Cylinder Axis2P3D',#968,#969,#970) ;
#988=AXIS2_PLACEMENT_3D('Plane Axis2P3D',#985,#986,#987) ;
#1005=AXIS2_PLACEMENT_3D('Cylinder Axis2P3D',#1002,#1003,#1004) ;
#1029=AXIS2_PLACEMENT_3D('Cylinder Axis2P3D',#1026,#1027,#1028) ;
#1058=AXIS2_PLACEMENT_3D('Cylinder Axis2P3D',#1055,#1056,#1057) ;
#1080=AXIS2_PLACEMENT_3D('Plane Axis2P3D',#1077,#1078,#1079) ;
#1097=AXIS2_PLACEMENT_3D('Cylinder Axis2P3D',#1094,#1095,#1096) ;
#1114=AXIS2_PLACEMENT_3D('Plane Axis2P3D',#1111,#1112,#1113) ;
#1126=AXIS2_PLACEMENT_3D('Plane Axis2P3D',#1123,#1124,#1125) ;
#1148=AXIS2_PLACEMENT_3D('Cylinder Axis2P3D',#1145,#1146,#1147) ;
#1165=AXIS2_PLACEMENT_3D('Plane Axis2P3D',#1162,#1163,#1164) ;
#1182=AXIS2_PLACEMENT_3D('Cylinder Axis2P3D',#1179,#1180,#1181) ;
#39=LINE('Line',#36,#38) ;
#48=LINE('Line',#45,#47) ;
#55=LINE('Line',#52,#54) ;
#62=LINE('Line',#59,#61) ;
#79=LINE('Line',#76,#78) ;
#86=LINE('Line',#83,#85) ;
#93=LINE('Line',#90,#92) ;
#110=LINE('Line',#107,#109) ;
#117=LINE('Line',#114,#116) ;
#124=LINE('Line',#121,#123) ;
#141=LINE('Line',#138,#140) ;
#150=LINE('Line',#147,#149) ;
#157=LINE('Line',#154,#156) ;
#164=LINE('Line',#161,#163) ;
#176=LINE('Line',#173,#175) ;
#183=LINE('Line',#180,#182) ;
#190=LINE('Line',#187,#189) ;
#207=LINE('Line',#204,#206) ;
#214=LINE('Line',#211,#213) ;
#221=LINE('Line',#218,#220) ;
#233=LINE('Line',#230,#232) ;
#242=LINE('Line',#239,#241) ;
#249=LINE('Line',#246,#248) ;
#256=LINE('Line',#253,#255) ;
#273=LINE('Line',#270,#272) ;
#280=LINE('Line',#277,#279) ;
#287=LINE('Line',#284,#286) ;
#299=LINE('Line',#296,#298) ;
#306=LINE('Line',#303,#305) ;
#313=LINE('Line',#310,#312) ;
#325=LINE('Line',#322,#324) ;
#334=LINE('Line',#331,#333) ;
#341=LINE('Line',#338,#340) ;
#348=LINE('Line',#345,#347) ;
#360=LINE('Line',#357,#359) ;
#367=LINE('Line',#364,#366) ;
#374=LINE('Line',#371,#373) ;
#386=LINE('Line',#383,#385) ;
#393=LINE('Line',#390,#392) ;
#400=LINE('Line',#397,#399) ;
#426=LINE('Line',#423,#425) ;
#440=LINE('Line',#437,#439) ;
#474=LINE('Line',#471,#473) ;
#488=LINE('Line',#485,#487) ;
#502=LINE('Line',#499,#501) ;
#507=LINE('Line',#504,#506) ;
#512=LINE('Line',#509,#511) ;
#526=LINE('Line',#523,#525) ;
#540=LINE('Line',#537,#539) ;
#545=LINE('Line',#542,#544) ;
#598=LINE('Line',#595,#597) ;
#614=LINE('Line',#611,#613) ;
#641=LINE('Line',#638,#640) ;
#655=LINE('Line',#652,#654) ;
#672=LINE('Line',#669,#671) ;
#677=LINE('Line',#674,#676) ;
#691=LINE('Line',#688,#690) ;
#705=LINE('Line',#702,#704) ;
#710=LINE('Line',#707,#709) ;
#715=LINE('Line',#712,#714) ;
#729=LINE('Line',#726,#728) ;
#743=LINE('Line',#740,#742) ;
#805=LINE('Line',#802,#804) ;
#819=LINE('Line',#816,#818) ;
#830=LINE('Line',#827,#829) ;
#846=LINE('Line',#843,#845) ;
#877=LINE('Line',#874,#876) ;
#894=LINE('Line',#891,#893) ;
#911=LINE('Line',#908,#910) ;
#928=LINE('Line',#925,#927) ;
#959=LINE('Line',#956,#958) ;
#976=LINE('Line',#973,#975) ;
#993=LINE('Line',#990,#992) ;
#1010=LINE('Line',#1007,#1009) ;
#1034=LINE('Line',#1031,#1033) ;
#1039=LINE('Line',#1036,#1038) ;
#1063=LINE('Line',#1060,#1062) ;
#1068=LINE('Line',#1065,#1067) ;
#1085=LINE('Line',#1082,#1084) ;
#1102=LINE('Line',#1099,#1101) ;
#1131=LINE('Line',#1128,#1130) ;
#1136=LINE('Line',#1133,#1135) ;
#1153=LINE('Line',#1150,#1152) ;
#1170=LINE('Line',#1167,#1169) ;
#417=CIRCLE('generated circle',#416,2.4) ;
#433=CIRCLE('generated circle',#432,2.4) ;
#452=CIRCLE('generated circle',#451,2.4) ;
#457=CIRCLE('generated circle',#456,2.4) ;
#481=CIRCLE('generated circle',#480,4.) ;
#495=CIRCLE('generated circle',#494,4.) ;
#519=CIRCLE('generated circle',#518,4.) ;
#533=CIRCLE('generated circle',#532,4.) ;
#580=CIRCLE('generated circle',#579,3.) ;
#589=CIRCLE('generated circle',#588,3.) ;
#607=CIRCLE('generated circle',#606,2.4) ;
#621=CIRCLE('generated circle',#620,2.4) ;
#632=CIRCLE('generated circle',#631,2.4) ;
#648=CIRCLE('generated circle',#647,2.4) ;
#684=CIRCLE('generated circle',#683,4.) ;
#698=CIRCLE('generated circle',#697,4.) ;
#722=CIRCLE('generated circle',#721,4.) ;
#736=CIRCLE('generated circle',#735,4.) ;
#778=CIRCLE('generated circle',#777,3.) ;
#787=CIRCLE('generated circle',#786,3.) ;
#796=CIRCLE('generated circle',#795,2.4) ;
#812=CIRCLE('generated circle',#811,2.4) ;
#839=CIRCLE('generated circle',#838,2.4) ;
#853=CIRCLE('generated circle',#852,2.4) ;
#35=PLANE('',#34) ;
#75=PLANE('',#74) ;
#106=PLANE('',#105) ;
#137=PLANE('',#136) ;
#203=PLANE('',#202) ;
#269=PLANE('',#268) ;
#470=PLANE('',#469) ;
#668=PLANE('',#667) ;
#866=PLANE('',#865) ;
#907=PLANE('',#906) ;
#941=PLANE('',#940) ;
#989=PLANE('',#988) ;
#1081=PLANE('',#1080) ;
#1115=PLANE('',#1114) ;
#1127=PLANE('',#1126) ;
#1166=PLANE('',#1165) ;
#413=CYLINDRICAL_SURFACE('generated cylinder',#412,2.4) ;
#890=CYLINDRICAL_SURFACE('generated cylinder',#889,4.) ;
#924=CYLINDRICAL_SURFACE('generated cylinder',#923,4.) ;
#972=CYLINDRICAL_SURFACE('generated cylinder',#971,4.) ;
#1006=CYLINDRICAL_SURFACE('generated cylinder',#1005,4.) ;
#1030=CYLINDRICAL_SURFACE('generated cylinder',#1029,3.) ;
#1059=CYLINDRICAL_SURFACE('generated cylinder',#1058,2.4) ;
#1098=CYLINDRICAL_SURFACE('generated cylinder',#1097,2.4) ;
#1149=CYLINDRICAL_SURFACE('generated cylinder',#1148,2.4) ;
#1183=CYLINDRICAL_SURFACE('generated cylinder',#1182,2.4) ;
#576=FACE_BOUND('',#573,.T.) ;
#594=FACE_BOUND('',#591,.T.) ;
#628=FACE_BOUND('',#623,.T.) ;
#662=FACE_BOUND('',#657,.T.) ;
#774=FACE_BOUND('',#771,.T.) ;
#792=FACE_BOUND('',#789,.T.) ;
#826=FACE_BOUND('',#821,.T.) ;
#860=FACE_BOUND('',#855,.T.) ;
#44=EDGE_CURVE('',#41,#43,#39,.T.) ;
#51=EDGE_CURVE('',#50,#43,#48,.T.) ;
#58=EDGE_CURVE('',#57,#50,#55,.T.) ;
#63=EDGE_CURVE('',#57,#41,#62,.T.) ;
#82=EDGE_CURVE('',#43,#81,#79,.T.) ;
#89=EDGE_CURVE('',#88,#81,#86,.T.) ;
#94=EDGE_CURVE('',#50,#88,#93,.T.) ;
#113=EDGE_CURVE('',#81,#112,#110,.T.) ;
#120=EDGE_CURVE('',#119,#112,#117,.T.) ;
#125=EDGE_CURVE('',#88,#119,#124,.T.) ;
#146=EDGE_CURVE('',#143,#145,#141,.T.) ;
#153=EDGE_CURVE('',#152,#145,#150,.T.) ;
#160=EDGE_CURVE('',#159,#152,#157,.T.) ;
#165=EDGE_CURVE('',#159,#143,#164,.T.) ;
#179=EDGE_CURVE('',#145,#178,#176,.T.) ;
#186=EDGE_CURVE('',#185,#178,#183,.T.) ;
#191=EDGE_CURVE('',#152,#185,#190,.T.) ;
#210=EDGE_CURVE('',#178,#209,#207,.T.) ;
#217=EDGE_CURVE('',#216,#209,#214,.T.) ;
#222=EDGE_CURVE('',#185,#216,#221,.T.) ;
#238=EDGE_CURVE('',#235,#237,#233,.T.) ;
#245=EDGE_CURVE('',#244,#237,#242,.T.) ;
#252=EDGE_CURVE('',#251,#244,#249,.T.) ;
#257=EDGE_CURVE('',#251,#235,#256,.T.) ;
#276=EDGE_CURVE('',#275,#235,#273,.T.) ;
#283=EDGE_CURVE('',#282,#251,#280,.T.) ;
#288=EDGE_CURVE('',#282,#275,#287,.T.) ;
#302=EDGE_CURVE('',#301,#275,#299,.T.) ;
#309=EDGE_CURVE('',#308,#282,#306,.T.) ;
#314=EDGE_CURVE('',#308,#301,#313,.T.) ;
#330=EDGE_CURVE('',#327,#329,#325,.T.) ;
#337=EDGE_CURVE('',#336,#329,#334,.T.) ;
#344=EDGE_CURVE('',#343,#336,#341,.T.) ;
#349=EDGE_CURVE('',#343,#327,#348,.T.) ;
#363=EDGE_CURVE('',#362,#327,#360,.T.) ;
#370=EDGE_CURVE('',#369,#343,#367,.T.) ;
#375=EDGE_CURVE('',#369,#362,#374,.T.) ;
#389=EDGE_CURVE('',#388,#362,#386,.T.) ;
#396=EDGE_CURVE('',#395,#369,#393,.T.) ;
#401=EDGE_CURVE('',#395,#388,#400,.T.) ;
#422=EDGE_CURVE('',#419,#421,#417,.T.) ;
#429=EDGE_CURVE('',#428,#421,#426,.T.) ;
#436=EDGE_CURVE('',#435,#428,#433,.T.) ;
#441=EDGE_CURVE('',#435,#419,#440,.T.) ;
#453=EDGE_CURVE('',#421,#419,#452,.T.) ;
#458=EDGE_CURVE('',#428,#435,#457,.T.) ;
#477=EDGE_CURVE('',#476,#244,#474,.T.) ;
#484=EDGE_CURVE('',#483,#476,#481,.T.) ;
#491=EDGE_CURVE('',#490,#483,#488,.T.) ;
#498=EDGE_CURVE('',#497,#490,#495,.T.) ;
#503=EDGE_CURVE('',#57,#497,#502,.T.) ;
#508=EDGE_CURVE('',#159,#119,#507,.T.) ;
#515=EDGE_CURVE('',#514,#216,#512,.T.) ;
#522=EDGE_CURVE('',#521,#514,#519,.T.) ;
#529=EDGE_CURVE('',#528,#521,#526,.T.) ;
#536=EDGE_CURVE('',#535,#528,#533,.T.) ;
#541=EDGE_CURVE('',#395,#535,#540,.T.) ;
#546=EDGE_CURVE('',#308,#336,#545,.T.) ;
#585=EDGE_CURVE('',#582,#584,#580,.T.) ;
#590=EDGE_CURVE('',#584,#582,#589,.T.) ;
#603=EDGE_CURVE('',#600,#602,#598,.F.) ;
#610=EDGE_CURVE('',#602,#609,#607,.T.) ;
#617=EDGE_CURVE('',#609,#616,#614,.F.) ;
#622=EDGE_CURVE('',#616,#600,#621,.T.) ;
#637=EDGE_CURVE('',#634,#636,#632,.T.) ;
#644=EDGE_CURVE('',#636,#643,#641,.T.) ;
#651=EDGE_CURVE('',#643,#650,#648,.T.) ;
#656=EDGE_CURVE('',#650,#634,#655,.T.) ;
#673=EDGE_CURVE('',#301,#329,#672,.T.) ;
#680=EDGE_CURVE('',#388,#679,#677,.T.) ;
#687=EDGE_CURVE('',#679,#686,#684,.T.) ;
#694=EDGE_CURVE('',#686,#693,#691,.T.) ;
#701=EDGE_CURVE('',#693,#700,#698,.T.) ;
#706=EDGE_CURVE('',#700,#209,#705,.T.) ;
#711=EDGE_CURVE('',#143,#112,#710,.T.) ;
#718=EDGE_CURVE('',#41,#717,#715,.T.) ;
#725=EDGE_CURVE('',#717,#724,#722,.T.) ;
#732=EDGE_CURVE('',#724,#731,#729,.T.) ;
#739=EDGE_CURVE('',#731,#738,#736,.T.) ;
#744=EDGE_CURVE('',#738,#237,#743,.T.) ;
#783=EDGE_CURVE('',#780,#782,#778,.T.) ;
#788=EDGE_CURVE('',#782,#780,#787,.T.) ;
#801=EDGE_CURVE('',#798,#800,#796,.T.) ;
#808=EDGE_CURVE('',#807,#798,#805,.F.) ;
#815=EDGE_CURVE('',#814,#807,#812,.T.) ;
#820=EDGE_CURVE('',#800,#814,#819,.F.) ;
#835=EDGE_CURVE('',#832,#834,#830,.T.) ;
#842=EDGE_CURVE('',#841,#832,#839,.T.) ;
#849=EDGE_CURVE('',#848,#841,#846,.T.) ;
#854=EDGE_CURVE('',#834,#848,#853,.T.) ;
#878=EDGE_CURVE('',#535,#679,#877,.T.) ;
#895=EDGE_CURVE('',#528,#686,#894,.T.) ;
#912=EDGE_CURVE('',#521,#693,#911,.T.) ;
#929=EDGE_CURVE('',#514,#700,#928,.T.) ;
#960=EDGE_CURVE('',#497,#717,#959,.T.) ;
#977=EDGE_CURVE('',#490,#724,#976,.T.) ;
#994=EDGE_CURVE('',#483,#731,#993,.T.) ;
#1011=EDGE_CURVE('',#476,#738,#1010,.T.) ;
#1035=EDGE_CURVE('',#582,#782,#1034,.T.) ;
#1040=EDGE_CURVE('',#584,#780,#1039,.T.) ;
#1064=EDGE_CURVE('',#600,#800,#1063,.T.) ;
#1069=EDGE_CURVE('',#616,#798,#1068,.T.) ;
#1086=EDGE_CURVE('',#609,#807,#1085,.T.) ;
#1103=EDGE_CURVE('',#602,#814,#1102,.T.) ;
#1132=EDGE_CURVE('',#634,#834,#1131,.T.) ;
#1137=EDGE_CURVE('',#650,#832,#1136,.T.) ;
#1154=EDGE_CURVE('',#643,#841,#1153,.T.) ;
#1171=EDGE_CURVE('',#636,#848,#1170,.T.) ;
#30=CLOSED_SHELL('Closed Shell',(#70,#101,#132,#172,#198,#229,#264,#295,#321,#356,#382,#408,#448,#465,#663,#861,#873,#885,#902,#919,#936,#948,#955,#967,#984,#1001,#1018,#1025,#1047,#1054,#1076,#1093,#1110,#1122,#1144,#1161,#1178,#1190)) ;
#65=ORIENTED_EDGE('',*,*,#44,.T.) ;
#66=ORIENTED_EDGE('',*,*,#51,.F.) ;
#67=ORIENTED_EDGE('',*,*,#58,.F.) ;
#68=ORIENTED_EDGE('',*,*,#63,.T.) ;
#96=ORIENTED_EDGE('',*,*,#82,.T.) ;
#97=ORIENTED_EDGE('',*,*,#89,.F.) ;
#98=ORIENTED_EDGE('',*,*,#94,.F.) ;
#99=ORIENTED_EDGE('',*,*,#51,.T.) ;
#127=ORIENTED_EDGE('',*,*,#113,.T.) ;
#128=ORIENTED_EDGE('',*,*,#120,.F.) ;
#129=ORIENTED_EDGE('',*,*,#125,.F.) ;
#130=ORIENTED_EDGE('',*,*,#89,.T.) ;
#167=ORIENTED_EDGE('',*,*,#146,.T.) ;
#168=ORIENTED_EDGE('',*,*,#153,.F.) ;
#169=ORIENTED_EDGE('',*,*,#160,.F.) ;
#170=ORIENTED_EDGE('',*,*,#165,.T.) ;
#193=ORIENTED_EDGE('',*,*,#179,.T.) ;
#194=ORIENTED_EDGE('',*,*,#186,.F.) ;
#195=ORIENTED_EDGE('',*,*,#191,.F.) ;
#196=ORIENTED_EDGE('',*,*,#153,.T.) ;
#224=ORIENTED_EDGE('',*,*,#210,.T.) ;
#225=ORIENTED_EDGE('',*,*,#217,.F.) ;
#226=ORIENTED_EDGE('',*,*,#222,.F.) ;
#227=ORIENTED_EDGE('',*,*,#186,.T.) ;
#259=ORIENTED_EDGE('',*,*,#238,.T.) ;
#260=ORIENTED_EDGE('',*,*,#245,.F.) ;
#261=ORIENTED_EDGE('',*,*,#252,.F.) ;
#262=ORIENTED_EDGE('',*,*,#257,.T.) ;
#290=ORIENTED_EDGE('',*,*,#276,.T.) ;
#291=ORIENTED_EDGE('',*,*,#257,.F.) ;
#292=ORIENTED_EDGE('',*,*,#283,.F.) ;
#293=ORIENTED_EDGE('',*,*,#288,.T.) ;
#316=ORIENTED_EDGE('',*,*,#302,.T.) ;
#317=ORIENTED_EDGE('',*,*,#288,.F.) ;
#318=ORIENTED_EDGE('',*,*,#309,.F.) ;
#319=ORIENTED_EDGE('',*,*,#314,.T.) ;
#351=ORIENTED_EDGE('',*,*,#330,.T.) ;
#352=ORIENTED_EDGE('',*,*,#337,.F.) ;
#353=ORIENTED_EDGE('',*,*,#344,.F.) ;
#354=ORIENTED_EDGE('',*,*,#349,.T.) ;
#377=ORIENTED_EDGE('',*,*,#363,.T.) ;
#378=ORIENTED_EDGE('',*,*,#349,.F.) ;
#379=ORIENTED_EDGE('',*,*,#370,.F.) ;
#380=ORIENTED_EDGE('',*,*,#375,.T.) ;
#403=ORIENTED_EDGE('',*,*,#389,.T.) ;
#404=ORIENTED_EDGE('',*,*,#375,.F.) ;
#405=ORIENTED_EDGE('',*,*,#396,.F.) ;
#406=ORIENTED_EDGE('',*,*,#401,.T.) ;
#443=ORIENTED_EDGE('',*,*,#422,.T.) ;
#444=ORIENTED_EDGE('',*,*,#429,.F.) ;
#445=ORIENTED_EDGE('',*,*,#436,.F.) ;
#446=ORIENTED_EDGE('',*,*,#441,.T.) ;
#460=ORIENTED_EDGE('',*,*,#453,.T.) ;
#461=ORIENTED_EDGE('',*,*,#441,.F.) ;
#462=ORIENTED_EDGE('',*,*,#458,.F.) ;
#463=ORIENTED_EDGE('',*,*,#429,.T.) ;
#548=ORIENTED_EDGE('',*,*,#309,.T.) ;
#549=ORIENTED_EDGE('',*,*,#283,.T.) ;
#550=ORIENTED_EDGE('',*,*,#252,.T.) ;
#551=ORIENTED_EDGE('',*,*,#477,.F.) ;
#552=ORIENTED_EDGE('',*,*,#484,.F.) ;
#553=ORIENTED_EDGE('',*,*,#491,.F.) ;
#554=ORIENTED_EDGE('',*,*,#498,.F.) ;
#555=ORIENTED_EDGE('',*,*,#503,.F.) ;
#556=ORIENTED_EDGE('',*,*,#58,.T.) ;
#557=ORIENTED_EDGE('',*,*,#94,.T.) ;
#558=ORIENTED_EDGE('',*,*,#125,.T.) ;
#559=ORIENTED_EDGE('',*,*,#508,.F.) ;
#560=ORIENTED_EDGE('',*,*,#160,.T.) ;
#561=ORIENTED_EDGE('',*,*,#191,.T.) ;
#562=ORIENTED_EDGE('',*,*,#222,.T.) ;
#563=ORIENTED_EDGE('',*,*,#515,.F.) ;
#564=ORIENTED_EDGE('',*,*,#522,.F.) ;
#565=ORIENTED_EDGE('',*,*,#529,.F.) ;
#566=ORIENTED_EDGE('',*,*,#536,.F.) ;
#567=ORIENTED_EDGE('',*,*,#541,.F.) ;
#568=ORIENTED_EDGE('',*,*,#396,.T.) ;
#569=ORIENTED_EDGE('',*,*,#370,.T.) ;
#570=ORIENTED_EDGE('',*,*,#344,.T.) ;
#571=ORIENTED_EDGE('',*,*,#546,.F.) ;
#574=ORIENTED_EDGE('',*,*,#458,.T.) ;
#575=ORIENTED_EDGE('',*,*,#436,.T.) ;
#592=ORIENTED_EDGE('',*,*,#585,.T.) ;
#593=ORIENTED_EDGE('',*,*,#590,.T.) ;
#624=ORIENTED_EDGE('',*,*,#603,.T.) ;
#625=ORIENTED_EDGE('',*,*,#610,.T.) ;
#626=ORIENTED_EDGE('',*,*,#617,.T.) ;
#627=ORIENTED_EDGE('',*,*,#622,.T.) ;
#658=ORIENTED_EDGE('',*,*,#637,.T.) ;
#659=ORIENTED_EDGE('',*,*,#644,.T.) ;
#660=ORIENTED_EDGE('',*,*,#651,.T.) ;
#661=ORIENTED_EDGE('',*,*,#656,.T.) ;
#746=ORIENTED_EDGE('',*,*,#673,.T.) ;
#747=ORIENTED_EDGE('',*,*,#330,.F.) ;
#748=ORIENTED_EDGE('',*,*,#363,.F.) ;
#749=ORIENTED_EDGE('',*,*,#389,.F.) ;
#750=ORIENTED_EDGE('',*,*,#680,.T.) ;
#751=ORIENTED_EDGE('',*,*,#687,.T.) ;
#752=ORIENTED_EDGE('',*,*,#694,.T.) ;
#753=ORIENTED_EDGE('',*,*,#701,.T.) ;
#754=ORIENTED_EDGE('',*,*,#706,.T.) ;
#755=ORIENTED_EDGE('',*,*,#210,.F.) ;
#756=ORIENTED_EDGE('',*,*,#179,.F.) ;
#757=ORIENTED_EDGE('',*,*,#146,.F.) ;
#758=ORIENTED_EDGE('',*,*,#711,.T.) ;
#759=ORIENTED_EDGE('',*,*,#113,.F.) ;
#760=ORIENTED_EDGE('',*,*,#82,.F.) ;
#761=ORIENTED_EDGE('',*,*,#44,.F.) ;
#762=ORIENTED_EDGE('',*,*,#718,.T.) ;
#763=ORIENTED_EDGE('',*,*,#725,.T.) ;
#764=ORIENTED_EDGE('',*,*,#732,.T.) ;
#765=ORIENTED_EDGE('',*,*,#739,.T.) ;
#766=ORIENTED_EDGE('',*,*,#744,.T.) ;
#767=ORIENTED_EDGE('',*,*,#238,.F.) ;
#768=ORIENTED_EDGE('',*,*,#276,.F.) ;
#769=ORIENTED_EDGE('',*,*,#302,.F.) ;
#772=ORIENTED_EDGE('',*,*,#422,.F.) ;
#773=ORIENTED_EDGE('',*,*,#453,.F.) ;
#790=ORIENTED_EDGE('',*,*,#783,.F.) ;
#791=ORIENTED_EDGE('',*,*,#788,.F.) ;
#822=ORIENTED_EDGE('',*,*,#801,.F.) ;
#823=ORIENTED_EDGE('',*,*,#808,.F.) ;
#824=ORIENTED_EDGE('',*,*,#815,.F.) ;
#825=ORIENTED_EDGE('',*,*,#820,.F.) ;
#856=ORIENTED_EDGE('',*,*,#835,.F.) ;
#857=ORIENTED_EDGE('',*,*,#842,.F.) ;
#858=ORIENTED_EDGE('',*,*,#849,.F.) ;
#859=ORIENTED_EDGE('',*,*,#854,.F.) ;
#868=ORIENTED_EDGE('',*,*,#546,.T.) ;
#869=ORIENTED_EDGE('',*,*,#337,.T.) ;
#870=ORIENTED_EDGE('',*,*,#673,.F.) ;
#871=ORIENTED_EDGE('',*,*,#314,.F.) ;
#880=ORIENTED_EDGE('',*,*,#541,.T.) ;
#881=ORIENTED_EDGE('',*,*,#878,.T.) ;
#882=ORIENTED_EDGE('',*,*,#680,.F.) ;
#883=ORIENTED_EDGE('',*,*,#401,.F.) ;
#897=ORIENTED_EDGE('',*,*,#878,.F.) ;
#898=ORIENTED_EDGE('',*,*,#536,.T.) ;
#899=ORIENTED_EDGE('',*,*,#895,.T.) ;
#900=ORIENTED_EDGE('',*,*,#687,.F.) ;
#914=ORIENTED_EDGE('',*,*,#895,.F.) ;
#915=ORIENTED_EDGE('',*,*,#529,.T.) ;
#916=ORIENTED_EDGE('',*,*,#912,.T.) ;
#917=ORIENTED_EDGE('',*,*,#694,.F.) ;
#931=ORIENTED_EDGE('',*,*,#912,.F.) ;
#932=ORIENTED_EDGE('',*,*,#522,.T.) ;
#933=ORIENTED_EDGE('',*,*,#929,.T.) ;
#934=ORIENTED_EDGE('',*,*,#701,.F.) ;
#943=ORIENTED_EDGE('',*,*,#706,.F.) ;
#944=ORIENTED_EDGE('',*,*,#929,.F.) ;
#945=ORIENTED_EDGE('',*,*,#515,.T.) ;
#946=ORIENTED_EDGE('',*,*,#217,.T.) ;
#950=ORIENTED_EDGE('',*,*,#508,.T.) ;
#951=ORIENTED_EDGE('',*,*,#120,.T.) ;
#952=ORIENTED_EDGE('',*,*,#711,.F.) ;
#953=ORIENTED_EDGE('',*,*,#165,.F.) ;
#962=ORIENTED_EDGE('',*,*,#503,.T.) ;
#963=ORIENTED_EDGE('',*,*,#960,.T.) ;
#964=ORIENTED_EDGE('',*,*,#718,.F.) ;
#965=ORIENTED_EDGE('',*,*,#63,.F.) ;
#979=ORIENTED_EDGE('',*,*,#960,.F.) ;
#980=ORIENTED_EDGE('',*,*,#498,.T.) ;
#981=ORIENTED_EDGE('',*,*,#977,.T.) ;
#982=ORIENTED_EDGE('',*,*,#725,.F.) ;
#996=ORIENTED_EDGE('',*,*,#977,.F.) ;
#997=ORIENTED_EDGE('',*,*,#491,.T.) ;
#998=ORIENTED_EDGE('',*,*,#994,.T.) ;
#999=ORIENTED_EDGE('',*,*,#732,.F.) ;
#1013=ORIENTED_EDGE('',*,*,#994,.F.) ;
#1014=ORIENTED_EDGE('',*,*,#484,.T.) ;
#1015=ORIENTED_EDGE('',*,*,#1011,.T.) ;
#1016=ORIENTED_EDGE('',*,*,#739,.F.) ;
#1020=ORIENTED_EDGE('',*,*,#744,.F.) ;
#1021=ORIENTED_EDGE('',*,*,#1011,.F.) ;
#1022=ORIENTED_EDGE('',*,*,#477,.T.) ;
#1023=ORIENTED_EDGE('',*,*,#245,.T.) ;
#1042=ORIENTED_EDGE('',*,*,#783,.T.) ;
#1043=ORIENTED_EDGE('',*,*,#1035,.F.) ;
#1044=ORIENTED_EDGE('',*,*,#590,.F.) ;
#1045=ORIENTED_EDGE('',*,*,#1040,.T.) ;
#1049=ORIENTED_EDGE('',*,*,#788,.T.) ;
#1050=ORIENTED_EDGE('',*,*,#1040,.F.) ;
#1051=ORIENTED_EDGE('',*,*,#585,.F.) ;
#1052=ORIENTED_EDGE('',*,*,#1035,.T.) ;
#1071=ORIENTED_EDGE('',*,*,#801,.T.) ;
#1072=ORIENTED_EDGE('',*,*,#1064,.F.) ;
#1073=ORIENTED_EDGE('',*,*,#622,.F.) ;
#1074=ORIENTED_EDGE('',*,*,#1069,.T.) ;
#1088=ORIENTED_EDGE('',*,*,#808,.T.) ;
#1089=ORIENTED_EDGE('',*,*,#1069,.F.) ;
#1090=ORIENTED_EDGE('',*,*,#617,.F.) ;
#1091=ORIENTED_EDGE('',*,*,#1086,.T.) ;
#1105=ORIENTED_EDGE('',*,*,#815,.T.) ;
#1106=ORIENTED_EDGE('',*,*,#1086,.F.) ;
#1107=ORIENTED_EDGE('',*,*,#610,.F.) ;
#1108=ORIENTED_EDGE('',*,*,#1103,.T.) ;
#1117=ORIENTED_EDGE('',*,*,#820,.T.) ;
#1118=ORIENTED_EDGE('',*,*,#1103,.F.) ;
#1119=ORIENTED_EDGE('',*,*,#603,.F.) ;
#1120=ORIENTED_EDGE('',*,*,#1064,.T.) ;
#1139=ORIENTED_EDGE('',*,*,#835,.T.) ;
#1140=ORIENTED_EDGE('',*,*,#1132,.F.) ;
#1141=ORIENTED_EDGE('',*,*,#656,.F.) ;
#1142=ORIENTED_EDGE('',*,*,#1137,.T.) ;
#1156=ORIENTED_EDGE('',*,*,#842,.T.) ;
#1157=ORIENTED_EDGE('',*,*,#1137,.F.) ;
#1158=ORIENTED_EDGE('',*,*,#651,.F.) ;
#1159=ORIENTED_EDGE('',*,*,#1154,.T.) ;
#1173=ORIENTED_EDGE('',*,*,#849,.T.) ;
#1174=ORIENTED_EDGE('',*,*,#1154,.F.) ;
#1175=ORIENTED_EDGE('',*,*,#644,.F.) ;
#1176=ORIENTED_EDGE('',*,*,#1171,.T.) ;
#1185=ORIENTED_EDGE('',*,*,#854,.T.) ;
#1186=ORIENTED_EDGE('',*,*,#1171,.F.) ;
#1187=ORIENTED_EDGE('',*,*,#637,.F.) ;
#1188=ORIENTED_EDGE('',*,*,#1132,.T.) ;
#64=EDGE_LOOP('',(#65,#66,#67,#68)) ;
#95=EDGE_LOOP('',(#96,#97,#98,#99)) ;
#126=EDGE_LOOP('',(#127,#128,#129,#130)) ;
#166=EDGE_LOOP('',(#167,#168,#169,#170)) ;
#192=EDGE_LOOP('',(#193,#194,#195,#196)) ;
#223=EDGE_LOOP('',(#224,#225,#226,#227)) ;
#258=EDGE_LOOP('',(#259,#260,#261,#262)) ;
#289=EDGE_LOOP('',(#290,#291,#292,#293)) ;
#315=EDGE_LOOP('',(#316,#317,#318,#319)) ;
#350=EDGE_LOOP('',(#351,#352,#353,#354)) ;
#376=EDGE_LOOP('',(#377,#378,#379,#380)) ;
#402=EDGE_LOOP('',(#403,#404,#405,#406)) ;
#442=EDGE_LOOP('',(#443,#444,#445,#446)) ;
#459=EDGE_LOOP('',(#460,#461,#462,#463)) ;
#547=EDGE_LOOP('',(#548,#549,#550,#551,#552,#553,#554,#555,#556,#557,#558,#559,#560,#561,#562,#563,#564,#565,#566,#567,#568,#569,#570,#571)) ;
#573=EDGE_LOOP('',(#574,#575)) ;
#591=EDGE_LOOP('',(#592,#593)) ;
#623=EDGE_LOOP('',(#624,#625,#626,#627)) ;
#657=EDGE_LOOP('',(#658,#659,#660,#661)) ;
#745=EDGE_LOOP('',(#746,#747,#748,#749,#750,#751,#752,#753,#754,#755,#756,#757,#758,#759,#760,#761,#762,#763,#764,#765,#766,#767,#768,#769)) ;
#771=EDGE_LOOP('',(#772,#773)) ;
#789=EDGE_LOOP('',(#790,#791)) ;
#821=EDGE_LOOP('',(#822,#823,#824,#825)) ;
#855=EDGE_LOOP('',(#856,#857,#858,#859)) ;
#867=EDGE_LOOP('',(#868,#869,#870,#871)) ;
#879=EDGE_LOOP('',(#880,#881,#882,#883)) ;
#896=EDGE_LOOP('',(#897,#898,#899,#900)) ;
#913=EDGE_LOOP('',(#914,#915,#916,#917)) ;
#930=EDGE_LOOP('',(#931,#932,#933,#934)) ;
#942=EDGE_LOOP('',(#943,#944,#945,#946)) ;
#949=EDGE_LOOP('',(#950,#951,#952,#953)) ;
#961=EDGE_LOOP('',(#962,#963,#964,#965)) ;
#978=EDGE_LOOP('',(#979,#980,#981,#982)) ;
#995=EDGE_LOOP('',(#996,#997,#998,#999)) ;
#1012=EDGE_LOOP('',(#1013,#1014,#1015,#1016)) ;
#1019=EDGE_LOOP('',(#1020,#1021,#1022,#1023)) ;
#1041=EDGE_LOOP('',(#1042,#1043,#1044,#1045)) ;
#1048=EDGE_LOOP('',(#1049,#1050,#1051,#1052)) ;
#1070=EDGE_LOOP('',(#1071,#1072,#1073,#1074)) ;
#1087=EDGE_LOOP('',(#1088,#1089,#1090,#1091)) ;
#1104=EDGE_LOOP('',(#1105,#1106,#1107,#1108)) ;
#1116=EDGE_LOOP('',(#1117,#1118,#1119,#1120)) ;
#1138=EDGE_LOOP('',(#1139,#1140,#1141,#1142)) ;
#1155=EDGE_LOOP('',(#1156,#1157,#1158,#1159)) ;
#1172=EDGE_LOOP('',(#1173,#1174,#1175,#1176)) ;
#1184=EDGE_LOOP('',(#1185,#1186,#1187,#1188)) ;
#21=MANIFOLD_SOLID_BREP('INSULATION_PLATE_FR4',#30) ;
#41=VERTEX_POINT('',#40) ;
#43=VERTEX_POINT('',#42) ;
#50=VERTEX_POINT('',#49) ;
#57=VERTEX_POINT('',#56) ;
#81=VERTEX_POINT('',#80) ;
#88=VERTEX_POINT('',#87) ;
#112=VERTEX_POINT('',#111) ;
#119=VERTEX_POINT('',#118) ;
#143=VERTEX_POINT('',#142) ;
#145=VERTEX_POINT('',#144) ;
#152=VERTEX_POINT('',#151) ;
#159=VERTEX_POINT('',#158) ;
#178=VERTEX_POINT('',#177) ;
#185=VERTEX_POINT('',#184) ;
#209=VERTEX_POINT('',#208) ;
#216=VERTEX_POINT('',#215) ;
#235=VERTEX_POINT('',#234) ;
#237=VERTEX_POINT('',#236) ;
#244=VERTEX_POINT('',#243) ;
#251=VERTEX_POINT('',#250) ;
#275=VERTEX_POINT('',#274) ;
#282=VERTEX_POINT('',#281) ;
#301=VERTEX_POINT('',#300) ;
#308=VERTEX_POINT('',#307) ;
#327=VERTEX_POINT('',#326) ;
#329=VERTEX_POINT('',#328) ;
#336=VERTEX_POINT('',#335) ;
#343=VERTEX_POINT('',#342) ;
#362=VERTEX_POINT('',#361) ;
#369=VERTEX_POINT('',#368) ;
#388=VERTEX_POINT('',#387) ;
#395=VERTEX_POINT('',#394) ;
#419=VERTEX_POINT('',#418) ;
#421=VERTEX_POINT('',#420) ;
#428=VERTEX_POINT('',#427) ;
#435=VERTEX_POINT('',#434) ;
#476=VERTEX_POINT('',#475) ;
#483=VERTEX_POINT('',#482) ;
#490=VERTEX_POINT('',#489) ;
#497=VERTEX_POINT('',#496) ;
#514=VERTEX_POINT('',#513) ;
#521=VERTEX_POINT('',#520) ;
#528=VERTEX_POINT('',#527) ;
#535=VERTEX_POINT('',#534) ;
#582=VERTEX_POINT('',#581) ;
#584=VERTEX_POINT('',#583) ;
#600=VERTEX_POINT('',#599) ;
#602=VERTEX_POINT('',#601) ;
#609=VERTEX_POINT('',#608) ;
#616=VERTEX_POINT('',#615) ;
#634=VERTEX_POINT('',#633) ;
#636=VERTEX_POINT('',#635) ;
#643=VERTEX_POINT('',#642) ;
#650=VERTEX_POINT('',#649) ;
#679=VERTEX_POINT('',#678) ;
#686=VERTEX_POINT('',#685) ;
#693=VERTEX_POINT('',#692) ;
#700=VERTEX_POINT('',#699) ;
#717=VERTEX_POINT('',#716) ;
#724=VERTEX_POINT('',#723) ;
#731=VERTEX_POINT('',#730) ;
#738=VERTEX_POINT('',#737) ;
#780=VERTEX_POINT('',#779) ;
#782=VERTEX_POINT('',#781) ;
#798=VERTEX_POINT('',#797) ;
#800=VERTEX_POINT('',#799) ;
#807=VERTEX_POINT('',#806) ;
#814=VERTEX_POINT('',#813) ;
#832=VERTEX_POINT('',#831) ;
#834=VERTEX_POINT('',#833) ;
#841=VERTEX_POINT('',#840) ;
#848=VERTEX_POINT('',#847) ;
#1191=ADVANCED_BREP_SHAPE_REPRESENTATION('NONE',(#21),#16) ;
#70=ADVANCED_FACE('INSULATION_PLATE_FR4',(#69),#35,.F.) ;
#101=ADVANCED_FACE('INSULATION_PLATE_FR4',(#100),#75,.F.) ;
#132=ADVANCED_FACE('INSULATION_PLATE_FR4',(#131),#106,.F.) ;
#172=ADVANCED_FACE('INSULATION_PLATE_FR4',(#171),#137,.F.) ;
#198=ADVANCED_FACE('INSULATION_PLATE_FR4',(#197),#75,.F.) ;
#229=ADVANCED_FACE('INSULATION_PLATE_FR4',(#228),#203,.F.) ;
#264=ADVANCED_FACE('INSULATION_PLATE_FR4',(#263),#35,.F.) ;
#295=ADVANCED_FACE('INSULATION_PLATE_FR4',(#294),#269,.F.) ;
#321=ADVANCED_FACE('INSULATION_PLATE_FR4',(#320),#106,.F.) ;
#356=ADVANCED_FACE('INSULATION_PLATE_FR4',(#355),#137,.F.) ;
#382=ADVANCED_FACE('INSULATION_PLATE_FR4',(#381),#269,.F.) ;
#408=ADVANCED_FACE('INSULATION_PLATE_FR4',(#407),#203,.F.) ;
#448=ADVANCED_FACE('INSULATION_PLATE_FR4',(#447),#413,.F.) ;
#465=ADVANCED_FACE('INSULATION_PLATE_FR4',(#464),#413,.F.) ;
#663=ADVANCED_FACE('INSULATION_PLATE_FR4',(#572,#576,#594,#628,#662),#470,.F.) ;
#861=ADVANCED_FACE('INSULATION_PLATE_FR4',(#770,#774,#792,#826,#860),#668,.T.) ;
#873=ADVANCED_FACE('INSULATION_PLATE_FR4',(#872),#866,.T.) ;
#885=ADVANCED_FACE('INSULATION_PLATE_FR4',(#884),#866,.T.) ;
#902=ADVANCED_FACE('INSULATION_PLATE_FR4',(#901),#890,.T.) ;
#919=ADVANCED_FACE('INSULATION_PLATE_FR4',(#918),#907,.T.) ;
#936=ADVANCED_FACE('INSULATION_PLATE_FR4',(#935),#924,.T.) ;
#948=ADVANCED_FACE('INSULATION_PLATE_FR4',(#947),#941,.T.) ;
#955=ADVANCED_FACE('INSULATION_PLATE_FR4',(#954),#941,.T.) ;
#967=ADVANCED_FACE('INSULATION_PLATE_FR4',(#966),#941,.T.) ;
#984=ADVANCED_FACE('INSULATION_PLATE_FR4',(#983),#972,.T.) ;
#1001=ADVANCED_FACE('INSULATION_PLATE_FR4',(#1000),#989,.T.) ;
#1018=ADVANCED_FACE('INSULATION_PLATE_FR4',(#1017),#1006,.T.) ;
#1025=ADVANCED_FACE('INSULATION_PLATE_FR4',(#1024),#866,.T.) ;
#1047=ADVANCED_FACE('INSULATION_PLATE_FR4',(#1046),#1030,.F.) ;
#1054=ADVANCED_FACE('INSULATION_PLATE_FR4',(#1053),#1030,.F.) ;
#1076=ADVANCED_FACE('INSULATION_PLATE_FR4',(#1075),#1059,.F.) ;
#1093=ADVANCED_FACE('INSULATION_PLATE_FR4',(#1092),#1081,.T.) ;
#1110=ADVANCED_FACE('INSULATION_PLATE_FR4',(#1109),#1098,.F.) ;
#1122=ADVANCED_FACE('INSULATION_PLATE_FR4',(#1121),#1115,.T.) ;
#1144=ADVANCED_FACE('INSULATION_PLATE_FR4',(#1143),#1127,.F.) ;
#1161=ADVANCED_FACE('INSULATION_PLATE_FR4',(#1160),#1149,.F.) ;
#1178=ADVANCED_FACE('INSULATION_PLATE_FR4',(#1177),#1166,.F.) ;
#1190=ADVANCED_FACE('INSULATION_PLATE_FR4',(#1189),#1183,.F.) ;
#4=APPLICATION_PROTOCOL_DEFINITION('international standard','ap242_managed_model_based_3d_engineering',2014,#1) ;
#22=COLOUR_RGB('Colour',0.823529411765,0.823529411765,1.) ;
#69=FACE_OUTER_BOUND('',#64,.T.) ;
#100=FACE_OUTER_BOUND('',#95,.T.) ;
#131=FACE_OUTER_BOUND('',#126,.T.) ;
#171=FACE_OUTER_BOUND('',#166,.T.) ;
#197=FACE_OUTER_BOUND('',#192,.T.) ;
#228=FACE_OUTER_BOUND('',#223,.T.) ;
#263=FACE_OUTER_BOUND('',#258,.T.) ;
#294=FACE_OUTER_BOUND('',#289,.T.) ;
#320=FACE_OUTER_BOUND('',#315,.T.) ;
#355=FACE_OUTER_BOUND('',#350,.T.) ;
#381=FACE_OUTER_BOUND('',#376,.T.) ;
#407=FACE_OUTER_BOUND('',#402,.T.) ;
#447=FACE_OUTER_BOUND('',#442,.T.) ;
#464=FACE_OUTER_BOUND('',#459,.T.) ;
#572=FACE_OUTER_BOUND('',#547,.T.) ;
#770=FACE_OUTER_BOUND('',#745,.T.) ;
#872=FACE_OUTER_BOUND('',#867,.T.) ;
#884=FACE_OUTER_BOUND('',#879,.T.) ;
#901=FACE_OUTER_BOUND('',#896,.T.) ;
#918=FACE_OUTER_BOUND('',#913,.T.) ;
#935=FACE_OUTER_BOUND('',#930,.T.) ;
#947=FACE_OUTER_BOUND('',#942,.T.) ;
#954=FACE_OUTER_BOUND('',#949,.T.) ;
#966=FACE_OUTER_BOUND('',#961,.T.) ;
#983=FACE_OUTER_BOUND('',#978,.T.) ;
#1000=FACE_OUTER_BOUND('',#995,.T.) ;
#1017=FACE_OUTER_BOUND('',#1012,.T.) ;
#1024=FACE_OUTER_BOUND('',#1019,.T.) ;
#1046=FACE_OUTER_BOUND('',#1041,.T.) ;
#1053=FACE_OUTER_BOUND('',#1048,.T.) ;
#1075=FACE_OUTER_BOUND('',#1070,.T.) ;
#1092=FACE_OUTER_BOUND('',#1087,.T.) ;
#1109=FACE_OUTER_BOUND('',#1104,.T.) ;
#1121=FACE_OUTER_BOUND('',#1116,.T.) ;
#1143=FACE_OUTER_BOUND('',#1138,.T.) ;
#1160=FACE_OUTER_BOUND('',#1155,.T.) ;
#1177=FACE_OUTER_BOUND('',#1172,.T.) ;
#1189=FACE_OUTER_BOUND('',#1184,.T.) ;
#9=PRODUCT_CATEGORY_RELATIONSHIP(' ',' ',#7,#8) ;
#6=PRODUCT_DEFINITION_FORMATION_WITH_SPECIFIED_SOURCE('',' ',#5,.NOT_KNOWN.) ;
#20=SHAPE_DEFINITION_REPRESENTATION(#11,#19) ;
#12=(LENGTH_UNIT()NAMED_UNIT(*)SI_UNIT(.MILLI.,.METRE.)) ;
#13=(NAMED_UNIT(*)PLANE_ANGLE_UNIT()SI_UNIT($,.RADIAN.)) ;
#14=(NAMED_UNIT(*)SI_UNIT($,.STERADIAN.)SOLID_ANGLE_UNIT()) ;
#16=(GEOMETRIC_REPRESENTATION_CONTEXT(3)GLOBAL_UNCERTAINTY_ASSIGNED_CONTEXT((#15))GLOBAL_UNIT_ASSIGNED_CONTEXT((#12,#13,#14))REPRESENTATION_CONTEXT(' ',' ')) ;
ENDSEC;
END-ISO-10303-21;
